<?xml version="1.0" encoding="utf-8"?>
<!-- Generator: Adobe Illustrator 27.5.0, SVG Export Plug-In . SVG Version: 6.00 Build 0)  -->
<svg version="1.1" id="Illustration" xmlns="http://www.w3.org/2000/svg" xmlns:xlink="http://www.w3.org/1999/xlink" x="0px"
	 y="0px" viewBox="0 0 1200 800" style="enable-background:new 0 0 1200 800;" xml:space="preserve">
<g>
	<defs>
		<rect id="SVGID_1_" width="1200" height="800"/>
	</defs>
	<clipPath id="SVGID_00000042694181581251937320000015842586212151929237_">
		<use xlink:href="#SVGID_1_"  style="overflow:visible;"/>
	</clipPath>
	<g style="clip-path:url(#SVGID_00000042694181581251937320000015842586212151929237_);">
		
			<linearGradient id="SVGID_00000176743299959536299950000016426525942787337650_" gradientUnits="userSpaceOnUse" x1="-1550.0225" y1="474.1005" x2="-528.4029" y2="474.1005" gradientTransform="matrix(-0.9956 0.0942 0.0899 0.9496 -482.4366 9.9387)">
			<stop  offset="0" style="stop-color:#B37CFF"/>
			<stop  offset="1" style="stop-color:#F895E7"/>
		</linearGradient>
		<path style="opacity:0.5;fill:url(#SVGID_00000176743299959536299950000016426525942787337650_);" d="M586.973,710.388
			c0,0,379.8-31.601,476.311-138.452c96.511-106.851,47.595-199.64-35.909-219.334c-83.505-19.694-99.999-46.833-60.09-89.323
			c39.908-42.49,87.751-126.484-11.555-196.944c-99.306-70.46-193.311,53.141-276.801,45.811s-55.801-61.249-160.394-15.923
			c-104.593,45.326-90.475-59.159-178.11-60.214c-87.635-1.055-74.177,100.818-169.813,129.272
			c-163.568,48.665-25.788,256.983-52.07,314.619C92.26,537.536,81.065,719.955,226.694,732.075
			C372.324,744.196,586.973,710.388,586.973,710.388z"/>
		
			<linearGradient id="SVGID_00000175291270927522069290000016303902679153402813_" gradientUnits="userSpaceOnUse" x1="209.9065" y1="444.9184" x2="1159.0441" y2="444.9184">
			<stop  offset="0" style="stop-color:#B37CFF"/>
			<stop  offset="1" style="stop-color:#F895E7"/>
		</linearGradient>
		<path style="opacity:0.5;fill:url(#SVGID_00000175291270927522069290000016303902679153402813_);" d="M676.255,744.594
			c0,0-322.273,3.748-412.04-80.553c-89.767-84.301-55.978-168.344,12.756-192.152c68.734-23.808,80.458-48.567,43.473-81.965
			c-36.984-33.398-83.956-101.953-5.965-170.847s166.984,30.061,236.69,16.921c69.706-13.14,42.099-57.396,133.768-26.833
			s71.458-58.423,145.153-66.489c73.696-8.066,66.142,92.556,141.944,54.574c75.803-37.982,137.804-32.741,170.394,27.58
			s18.432,141.564-53.063,189.982c-71.495,48.418-63.821,45.117-37.102,92.694c26.72,47.578,50.68,204.036-70.961,226.383
			C859.663,756.234,676.255,744.594,676.255,744.594z"/>
		
			<linearGradient id="SVGID_00000127006457086264456060000017467543643193681796_" gradientUnits="userSpaceOnUse" x1="117.1285" y1="160.3276" x2="383.5956" y2="557.0234">
			<stop  offset="0" style="stop-color:#B37CFF"/>
			<stop  offset="1" style="stop-color:#F895E7"/>
		</linearGradient>
		<path style="fill:url(#SVGID_00000127006457086264456060000017467543643193681796_);" d="M93.609,163.797
			c1.121,116.789,33.411,426.115,338.226,493.031c17.029,3.738,33.582-8.034,35.682-25.341
			c10.593-87.274,8.062-338.697-332.006-494.944C115.795,127.485,93.401,142.101,93.609,163.797z"/>
		
			<linearGradient id="SVGID_00000136400637876618905510000004184200442702764703_" gradientUnits="userSpaceOnUse" x1="346.2991" y1="705.575" x2="39.0393" y2="336.0329">
			<stop  offset="0" style="stop-color:#A737D5"/>
			<stop  offset="1" style="stop-color:#EF497A"/>
		</linearGradient>
		<path style="fill:url(#SVGID_00000136400637876618905510000004184200442702764703_);" d="M58.206,407.882
			c15.413,90.6,79.018,326.909,324.176,340.945c13.696,0.784,25.091-10.423,24.568-24.132
			c-2.637-69.126-35.911-264.154-319.582-343.205C70.923,376.907,55.343,391.052,58.206,407.882z"/>
		<g>
			
				<linearGradient id="SVGID_00000147909015950817666420000002586606350165444505_" gradientUnits="userSpaceOnUse" x1="830.8943" y1="587.2859" x2="1094.052" y2="240.0943">
				<stop  offset="0" style="stop-color:#53D8FF"/>
				<stop  offset="1" style="stop-color:#3840F7"/>
			</linearGradient>
			<path style="fill:url(#SVGID_00000147909015950817666420000002586606350165444505_);" d="M902.608,730.472
				c43.479,8.693,99.003-38.709,116.89-90.496c18.408-53.293-15.343-75.618-15.083-149.569c0.296-84.006,43.995-96.667,72.899-209.9
				c6.521-25.547,44.261-173.39-2.514-201.101c-43.248-25.622-164.727,47.911-186.019,142.028
				c-15.182,67.11,31.75,95.287,13.826,173.45c-15.728,68.583-57.062,69.575-72.899,135.743
				C810.429,611.182,845.52,719.058,902.608,730.472z"/>
			
				<linearGradient id="SVGID_00000101099798949509779900000014949098622379772090_" gradientUnits="userSpaceOnUse" x1="998.6405" y1="221.9375" x2="890.2806" y2="747.6317">
				<stop  offset="0" style="stop-color:#2B3582"/>
				<stop  offset="1" style="stop-color:#150E42"/>
			</linearGradient>
			<path style="fill:url(#SVGID_00000101099798949509779900000014949098622379772090_);" d="M905.766,750.824
				c-11.721-90.51,11.144-230.145,32.39-331.347c23.001-109.568,49.107-198.94,49.368-199.831l3.619,1.062
				c-0.261,0.889-26.331,90.143-49.303,199.571c-21.182,100.907-43.987,240.081-32.334,330.061L905.766,750.824z"/>
		</g>
		<g>
			
				<linearGradient id="SVGID_00000176021296948607765690000003906784050718494082_" gradientUnits="userSpaceOnUse" x1="1163.4834" y1="316.4184" x2="740.1649" y2="1060.7131">
				<stop  offset="0" style="stop-color:#CB236D"/>
				<stop  offset="1" style="stop-color:#4C246D"/>
			</linearGradient>
			<path style="fill:url(#SVGID_00000176021296948607765690000003906784050718494082_);" d="M928.029,728.993
				c-53.596-27.926-71.942-123.821-41.475-154.988c20.585-21.058,50.106,1.091,78.585-20.738
				c36.362-27.871,9.613-80.362,38.201-148.439c24.329-57.934,82.685-112.754,116.786-101.506
				c35.697,11.774,54.498,99.137,24.012,151.713c-19.825,34.191-50.172,35.871-56.756,67.671
				c-7.639,36.899,29.268,53.726,29.469,89.5C1117.213,676.466,998.933,765.937,928.029,728.993z"/>
			
				<linearGradient id="SVGID_00000057136241683640469320000001569752618534417295_" gradientUnits="userSpaceOnUse" x1="1038.1234" y1="428.1841" x2="970.4724" y2="756.3843">
				<stop  offset="0" style="stop-color:#2B3582"/>
				<stop  offset="1" style="stop-color:#150E42"/>
			</linearGradient>
			<path style="fill:url(#SVGID_00000057136241683640469320000001569752618534417295_);" d="M956.951,753.552
				c-0.32,0-0.644-0.07-0.951-0.22c-1.085-0.526-1.538-1.832-1.011-2.917c71.054-146.415,91.89-316.268,92.092-317.967
				c0.142-1.197,1.23-2.053,2.425-1.909c1.197,0.142,2.052,1.228,1.909,2.425c-0.203,1.706-21.128,172.289-92.499,319.357
				C958.539,753.099,957.761,753.552,956.951,753.552z"/>
			<path style="fill:#F0F0F0;" d="M1102.729,476.392c-0.215,0-0.432-0.069-0.614-0.211c-0.436-0.34-0.514-0.968-0.174-1.404
				c40.644-52.169,43.286-91.135,38.345-114.637c-5.332-25.362-20.342-38.592-20.493-38.722c-0.417-0.361-0.463-0.993-0.102-1.411
				c0.362-0.418,0.994-0.463,1.411-0.102c0.637,0.552,15.673,13.808,21.142,39.824c5.028,23.915,2.391,63.502-38.724,116.277
				C1103.321,476.26,1103.026,476.392,1102.729,476.392z"/>
			<path style="fill:#F0F0F0;" d="M923.197,716.164c-0.319,0-0.632-0.152-0.826-0.435c-34.458-50.29-46.211-89.144-34.93-115.482
				c10.026-23.409,35.34-27.766,35.595-27.807c0.548-0.09,1.058,0.282,1.147,0.827c0.088,0.545-0.281,1.059-0.826,1.147
				c-0.244,0.04-24.509,4.246-34.087,26.645c-10.976,25.667,0.716,63.868,34.751,113.54c0.313,0.456,0.196,1.078-0.259,1.39
				C923.588,716.107,923.392,716.164,923.197,716.164z"/>
		</g>
		<g>
			
				<linearGradient id="SVGID_00000123424794661257682010000014291986407332048274_" gradientUnits="userSpaceOnUse" x1="394.6268" y1="90.0715" x2="19.9632" y2="546.3081">
				<stop  offset="0" style="stop-color:#53D8FF"/>
				<stop  offset="1" style="stop-color:#3840F7"/>
			</linearGradient>
			<path style="fill:url(#SVGID_00000123424794661257682010000014291986407332048274_);" d="M404.507,340.49H176.165
				c-7.281,0-13.184-5.903-13.184-13.184V106.831c0-7.268,5.881-13.164,13.149-13.184l230.167-0.618
				c7.323-0.02,13.258,5.932,13.219,13.254l-1.826,221.093C417.652,334.63,411.761,340.49,404.507,340.49z"/>
			<path style="opacity:0.6;fill:#FFFFFF;" d="M393.317,109.905l-204.174,1.257c-7.38,0.045-13.329,6.059-13.295,13.439
				l1.425,185.432c0.034,7.269,5.866,13.181,13.133,13.313l198.38,3.619c7.409,0.135,13.517-5.778,13.62-13.188l4.369-190.308
				C406.881,115.977,400.811,109.859,393.317,109.905z"/>
			<path style="opacity:0.6;fill:#FFFFFF;" d="M385.016,127.102v1.408c0,2.21-1.792,4.002-4.002,4.002H223.699
				c-2.21,0-4.002-1.792-4.002-4.002v-1.408c0-2.21,1.792-4.002,4.002-4.002h157.315C383.224,123.1,385.016,124.892,385.016,127.102
				z"/>
			<path style="opacity:0.6;fill:#FFFFFF;" d="M367.463,144.807L367.463,144.807c-0.113,2.095-1.826,3.747-3.923,3.785
				l-137.58,2.507c-2.238,0.041-4.075-1.763-4.075-4.001v-0.327c0-2.186,1.753-3.967,3.939-4.001l137.58-2.181
				C365.724,140.552,367.589,142.49,367.463,144.807z"/>
			<path style="fill:#FFFFFF;" d="M381.506,316.582c-0.046,0-0.092,0-0.139,0l-186.083-2.233c-3.088-0.037-5.973-1.279-8.123-3.496
				c-2.149-2.217-3.301-5.139-3.242-8.227l4.789-130.945c0.057-3.039,1.31-5.905,3.525-8.037c2.215-2.132,5.12-3.284,8.202-3.213
				l185.76,3.616c6.332,0.123,11.392,5.375,11.279,11.708c0,0.011,0,0.022,0,0.033l-4.464,129.527
				C392.898,311.54,387.751,316.582,381.506,316.582z M200.206,164.428c-1.95,0-3.792,0.742-5.201,2.098
				c-1.445,1.391-2.262,3.26-2.3,5.266l-4.789,130.945c-0.037,1.979,0.714,3.885,2.116,5.331c1.402,1.447,3.284,2.257,5.299,2.281
				l186.083,2.233c4.121,0.087,7.521-3.257,7.594-7.372l4.464-129.542c0.065-4.124-3.232-7.542-7.358-7.622l-185.76-3.616
				C200.306,164.428,200.256,164.428,200.206,164.428z"/>
			<path style="fill:#FFFFFF;" d="M393.063,189.688H190.404c-1.105,0-2-0.895-2-2s0.895-2,2-2h202.659c1.104,0,2,0.895,2,2
				S394.167,189.688,393.063,189.688z"/>
		</g>
		<g>
			
				<linearGradient id="SVGID_00000095324581929727395940000006434995084479551147_" gradientUnits="userSpaceOnUse" x1="593.0272" y1="807.2333" x2="583.0979" y2="610.6351">
				<stop  offset="0" style="stop-color:#2B3582"/>
				<stop  offset="1" style="stop-color:#150E42"/>
			</linearGradient>
			<polygon style="fill:url(#SVGID_00000095324581929727395940000006434995084479551147_);" points="510.051,584.042 
				493.56,731.945 684.889,731.945 659.969,584.042 			"/>
			
				<linearGradient id="SVGID_00000159446778251449859110000009639641985110407084_" gradientUnits="userSpaceOnUse" x1="593.6452" y1="733.0489" x2="502.2964" y2="933.619">
				<stop  offset="0" style="stop-color:#2B3582"/>
				<stop  offset="1" style="stop-color:#150E42"/>
			</linearGradient>
			<path style="fill:url(#SVGID_00000159446778251449859110000009639641985110407084_);" d="M726.102,762.206H446.078
				c-7.608,0-13.32-5.416-11.849-11.233l3.593-14.21c1.081-4.273,5.782-7.411,11.366-7.585l269.953-8.424
				c5.834-0.182,11,2.915,12.271,7.356l6.477,22.634C739.572,756.624,733.832,762.206,726.102,762.206z"/>
			
				<linearGradient id="SVGID_00000005971213028555975700000004739271250425873045_" gradientUnits="userSpaceOnUse" x1="225.047" y1="408.6495" x2="952.8631" y2="408.6495">
				<stop  offset="0" style="stop-color:#2B3582"/>
				<stop  offset="1" style="stop-color:#150E42"/>
			</linearGradient>
			<path style="fill:url(#SVGID_00000005971213028555975700000004739271250425873045_);" d="M225.047,206.003v379.479
				c0,31.217,24.876,56.745,56.083,57.55c138.604,3.574,495.596,12.24,627.538,10.295c22.677-0.334,41.048-18.482,41.702-41.152
				c2.544-88.158,6.676-300.149-8.615-398.568c-3.22-20.726-20.715-36.224-41.679-36.895
				c-116.133-3.715-502.243-15.512-634.123-12.55C243.209,164.673,225.047,183.253,225.047,206.003z"/>
			
				<linearGradient id="SVGID_00000129195262867004415060000006301595639932497077_" gradientUnits="userSpaceOnUse" x1="513.8062" y1="254.5737" x2="786.4119" y2="771.7872">
				<stop  offset="0" style="stop-color:#FDF53F"/>
				<stop  offset="0.6645" style="stop-color:#E57A58"/>
				<stop  offset="1" style="stop-color:#D93C65"/>
			</linearGradient>
			<path style="fill:url(#SVGID_00000129195262867004415060000006301595639932497077_);" d="M248.858,204.156v360.531
				c0,18.226,14.631,33.078,32.855,33.35l607.973,9.09c18.068,0.27,32.879-14.266,32.946-32.336l1.231-357.31
				c0.048-12.921-10.246-23.507-23.162-23.821l-625.495-15.218C260.759,178.09,248.858,189.705,248.858,204.156z"/>
			<path style="opacity:0.65;fill:#FFFFFF;" d="M928.171,621.883c-0.007,0-0.014,0-0.021,0l-679.313-13.751
				c-0.552-0.011-0.991-0.468-0.98-1.02c0.011-0.552,0.491-1.012,1.02-0.979l679.313,13.752c0.552,0.011,0.991,0.468,0.979,1.02
				C929.16,621.448,928.714,621.883,928.171,621.883z"/>
			<path style="fill:#FFFFFF;" d="M596.82,733.114c-0.545,0-0.991-0.438-0.999-0.985c-0.008-0.552,0.433-1.006,0.985-1.015
				l11.568-0.169c0.005,0,0.01,0,0.015,0c0.545,0,0.991,0.438,1,0.985c0.008,0.552-0.433,1.006-0.985,1.015l-11.568,0.169
				C596.83,733.114,596.825,733.114,596.82,733.114z"/>
			<path style="fill:#FFFFFF;" d="M444.596,754.459c-0.052,0-0.105-0.004-0.159-0.013c-0.545-0.087-0.917-0.6-0.83-1.145
				l1.65-10.336c0.894-5.596,5.655-9.718,11.321-9.801l122.694-1.794c0.55-0.007,1.006,0.433,1.015,0.985
				c0.008,0.552-0.433,1.006-0.985,1.015l-122.694,1.794c-4.692,0.069-8.635,3.482-9.375,8.116l-1.65,10.336
				C445.503,754.108,445.079,754.459,444.596,754.459z"/>
		</g>
		<g>
			
				<linearGradient id="SVGID_00000072961961927083879970000004859237565782811523_" gradientUnits="userSpaceOnUse" x1="6726.7969" y1="531.5204" x2="6328.5259" y2="984.9973" gradientTransform="matrix(1 0 0 1 -6332.4268 0)">
				<stop  offset="0" style="stop-color:#53D8FF"/>
				<stop  offset="1" style="stop-color:#3840F7"/>
			</linearGradient>
			<path style="fill:url(#SVGID_00000072961961927083879970000004859237565782811523_);" d="M323.223,762.289
				c-1.361,0-2.465-1.103-2.465-2.465V465.236c0-1.361,1.103-2.465,2.465-2.465s2.465,1.103,2.465,2.465v294.588
				C325.687,761.186,324.584,762.289,323.223,762.289z"/>
			
				<linearGradient id="SVGID_00000057866836021406848930000010441230572192330380_" gradientUnits="userSpaceOnUse" x1="6659.6265" y1="498.4058" x2="6261.355" y2="951.8826" gradientTransform="matrix(1 0 0 1 -6332.4268 0)">
				<stop  offset="0" style="stop-color:#53D8FF"/>
				<stop  offset="1" style="stop-color:#3840F7"/>
			</linearGradient>
			<path style="fill:url(#SVGID_00000057866836021406848930000010441230572192330380_);" d="M226.968,762.289
				c-1.361,0-2.465-1.103-2.465-2.465V465.236c0-1.361,1.103-2.465,2.465-2.465s2.465,1.103,2.465,2.465v294.588
				C229.433,761.186,228.33,762.289,226.968,762.289z"/>
			
				<linearGradient id="SVGID_00000154418928075758316770000017303553732146150029_" gradientUnits="userSpaceOnUse" x1="6392.8408" y1="613.4645" x2="6523.8018" y2="613.4645" gradientTransform="matrix(1 0 0 1 -6332.4268 0)">
				<stop  offset="0" style="stop-color:#9CFFFB"/>
				<stop  offset="1" style="stop-color:#9BFFFA"/>
			</linearGradient>
			<path style="fill:url(#SVGID_00000154418928075758316770000017303553732146150029_);" d="M62.878,764.158
				c-0.322,0-0.648-0.063-0.963-0.197c-1.252-0.532-1.836-1.979-1.304-3.233l126.031-296.456c0.532-1.253,1.982-1.835,3.232-1.304
				c1.253,0.532,1.836,1.979,1.304,3.233L65.147,762.657C64.749,763.594,63.837,764.158,62.878,764.158z"/>
			
				<linearGradient id="SVGID_00000075871067558186685110000005079077380693079966_" gradientUnits="userSpaceOnUse" x1="6470.689" y1="613.4645" x2="6601.6499" y2="613.4645" gradientTransform="matrix(1 0 0 1 -6332.4268 0)">
				<stop  offset="0" style="stop-color:#9CFFFB"/>
				<stop  offset="1" style="stop-color:#9BFFFA"/>
			</linearGradient>
			<path style="fill:url(#SVGID_00000075871067558186685110000005079077380693079966_);" d="M140.726,764.158
				c-0.322,0-0.648-0.063-0.963-0.197c-1.252-0.532-1.836-1.979-1.304-3.233L264.49,464.272c0.533-1.253,1.981-1.835,3.232-1.304
				c1.252,0.532,1.836,1.979,1.304,3.233L142.995,762.657C142.597,763.594,141.685,764.158,140.726,764.158z"/>
			
				<linearGradient id="SVGID_00000178916370243650945070000009774973699564903054_" gradientUnits="userSpaceOnUse" x1="6511.0889" y1="464.4737" x2="6662.9492" y2="464.4737" gradientTransform="matrix(1 0 0 1 -6332.4268 0)">
				<stop  offset="0" style="stop-color:#9CFFFB"/>
				<stop  offset="1" style="stop-color:#9BFFFA"/>
			</linearGradient>
			<path style="fill:url(#SVGID_00000178916370243650945070000009774973699564903054_);" d="M328.174,467.947H181.01
				c-1.297,0-2.348-1.051-2.348-2.348v-2.251c0-1.297,1.051-2.348,2.348-2.348h147.164c1.297,0,2.348,1.051,2.348,2.348v2.251
				C330.522,466.896,329.471,467.947,328.174,467.947z"/>
			
				<linearGradient id="SVGID_00000089570995798301954080000001058947234107994244_" gradientUnits="userSpaceOnUse" x1="6499.6016" y1="510.5664" x2="6582.6089" y2="510.5664" gradientTransform="matrix(1 0 0 1 -6332.4268 0)">
				<stop  offset="0" style="stop-color:#9CFFFB"/>
				<stop  offset="1" style="stop-color:#9BFFFA"/>
			</linearGradient>
			<path style="fill:url(#SVGID_00000089570995798301954080000001058947234107994244_);" d="M247.718,513.031h-78.078
				c-1.361,0-2.464-1.103-2.464-2.465s1.103-2.465,2.464-2.465h78.078c1.361,0,2.465,1.103,2.465,2.465
				S249.079,513.031,247.718,513.031z"/>
			
				<linearGradient id="SVGID_00000174599454577099454770000017560932400720758662_" gradientUnits="userSpaceOnUse" x1="6478.1089" y1="566.6339" x2="6556.1875" y2="566.6339" gradientTransform="matrix(1 0 0 1 -6332.4268 0)">
				<stop  offset="0" style="stop-color:#9CFFFB"/>
				<stop  offset="1" style="stop-color:#9BFFFA"/>
			</linearGradient>
			
				<rect x="145.682" y="564.169" style="fill:url(#SVGID_00000174599454577099454770000017560932400720758662_);" width="78.078" height="4.929"/>
			
				<linearGradient id="SVGID_00000044179816613074492680000017833919978996147359_" gradientUnits="userSpaceOnUse" x1="6454.9165" y1="622.7014" x2="6532.9946" y2="622.7014" gradientTransform="matrix(1 0 0 1 -6332.4268 0)">
				<stop  offset="0" style="stop-color:#9CFFFB"/>
				<stop  offset="1" style="stop-color:#9BFFFA"/>
			</linearGradient>
			
				<rect x="122.49" y="620.237" style="fill:url(#SVGID_00000044179816613074492680000017833919978996147359_);" width="78.078" height="4.929"/>
			
				<linearGradient id="SVGID_00000116930953498176045550000013931212166336089517_" gradientUnits="userSpaceOnUse" x1="6428.1299" y1="678.7687" x2="6511.1372" y2="678.7687" gradientTransform="matrix(1 0 0 1 -6332.4268 0)">
				<stop  offset="0" style="stop-color:#9CFFFB"/>
				<stop  offset="1" style="stop-color:#9BFFFA"/>
			</linearGradient>
			<path style="fill:url(#SVGID_00000116930953498176045550000013931212166336089517_);" d="M176.246,681.233H98.168
				c-1.361,0-2.465-1.103-2.465-2.464s1.103-2.465,2.465-2.465h78.078c1.361,0,2.465,1.103,2.465,2.465
				S177.607,681.233,176.246,681.233z"/>
			
				<linearGradient id="SVGID_00000062180581466314954720000017372576075174090425_" gradientUnits="userSpaceOnUse" x1="6404.6152" y1="734.8373" x2="6487.6226" y2="734.8373" gradientTransform="matrix(1 0 0 1 -6332.4268 0)">
				<stop  offset="0" style="stop-color:#9CFFFB"/>
				<stop  offset="1" style="stop-color:#9BFFFA"/>
			</linearGradient>
			<path style="fill:url(#SVGID_00000062180581466314954720000017372576075174090425_);" d="M152.731,737.302H74.653
				c-1.361,0-2.465-1.103-2.465-2.465c0-1.361,1.103-2.465,2.465-2.465h78.078c1.361,0,2.465,1.103,2.465,2.465
				C155.196,736.198,154.092,737.302,152.731,737.302z"/>
		</g>
		<g>
			<g style="opacity:0.64;">
				<path style="fill:#FFFFFF;" d="M384.289,471.466c-1.081,0-2.078-0.706-2.398-1.796c-0.379-1.292-0.747-2.589-1.103-3.891
					c-0.364-1.332,0.421-2.707,1.752-3.071c1.332-0.364,2.707,0.42,3.071,1.753c0.347,1.271,0.707,2.539,1.077,3.801
					c0.389,1.325-0.37,2.714-1.695,3.103C384.759,471.433,384.521,471.466,384.289,471.466z"/>
				<path style="fill:#FFFFFF;" d="M380.165,455.001c-1.16,0-2.2-0.811-2.445-1.991c-0.547-2.63-1.05-5.302-1.496-7.941
					c-0.229-1.362,0.688-2.651,2.049-2.881c1.368-0.224,2.652,0.688,2.881,2.049c0.435,2.578,0.926,5.186,1.46,7.754
					c0.281,1.352-0.587,2.676-1.938,2.957C380.505,454.984,380.333,455.001,380.165,455.001z M376.919,434.3
					c-1.262,0-2.347-0.952-2.483-2.235c-0.283-2.662-0.52-5.37-0.704-8.049c-0.094-1.377,0.946-2.571,2.323-2.665
					c1.384-0.087,2.571,0.946,2.665,2.323c0.179,2.617,0.411,5.262,0.687,7.861c0.146,1.373-0.848,2.604-2.221,2.75
					C377.097,434.296,377.008,434.3,376.919,434.3z M375.734,413.38c-1.372,0-2.49-1.108-2.5-2.482
					c-0.004-0.546-0.006-1.094-0.006-1.641c0-2.135,0.032-4.3,0.095-6.436c0.041-1.38,1.203-2.438,2.573-2.425
					c1.38,0.041,2.465,1.193,2.425,2.573c-0.062,2.087-0.093,4.203-0.093,6.288c0,0.536,0.002,1.07,0.006,1.605
					c0.01,1.381-1.101,2.508-2.482,2.518C375.747,413.38,375.741,413.38,375.734,413.38z M376.598,392.444
					c-0.075,0-0.15-0.003-0.227-0.01c-1.375-0.123-2.39-1.338-2.266-2.713c0.239-2.671,0.532-5.372,0.87-8.028
					c0.174-1.37,1.426-2.338,2.795-2.165c1.37,0.174,2.339,1.426,2.164,2.795c-0.33,2.595-0.616,5.234-0.85,7.844
					C378.969,391.466,377.878,392.444,376.598,392.444z M379.483,371.697c-0.154,0-0.31-0.014-0.468-0.044
					c-1.357-0.257-2.248-1.565-1.992-2.921c0.498-2.63,1.054-5.29,1.651-7.906c0.307-1.347,1.649-2.19,2.994-1.88
					c1.346,0.307,2.188,1.648,1.88,2.994c-0.583,2.555-1.126,5.153-1.612,7.723C381.71,370.861,380.66,371.697,379.483,371.697z
					 M384.388,351.332c-0.233,0-0.471-0.033-0.706-0.102c-1.325-0.389-2.083-1.779-1.693-3.103c0.756-2.572,1.571-5.164,2.424-7.705
					c0.439-1.309,1.858-2.014,3.165-1.575c1.309,0.439,2.015,1.856,1.575,3.165c-0.833,2.482-1.629,5.014-2.367,7.525
					C386.466,350.626,385.469,351.332,384.388,351.332z M391.283,331.552c-0.313,0-0.63-0.059-0.938-0.184
					c-1.28-0.519-1.896-1.977-1.378-3.256c1.011-2.494,2.082-5,3.185-7.448c0.566-1.259,2.047-1.821,3.306-1.253
					c1.259,0.567,1.82,2.047,1.253,3.306c-1.077,2.391-2.123,4.838-3.11,7.273C393.207,330.962,392.271,331.552,391.283,331.552z
					 M400.124,312.516c-0.393,0-0.791-0.093-1.162-0.288c-1.222-0.643-1.691-2.155-1.048-3.376c1.251-2.378,2.565-4.763,3.905-7.09
					c0.688-1.196,2.217-1.608,3.414-0.919c1.196,0.689,1.608,2.217,0.919,3.414c-1.309,2.273-2.591,4.602-3.813,6.923
					C401.891,312.03,401.022,312.516,400.124,312.516z M410.801,294.46c-0.473,0-0.951-0.134-1.375-0.414
					c-1.152-0.761-1.47-2.312-0.709-3.464c1.477-2.236,3.018-4.479,4.582-6.665c0.803-1.124,2.364-1.382,3.488-0.579
					c1.123,0.803,1.382,2.365,0.579,3.488c-1.528,2.136-3.034,4.326-4.476,6.51C412.409,294.065,411.613,294.46,410.801,294.46z
					 M423.202,277.55c-0.554,0-1.111-0.183-1.574-0.559c-1.072-0.87-1.235-2.445-0.365-3.517c1.689-2.08,3.442-4.159,5.212-6.179
					c0.91-1.039,2.488-1.143,3.528-0.233c1.039,0.91,1.143,2.489,0.233,3.528c-1.728,1.973-3.442,4.004-5.091,6.036
					C424.65,277.234,423.929,277.55,423.202,277.55z M437.199,261.947c-0.636,0-1.271-0.241-1.759-0.723
					c-0.981-0.971-0.989-2.554-0.018-3.536c1.891-1.91,3.838-3.806,5.789-5.635c1.007-0.944,2.589-0.894,3.534,0.114
					c0.944,1.007,0.894,2.589-0.114,3.534c-1.905,1.787-3.808,3.639-5.655,5.505C438.487,261.699,437.843,261.947,437.199,261.947z
					 M452.649,247.792c-0.718,0-1.431-0.308-1.925-0.903c-0.882-1.063-0.735-2.639,0.327-3.521c2.065-1.714,4.189-3.41,6.31-5.041
					c1.095-0.84,2.665-0.635,3.506,0.459c0.841,1.095,0.636,2.664-0.459,3.506c-2.072,1.592-4.146,3.249-6.163,4.923
					C453.777,247.604,453.211,247.792,452.649,247.792z M469.403,235.221c-0.802,0-1.59-0.385-2.073-1.1
					c-0.773-1.144-0.474-2.698,0.67-3.472c2.221-1.502,4.498-2.981,6.768-4.397c1.173-0.73,2.713-0.373,3.444,0.799
					c0.73,1.172,0.373,2.714-0.799,3.444c-2.218,1.383-4.443,2.828-6.612,4.295C470.372,235.081,469.885,235.221,469.403,235.221z
					 M695.461,227.547c-0.427,0-0.86-0.11-1.256-0.34c-2.262-1.317-4.582-2.61-6.894-3.842c-1.218-0.649-1.68-2.163-1.03-3.382
					c0.649-1.219,2.164-1.679,3.382-1.031c2.367,1.262,4.742,2.585,7.059,3.935c1.193,0.695,1.597,2.225,0.902,3.419
					C697.16,227.102,696.322,227.547,695.461,227.547z M487.298,224.354c-0.888,0-1.748-0.474-2.201-1.309
					c-0.658-1.214-0.207-2.731,1.007-3.389c2.36-1.279,4.769-2.527,7.163-3.71c1.239-0.611,2.737-0.104,3.349,1.133
					c0.612,1.238,0.104,2.737-1.133,3.349c-2.337,1.155-4.691,2.374-6.996,3.624C488.108,224.257,487.7,224.354,487.298,224.354z
					 M676.853,217.913c-0.348,0-0.7-0.073-1.037-0.227c-2.373-1.084-4.809-2.14-7.24-3.141c-1.277-0.525-1.886-1.987-1.361-3.263
					c0.525-1.277,1.987-1.885,3.263-1.361c2.49,1.024,4.984,2.107,7.415,3.217c1.256,0.573,1.809,2.057,1.235,3.313
					C678.709,217.37,677.802,217.913,676.853,217.913z M506.162,215.301c-0.976,0-1.903-0.575-2.306-1.531
					c-0.535-1.272,0.063-2.738,1.336-3.274c2.46-1.035,4.979-2.039,7.487-2.984c1.292-0.487,2.734,0.166,3.221,1.458
					c0.487,1.292-0.166,2.734-1.458,3.221c-2.449,0.923-4.91,1.904-7.312,2.915C506.814,215.238,506.485,215.301,506.162,215.301z
					 M657.384,210.167c-0.268,0-0.54-0.043-0.808-0.134c-2.481-0.847-5.01-1.657-7.517-2.408c-1.323-0.396-2.074-1.79-1.678-3.112
					c0.396-1.323,1.79-2.072,3.112-1.678c2.567,0.77,5.157,1.599,7.697,2.465c1.307,0.446,2.004,1.867,1.559,3.173
					C659.394,209.514,658.423,210.167,657.384,210.167z M525.815,208.155c-1.068,0-2.057-0.689-2.388-1.764
					c-0.407-1.319,0.333-2.719,1.652-3.126c2.57-0.793,5.182-1.545,7.763-2.235c1.337-0.358,2.705,0.437,3.06,1.77
					c0.357,1.334-0.435,2.704-1.769,3.061c-2.52,0.674-5.07,1.408-7.581,2.182C526.308,208.119,526.059,208.155,525.815,208.155z
					 M637.242,204.391c-0.189,0-0.38-0.021-0.572-0.066c-2.548-0.596-5.145-1.153-7.719-1.653c-1.355-0.264-2.24-1.576-1.977-2.932
					c0.264-1.355,1.575-2.241,2.932-1.977c2.635,0.513,5.294,1.083,7.903,1.693c1.344,0.314,2.179,1.66,1.864,3.004
					C639.404,203.613,638.377,204.391,637.242,204.391z M546.113,202.98c-1.165,0-2.208-0.818-2.448-2.004
					c-0.274-1.353,0.601-2.672,1.954-2.947c2.627-0.532,5.3-1.022,7.946-1.455c1.365-0.226,2.648,0.702,2.871,2.064
					c0.223,1.362-0.701,2.647-2.063,2.871c-2.584,0.422-5.195,0.9-7.76,1.42C546.445,202.964,546.278,202.98,546.113,202.98z
					 M616.625,200.626c-0.109,0-0.22-0.007-0.331-0.022c-2.591-0.343-5.23-0.643-7.845-0.89c-1.374-0.13-2.383-1.35-2.253-2.724
					c0.13-1.375,1.339-2.386,2.725-2.253c2.676,0.253,5.377,0.56,8.03,0.911c1.369,0.181,2.331,1.438,2.15,2.807
					C618.935,199.711,617.86,200.626,616.625,200.626z M566.824,199.841c-1.267,0-2.354-0.96-2.484-2.248
					c-0.139-1.374,0.862-2.6,2.236-2.739c2.658-0.269,5.366-0.492,8.049-0.663c1.389-0.09,2.566,0.959,2.654,2.336
					c0.087,1.378-0.958,2.566-2.336,2.654c-2.622,0.167-5.268,0.384-7.864,0.647C566.993,199.837,566.908,199.841,566.824,199.841z
					 M595.735,198.888c-0.029,0-0.058-0.001-0.088-0.001c-2.447-0.085-4.92-0.127-7.352-0.127l-0.539,0.001
					c-0.002,0-0.005,0-0.007,0c-1.378,0-2.496-1.115-2.5-2.493c-0.004-1.381,1.113-2.503,2.493-2.507l0.553-0.001
					c2.488,0,5.02,0.044,7.524,0.13c1.38,0.048,2.46,1.205,2.412,2.585C598.185,197.825,597.076,198.888,595.735,198.888z"/>
				<path style="fill:#FFFFFF;" d="M709.854,236.722c-0.492,0-0.99-0.145-1.425-0.447c-1.081-0.751-2.169-1.494-3.265-2.226
					c-1.148-0.767-1.457-2.32-0.69-3.468c0.767-1.148,2.32-1.456,3.468-0.689c1.121,0.749,2.235,1.508,3.341,2.277
					c1.134,0.789,1.414,2.347,0.625,3.48C711.423,236.348,710.645,236.722,709.854,236.722z"/>
			</g>
			<g style="opacity:0.64;">
				<path style="fill:#FFFFFF;" d="M797.818,373.016c-1.184,0-2.235-0.844-2.456-2.05c-0.238-1.297-0.487-2.59-0.749-3.879
					c-0.275-1.353,0.599-2.673,1.952-2.948c1.352-0.274,2.673,0.599,2.948,1.952c0.269,1.32,0.524,2.645,0.768,3.974
					c0.249,1.358-0.65,2.661-2.008,2.91C798.119,373.002,797.967,373.016,797.818,373.016z"/>
				<path style="fill:#FFFFFF;" d="M590.201,624.32c-1.373,0-2.49-1.108-2.5-2.483c-0.009-1.38,1.103-2.507,2.483-2.517
					c2.571-0.017,5.182-0.083,7.759-0.195c1.395-0.052,2.546,1.009,2.606,2.389c0.06,1.379-1.009,2.546-2.389,2.606
					c-2.638,0.115-5.31,0.183-7.943,0.2C590.212,624.32,590.206,624.32,590.201,624.32z M577.435,624.029
					c-0.044,0-0.088-0.001-0.133-0.003c-1.214-0.064-2.43-0.137-3.646-0.222c-1.435-0.1-2.865-0.212-4.291-0.339
					c-1.375-0.123-2.391-1.336-2.268-2.712c0.122-1.375,1.333-2.396,2.712-2.268c1.393,0.124,2.791,0.234,4.193,0.332
					c1.19,0.082,2.377,0.155,3.563,0.217c1.379,0.072,2.438,1.249,2.366,2.628C579.86,622.994,578.756,624.029,577.435,624.029z
					 M610.78,623.183c-1.265,0-2.35-0.956-2.484-2.241c-0.143-1.373,0.854-2.602,2.228-2.745c2.572-0.268,5.165-0.586,7.707-0.947
					c1.372-0.199,2.632,0.757,2.826,2.124c0.194,1.367-0.757,2.632-2.124,2.826c-2.603,0.369-5.258,0.695-7.891,0.969
					C610.954,623.179,610.867,623.183,610.78,623.183z M556.904,621.967c-0.123,0-0.247-0.009-0.372-0.028
					c-2.622-0.391-5.261-0.834-7.843-1.317c-1.358-0.254-2.252-1.561-1.998-2.917c0.254-1.357,1.561-2.248,2.917-1.998
					c2.522,0.473,5.1,0.905,7.661,1.287c1.366,0.204,2.308,1.476,2.104,2.841C559.189,621.076,558.122,621.967,556.904,621.967z
					 M631.16,620.053c-1.164,0-2.206-0.816-2.447-2.001c-0.276-1.353,0.597-2.673,1.95-2.95c2.529-0.516,5.079-1.085,7.578-1.693
					c1.34-0.327,2.694,0.496,3.02,1.839c0.326,1.342-0.497,2.693-1.839,3.02c-2.559,0.622-5.169,1.206-7.759,1.734
					C631.493,620.037,631.325,620.053,631.16,620.053z M536.671,617.941c-0.201,0-0.405-0.024-0.608-0.075
					c-2.566-0.642-5.15-1.338-7.679-2.071c-1.326-0.385-2.089-1.772-1.705-3.098c0.385-1.325,1.771-2.09,3.097-1.705
					c2.47,0.716,4.993,1.396,7.5,2.023c1.339,0.335,2.154,1.692,1.819,3.032C538.811,617.183,537.792,617.941,536.671,617.941z
					 M651.139,614.951c-1.068,0-2.057-0.69-2.388-1.764c-0.407-1.32,0.333-2.719,1.653-3.125c2.458-0.757,4.934-1.571,7.357-2.417
					c1.304-0.455,2.729,0.233,3.185,1.536c0.455,1.304-0.232,2.729-1.536,3.184c-2.482,0.866-5.016,1.699-7.533,2.475
					C651.631,614.916,651.383,614.951,651.139,614.951z M516.925,611.971c-0.279,0-0.562-0.047-0.839-0.146
					c-2.484-0.886-4.988-1.832-7.441-2.811c-1.282-0.512-1.907-1.966-1.395-3.248c0.511-1.282,1.962-1.91,3.248-1.395
					c2.396,0.956,4.84,1.879,7.266,2.744c1.301,0.464,1.979,1.894,1.516,3.194C518.915,611.333,517.953,611.971,516.925,611.971z
					 M670.491,607.941c-0.978,0-1.906-0.577-2.307-1.536c-0.533-1.274,0.068-2.738,1.341-3.271c2.372-0.992,4.758-2.043,7.094-3.123
					c1.253-0.58,2.74-0.033,3.318,1.22c0.58,1.253,0.034,2.739-1.22,3.318c-2.391,1.106-4.834,2.182-7.263,3.197
					C671.14,607.878,670.813,607.941,670.491,607.941z M497.856,604.102c-0.357,0-0.72-0.077-1.064-0.239
					c-2.394-1.128-4.792-2.313-7.131-3.523c-1.226-0.634-1.706-2.143-1.071-3.369c0.635-1.226,2.144-1.707,3.369-1.071
					c2.284,1.182,4.626,2.339,6.964,3.44c1.249,0.588,1.785,2.078,1.196,3.327C499.693,603.572,498.794,604.102,497.856,604.102z
					 M689.082,599.081c-0.891,0-1.752-0.477-2.204-1.317c-0.654-1.216-0.198-2.732,1.019-3.386c2.268-1.219,4.543-2.497,6.764-3.798
					c1.19-0.698,2.723-0.298,3.421,0.893c0.698,1.191,0.298,2.723-0.893,3.421c-2.273,1.332-4.602,2.64-6.924,3.888
					C689.888,598.985,689.482,599.081,689.082,599.081z M479.647,594.413c-0.436,0-0.877-0.114-1.278-0.354
					c-2.264-1.351-4.537-2.763-6.753-4.199c-1.159-0.75-1.49-2.298-0.739-3.457c0.751-1.16,2.299-1.489,3.457-0.739
					c2.165,1.402,4.385,2.782,6.597,4.102c1.185,0.707,1.574,2.242,0.866,3.428C481.329,593.977,480.499,594.413,479.647,594.413z
					 M706.74,588.46c-0.807,0-1.598-0.39-2.08-1.11c-0.768-1.148-0.46-2.7,0.688-3.468c2.134-1.428,4.277-2.92,6.369-4.435
					c1.117-0.809,2.681-0.559,3.491,0.56c0.81,1.119,0.559,2.682-0.56,3.491c-2.142,1.55-4.335,3.077-6.521,4.539
					C707.701,588.323,707.218,588.46,706.74,588.46z M723.297,576.183c-0.724,0-1.442-0.313-1.936-0.917
					c-0.875-1.068-0.717-2.643,0.351-3.518c1.988-1.627,3.979-3.319,5.916-5.029c1.035-0.913,2.615-0.814,3.529,0.22
					c0.913,1.036,0.815,2.615-0.22,3.529c-1.983,1.75-4.021,3.482-6.057,5.149C724.415,575.998,723.854,576.183,723.297,576.183z
					 M738.602,562.364c-0.642,0-1.284-0.246-1.772-0.737c-0.974-0.979-0.969-2.562,0.01-3.535c1.83-1.82,3.649-3.697,5.407-5.579
					c0.942-1.009,2.524-1.063,3.533-0.12c1.009,0.942,1.063,2.524,0.12,3.533c-1.8,1.927-3.662,3.848-5.535,5.71
					C739.876,562.122,739.239,562.364,738.602,562.364z M752.508,547.13c-0.562,0-1.127-0.188-1.593-0.575
					c-1.063-0.88-1.211-2.457-0.331-3.52c1.649-1.991,3.28-4.035,4.847-6.077c0.84-1.095,2.409-1.302,3.505-0.461
					c1.095,0.841,1.301,2.41,0.461,3.505c-1.604,2.09-3.274,4.183-4.962,6.221C753.941,546.822,753.227,547.13,752.508,547.13z
					 M764.886,530.619c-0.482,0-0.969-0.139-1.398-0.43c-1.144-0.773-1.444-2.328-0.67-3.471c1.449-2.143,2.875-4.337,4.237-6.521
					c0.73-1.171,2.273-1.528,3.444-0.798c1.171,0.731,1.529,2.273,0.798,3.444c-1.395,2.236-2.854,4.482-4.338,6.676
					C766.476,530.233,765.688,530.619,764.886,530.619z M775.608,512.977c-0.403,0-0.812-0.098-1.19-0.304
					c-1.213-0.659-1.663-2.176-1.004-3.39c1.23-2.266,2.437-4.589,3.585-6.907c0.613-1.237,2.112-1.744,3.35-1.129
					c1.237,0.613,1.743,2.113,1.129,3.35c-1.176,2.373-2.411,4.752-3.671,7.072C777.355,512.504,776.496,512.977,775.608,512.977z
					 M784.567,494.365c-0.325,0-0.654-0.063-0.972-0.197c-1.272-0.538-1.868-2.004-1.331-3.276c1.005-2.38,1.979-4.812,2.896-7.229
					c0.49-1.291,1.932-1.939,3.224-1.452c1.291,0.49,1.941,1.933,1.452,3.224c-0.938,2.475-1.936,4.965-2.965,7.402
					C786.468,493.792,785.542,494.365,784.567,494.365z M791.661,474.979c-0.247,0-0.497-0.037-0.744-0.113
					c-1.318-0.411-2.054-1.812-1.644-3.13c0.767-2.463,1.497-4.971,2.17-7.455c0.361-1.333,1.735-2.118,3.067-1.759
					c1.333,0.361,2.12,1.734,1.759,3.067c-0.689,2.543-1.437,5.112-2.222,7.634C793.714,474.293,792.727,474.979,791.661,474.979z
					 M796.826,455.019c-0.168,0-0.339-0.017-0.51-0.052c-1.352-0.28-2.221-1.603-1.94-2.956c0.523-2.526,1.006-5.093,1.436-7.631
					c0.231-1.361,1.522-2.277,2.882-2.048c1.361,0.23,2.278,1.521,2.048,2.882c-0.439,2.598-0.934,5.227-1.47,7.812
					C799.026,454.207,797.986,455.019,796.826,455.019z M800.033,434.652c-0.09,0-0.181-0.004-0.273-0.015
					c-1.373-0.149-2.364-1.383-2.215-2.755c0.277-2.55,0.512-5.153,0.698-7.735c0.099-1.376,1.287-2.414,2.673-2.314
					c1.377,0.099,2.413,1.296,2.314,2.673c-0.19,2.642-0.431,5.305-0.714,7.916C802.376,433.703,801.293,434.652,800.033,434.652z
					 M801.278,414.068c-0.011,0-0.021,0-0.032,0c-1.381-0.018-2.486-1.151-2.468-2.532c0.012-0.905,0.018-1.808,0.018-2.71
					c0-1.69-0.02-3.376-0.06-5.058c-0.033-1.38,1.06-2.526,2.44-2.559c1.412-0.023,2.526,1.06,2.559,2.44
					c0.04,1.721,0.061,3.446,0.061,5.177c0,0.924-0.006,1.849-0.018,2.775C803.76,412.97,802.644,414.068,801.278,414.068z
					 M800.543,393.457c-1.286,0-2.378-0.986-2.488-2.291c-0.216-2.568-0.483-5.168-0.794-7.726c-0.167-1.371,0.81-2.617,2.181-2.783
					c1.371-0.167,2.616,0.81,2.783,2.181c0.318,2.62,0.591,5.281,0.813,7.91c0.116,1.376-0.906,2.585-2.282,2.701
					C800.685,393.454,800.614,393.457,800.543,393.457z"/>
				<path style="fill:#FFFFFF;" d="M462.396,582.947c-0.515,0-1.035-0.159-1.481-0.487c-1.086-0.801-2.164-1.61-3.233-2.431
					c-1.096-0.84-1.303-2.409-0.463-3.505c0.839-1.096,2.41-1.304,3.505-0.463c1.045,0.801,2.097,1.592,3.158,2.373
					c1.111,0.819,1.348,2.384,0.529,3.496C463.921,582.595,463.164,582.947,462.396,582.947z"/>
			</g>
			<g>
				
					<linearGradient id="SVGID_00000142158858110893882080000009720570479504261760_" gradientUnits="userSpaceOnUse" x1="4258.7168" y1="696.7749" x2="4760.7178" y2="1582.4205" gradientTransform="matrix(-0.4937 0.8696 -0.8696 -0.4937 3483.0691 -2951.8894)">
					<stop  offset="0" style="stop-color:#CB236D"/>
					<stop  offset="1" style="stop-color:#4C246D"/>
				</linearGradient>
				<path style="fill:url(#SVGID_00000142158858110893882080000009720570479504261760_);" d="M473.613,525.303
					c0.689,0.844,1.837,1.158,2.86,0.782l29.172-10.728c11.5,8.857,24.495,15.944,38.622,20.799l7.115,30.236
					c0.249,1.061,1.144,1.846,2.228,1.956l37.093,3.758c1.084,0.109,2.118-0.481,2.576-1.469l13.034-28.195
					c14.814-1.924,28.966-6.26,42.008-12.632l26.428,16.36c0.926,0.573,2.115,0.496,2.958-0.193l28.885-23.572
					c0.844-0.689,1.159-1.838,0.782-2.86l-10.728-29.172c8.857-11.5,15.944-24.495,20.799-38.622l30.237-7.115
					c1.06-0.249,1.846-1.144,1.956-2.228l3.758-37.093c0.11-1.084-0.48-2.118-1.469-2.575l-28.195-13.034
					c-1.924-14.814-6.26-28.966-12.631-42.008l16.36-26.429c0.573-0.926,0.496-2.114-0.193-2.958l-23.572-28.885
					c-0.689-0.845-1.837-1.158-2.86-0.782l-29.172,10.728c-11.5-8.857-24.495-15.944-38.622-20.799l-7.115-30.237
					c-0.25-1.06-1.144-1.846-2.228-1.956l-37.093-3.757c-1.084-0.11-2.118,0.48-2.575,1.469l-13.034,28.195
					c-14.814,1.923-28.966,6.26-42.009,12.632l-26.428-16.36c-0.926-0.574-2.115-0.496-2.959,0.193l-28.885,23.572
					c-0.844,0.689-1.158,1.837-0.782,2.86l10.728,29.172c-8.857,11.5-15.944,24.496-20.799,38.622l-30.237,7.115
					c-1.06,0.249-1.846,1.144-1.955,2.229l-3.758,37.092c-0.11,1.084,0.48,2.118,1.469,2.576l28.195,13.034
					c1.924,14.813,6.261,28.965,12.631,42.008l-16.36,26.428c-0.574,0.926-0.496,2.114,0.193,2.959L473.613,525.303z"/>
				<path style="fill:#FFFFFF;" d="M588.581,442.477c-7.486,0-14.746-2.388-20.865-6.935c-7.526-5.593-12.424-13.782-13.791-23.059
					c-1.367-9.276,0.96-18.53,6.553-26.057c5.593-7.526,13.782-12.424,23.059-13.791c9.277-1.367,18.531,0.959,26.057,6.553
					c7.526,5.593,12.424,13.782,13.791,23.059c2.822,19.149-10.461,37.025-29.611,39.848l0,0
					C592.038,442.35,590.303,442.477,588.581,442.477z M588.72,376.254c-1.527,0-3.063,0.112-4.601,0.338
					c-8.22,1.211-15.475,5.551-20.431,12.22c-4.956,6.669-7.018,14.868-5.806,23.088c1.211,8.22,5.551,15.475,12.22,20.431
					c6.668,4.956,14.869,7.018,23.088,5.807c16.968-2.501,28.738-18.34,26.237-35.308c-1.211-8.22-5.551-15.476-12.22-20.431
					C601.786,378.37,595.352,376.254,588.72,376.254z"/>
				<path style="fill:#FFFFFF;" d="M589.293,497.781c-3.055,0-6.132-0.154-9.236-0.468l0,0c-6.458-0.654-12.835-1.991-18.954-3.974
					c-0.423-0.137-0.692-0.529-0.692-0.95c0-0.103,0.016-0.207,0.049-0.309c0.17-0.525,0.734-0.815,1.259-0.643
					c5.984,1.938,12.222,3.246,18.539,3.886c48.814,4.942,92.531-30.739,97.475-79.543c0.308-3.039,0.458-6.057,0.458-9.048
					c-0.008-45.05-34.235-83.79-80.001-88.426c-48.813-4.941-92.531,30.739-97.475,79.542c-0.305,3.009-0.456,6.021-0.455,9.026
					c0.003,13.021,2.854,25.897,8.395,37.692c0.065,0.138,0.095,0.283,0.095,0.425c0,0.375-0.212,0.735-0.575,0.905
					c-0.5,0.234-1.096,0.02-1.331-0.48c-5.666-12.061-8.582-25.228-8.585-38.542c-0.001-3.072,0.153-6.152,0.465-9.228
					c5.056-49.901,49.768-86.38,99.666-81.331c46.794,4.74,81.792,44.352,81.799,90.415c0,3.058-0.153,6.145-0.468,9.251
					C674.983,462.779,635.36,497.781,589.293,497.781z"/>
			</g>
		</g>
		<g>
			
				<linearGradient id="SVGID_00000116232101187312889730000015383134038716441242_" gradientUnits="userSpaceOnUse" x1="820.2709" y1="226.4278" x2="825.9619" y2="430.3593">
				<stop  offset="0" style="stop-color:#CB236D"/>
				<stop  offset="1" style="stop-color:#4C246D"/>
			</linearGradient>
			<path style="fill:url(#SVGID_00000116232101187312889730000015383134038716441242_);" d="M785.878,314.108l9.814-4.522
				c4.229,2.752,8.928,4.851,13.957,6.144l3.299,10.282c0.116,0.361,0.448,0.608,0.826,0.616l12.958,0.28
				c0.379,0.008,0.721-0.225,0.852-0.58l3.74-10.13c5.081-1.075,9.866-2.968,14.21-5.535l9.609,4.941
				c0.337,0.173,0.747,0.113,1.02-0.148l9.361-8.964c0.274-0.262,0.351-0.669,0.192-1.013l-4.521-9.814
				c2.753-4.229,4.85-8.928,6.144-13.958l10.282-3.299c0.361-0.116,0.608-0.447,0.616-0.826l0.28-12.958
				c0.008-0.379-0.225-0.721-0.58-0.852l-10.13-3.74c-1.075-5.081-2.967-9.865-5.535-14.21l4.941-9.61
				c0.173-0.337,0.114-0.746-0.148-1.02l-8.965-9.361c-0.262-0.274-0.669-0.351-1.013-0.192l-9.814,4.521
				c-4.229-2.753-8.928-4.85-13.957-6.144l-3.299-10.282c-0.116-0.361-0.447-0.608-0.826-0.616l-12.958-0.28
				c-0.379-0.008-0.721,0.225-0.852,0.58l-3.74,10.13c-5.081,1.075-9.866,2.968-14.21,5.535l-9.609-4.941
				c-0.337-0.173-0.747-0.114-1.02,0.148l-9.361,8.965c-0.273,0.262-0.351,0.669-0.192,1.013l4.521,9.814
				c-2.753,4.229-4.85,8.928-6.144,13.957l-10.282,3.299c-0.36,0.116-0.608,0.447-0.616,0.826l-0.28,12.958
				c-0.008,0.379,0.225,0.721,0.58,0.852l10.13,3.74c1.075,5.081,2.968,9.865,5.535,14.21l-4.941,9.609
				c-0.173,0.337-0.114,0.746,0.148,1.02l8.965,9.361C785.128,314.189,785.534,314.266,785.878,314.108z"/>
			<path style="opacity:0.56;fill:#FFFFFF;" d="M821.459,282.387c-2.322,0-4.602-0.65-6.618-1.914
				c-2.832-1.774-4.802-4.544-5.55-7.801c-0.748-3.256-0.183-6.609,1.592-9.441c1.774-2.831,4.544-4.802,7.801-5.55
				c6.726-1.545,13.447,2.671,14.99,9.393c0.748,3.256,0.182,6.609-1.592,9.44c-1.774,2.831-4.544,4.802-7.801,5.549l0,0
				C823.344,282.281,822.398,282.387,821.459,282.387z M821.484,259.364c-0.776,0-1.564,0.087-2.352,0.268
				c-2.736,0.629-5.063,2.284-6.554,4.663c-1.49,2.379-1.965,5.195-1.337,7.931c0.628,2.736,2.284,5.063,4.663,6.554
				c2.378,1.49,5.196,1.965,7.931,1.337l0,0c2.736-0.628,5.063-2.284,6.553-4.662c1.49-2.378,1.965-5.195,1.337-7.931
				C830.61,262.664,826.271,259.364,821.484,259.364z"/>
			<g>
				<g style="opacity:0.64;">
					<path style="fill:#FFFFFF;" d="M763.357,310.47c-0.814,0-1.613-0.398-2.093-1.13c-0.752-1.147-1.482-2.334-2.169-3.529
						c-0.689-1.196-0.277-2.725,0.919-3.414c1.198-0.689,2.726-0.277,3.414,0.919c0.64,1.111,1.319,2.216,2.018,3.282
						c0.757,1.155,0.435,2.705-0.72,3.461C764.303,310.337,763.827,310.47,763.357,310.47z"/>
					<path style="fill:#FFFFFF;" d="M755.788,295.012c-1.039,0-2.009-0.652-2.365-1.689c-0.821-2.394-1.526-4.864-2.095-7.343
						l-0.176-0.785c-0.296-1.349,0.558-2.682,1.907-2.977c1.348-0.297,2.682,0.558,2.977,1.907l0.165,0.737
						c0.53,2.308,1.187,4.609,1.952,6.838c0.448,1.306-0.247,2.728-1.553,3.176C756.33,294.969,756.057,295.012,755.788,295.012z
						 M752.007,274.022c-1.352,0-2.464-1.079-2.498-2.438c-0.015-0.591-0.022-1.182-0.022-1.771c0-2.219,0.105-4.464,0.312-6.672
						c0.129-1.375,1.348-2.383,2.723-2.256c1.375,0.129,2.385,1.348,2.256,2.723c-0.193,2.053-0.29,4.141-0.29,6.205
						c0,0.548,0.006,1.097,0.02,1.647c0.035,1.38-1.057,2.527-2.437,2.561C752.049,274.021,752.028,274.022,752.007,274.022z
						 M754.783,252.877c-0.233,0-0.47-0.033-0.705-0.102c-1.325-0.389-2.084-1.778-1.695-3.103c0.79-2.693,1.749-5.368,2.848-7.951
						c0.541-1.27,2.011-1.86,3.28-1.321c1.271,0.541,1.862,2.009,1.321,3.28c-1.024,2.404-1.915,4.894-2.651,7.399
						C756.861,252.17,755.864,252.877,754.783,252.877z M763.843,233.574c-0.48,0-0.965-0.138-1.393-0.426
						c-1.146-0.771-1.45-2.324-0.679-3.47c1.566-2.328,3.287-4.588,5.113-6.717c0.9-1.047,2.477-1.167,3.525-0.27
						c1.048,0.899,1.168,2.477,0.27,3.525c-1.7,1.981-3.301,4.085-4.759,6.252C765.438,233.186,764.647,233.574,763.843,233.574z
						 M778.312,217.913c-0.736,0-1.466-0.324-1.96-0.946c-0.858-1.081-0.678-2.654,0.404-3.512c2.196-1.744,4.52-3.374,6.906-4.848
						c1.177-0.725,2.715-0.361,3.441,0.814c0.725,1.175,0.361,2.715-0.814,3.441c-2.22,1.37-4.382,2.888-6.425,4.509
						C779.405,217.736,778.857,217.913,778.312,217.913z M796.851,207.398c-1.01,0-1.961-0.616-2.339-1.617
						c-0.488-1.292,0.164-2.734,1.456-3.222c2.619-0.989,5.33-1.835,8.058-2.516c1.338-0.333,2.696,0.481,3.031,1.821
						c0.334,1.339-0.481,2.696-1.821,3.031c-2.54,0.634-5.063,1.422-7.501,2.342C797.442,207.346,797.144,207.398,796.851,207.398z
						 M825.868,203.014c-0.053,0-0.105-0.001-0.159-0.005c-1.378-0.086-2.779-0.13-4.164-0.13c-1.231,0.021-2.466,0.034-3.692,0.102
						c-1.368,0.069-2.558-0.979-2.635-2.357c-0.077-1.378,0.979-2.558,2.357-2.635c1.318-0.073,2.651-0.127,3.971-0.11
						c1.487,0,2.993,0.047,4.476,0.14c1.378,0.086,2.425,1.273,2.338,2.652C828.278,201.995,827.177,203.014,825.868,203.014z"/>
					<path style="fill:#FFFFFF;" d="M842.817,206.239c-0.255,0-0.514-0.039-0.77-0.122c-1.214-0.393-2.458-0.756-3.699-1.08
						c-1.336-0.349-2.136-1.715-1.787-3.051c0.349-1.336,1.714-2.135,3.051-1.787c1.333,0.349,2.67,0.739,3.975,1.161
						c1.314,0.425,2.034,1.834,1.609,3.148C844.853,205.566,843.873,206.239,842.817,206.239z"/>
				</g>
				<g style="opacity:0.64;">
					<path style="fill:#FFFFFF;" d="M884.42,242.9c-0.941,0-1.842-0.534-2.267-1.443c-0.539-1.156-1.122-2.314-1.731-3.442
						c-0.656-1.215-0.203-2.731,1.012-3.387c1.215-0.655,2.732-0.203,3.387,1.012c0.655,1.213,1.282,2.458,1.862,3.702
						c0.584,1.251,0.043,2.739-1.208,3.323C885.134,242.824,884.774,242.9,884.42,242.9z"/>
					<path style="fill:#FFFFFF;" d="M821.421,341.87c-2.672,0-5.375-0.152-8.032-0.453c-1.372-0.155-2.358-1.393-2.204-2.765
						c0.155-1.373,1.396-2.357,2.765-2.204c2.472,0.28,4.985,0.421,7.471,0.421l0.242,0c0.005,0,0.01,0,0.015,0
						c1.374,0,2.492,1.11,2.5,2.486c0.008,1.38-1.105,2.506-2.486,2.514L821.421,341.87z M834.631,340.6
						c-1.174,0-2.222-0.832-2.452-2.027c-0.261-1.356,0.626-2.667,1.982-2.928c0.77-0.148,1.54-0.311,2.309-0.488
						c1.745-0.401,3.49-0.875,5.188-1.409c1.319-0.415,2.721,0.318,3.135,1.635c0.414,1.317-0.318,2.721-1.635,3.135
						c-1.822,0.573-3.695,1.081-5.567,1.512c-0.828,0.19-1.656,0.365-2.483,0.525C834.948,340.585,834.788,340.6,834.631,340.6z
						 M854.405,333.582c-0.891,0-1.753-0.478-2.205-1.317c-0.653-1.217-0.197-2.732,1.019-3.386
						c2.261-1.214,4.476-2.576,6.583-4.046c1.131-0.789,2.69-0.513,3.481,0.62c0.79,1.132,0.513,2.691-0.62,3.481
						c-2.265,1.581-4.647,3.044-7.078,4.351C855.21,333.486,854.805,333.582,854.405,333.582z M871.158,320.965
						c-0.63,0-1.26-0.236-1.747-0.711c-0.988-0.965-1.007-2.547-0.042-3.535c1.792-1.835,3.499-3.797,5.072-5.831
						c0.844-1.092,2.414-1.292,3.507-0.448c1.092,0.845,1.292,2.415,0.448,3.507c-1.691,2.185-3.524,4.293-5.45,6.265
						C872.456,320.713,871.807,320.965,871.158,320.965z M883.387,303.925c-0.382,0-0.771-0.088-1.134-0.274
						c-1.23-0.628-1.718-2.133-1.09-3.363c1.169-2.29,2.216-4.671,3.113-7.078c0.482-1.293,1.921-1.951,3.216-1.469
						c1.294,0.482,1.951,1.922,1.469,3.216c-0.964,2.586-2.089,5.144-3.345,7.603C885.173,303.427,884.296,303.925,883.387,303.925z
						 M890.003,284.013c-0.139,0-0.28-0.012-0.422-0.036c-1.361-0.232-2.277-1.522-2.045-2.884c0.431-2.536,0.718-5.122,0.852-7.685
						c0.072-1.379,1.242-2.451,2.627-2.366c1.379,0.072,2.438,1.249,2.366,2.627c-0.144,2.756-0.453,5.536-0.917,8.263
						C892.258,283.151,891.2,284.013,890.003,284.013z M890.334,263.032c-1.23,0-2.303-0.909-2.474-2.162
						c-0.272-1.994-0.641-4.007-1.094-5.983c-0.124-0.539-0.254-1.075-0.39-1.609c-0.34-1.338,0.468-2.699,1.806-3.04
						c1.337-0.342,2.699,0.468,3.04,1.806c0.145,0.571,0.285,1.145,0.417,1.723c0.487,2.122,0.882,4.284,1.175,6.426
						c0.187,1.368-0.771,2.628-2.138,2.815C890.561,263.024,890.447,263.032,890.334,263.032z"/>
					<path style="fill:#FFFFFF;" d="M800.891,338.746c-0.246,0-0.497-0.037-0.744-0.113c-1.306-0.407-2.624-0.859-3.916-1.344
						c-1.293-0.485-1.947-1.926-1.462-3.219c0.485-1.292,1.928-1.948,3.219-1.462c1.204,0.452,2.43,0.873,3.646,1.251
						c1.318,0.411,2.054,1.812,1.644,3.13C802.944,338.059,801.956,338.746,800.891,338.746z"/>
				</g>
			</g>
			<path style="opacity:0.56;fill:#FFFFFF;" d="M821.502,302.148c-0.239,0-0.477-0.002-0.716-0.007
				c-2.125-0.046-4.243-0.3-6.306-0.755c-0.17-0.038-0.34-0.077-0.509-0.117c-0.46-0.109-0.769-0.52-0.769-0.973
				c0-0.076,0.009-0.154,0.027-0.231c0.128-0.538,0.671-0.868,1.204-0.741c2.085,0.497,4.237,0.771,6.395,0.818l0,0
				c0.221,0.005,0.444,0.007,0.664,0.007c15.912,0.001,29.106-12.393,30.193-28.182c0.033-0.477,0.054-0.956,0.065-1.439
				c0.005-0.22,0.007-0.439,0.007-0.659c0.003-16.394-13.151-29.907-29.62-30.263c-16.693-0.36-30.561,12.923-30.921,29.613
				c-0.005,0.22-0.007,0.44-0.007,0.659c0,5.26,1.364,10.425,3.96,14.976c0.089,0.157,0.131,0.327,0.131,0.495
				c0,0.347-0.181,0.685-0.504,0.869c-0.48,0.274-1.091,0.106-1.364-0.373c-2.769-4.853-4.223-10.359-4.223-15.966
				c0-0.234,0.002-0.468,0.007-0.702c0.385-17.792,15.165-31.956,32.964-31.57c17.558,0.38,31.58,14.785,31.577,32.262
				c0,0.234-0.002,0.468-0.007,0.702c-0.186,8.619-3.718,16.649-9.944,22.612C837.753,298.98,829.856,302.148,821.502,302.148z"/>
		</g>
		<g>
			<g style="opacity:0.64;">
				<path style="fill:#FFFFFF;" d="M264.313,552.952c-0.432,0-0.831-0.283-0.959-0.719c-0.237-0.808-0.462-1.62-0.676-2.437
					c-0.139-0.535,0.181-1.081,0.715-1.22c0.534-0.14,1.081,0.181,1.22,0.715c0.208,0.797,0.428,1.59,0.659,2.378
					c0.156,0.53-0.148,1.086-0.678,1.241C264.501,552.938,264.406,552.952,264.313,552.952z"/>
				<path style="fill:#FFFFFF;" d="M262.549,545.777c-0.467,0-0.885-0.329-0.98-0.805c-0.32-1.609-0.597-3.252-0.822-4.882
					c-0.076-0.547,0.307-1.052,0.854-1.128c0.539-0.073,1.051,0.306,1.127,0.854c0.22,1.591,0.49,3.195,0.802,4.766
					c0.107,0.542-0.244,1.068-0.786,1.176C262.68,545.771,262.614,545.777,262.549,545.777z M261.21,536.089
					c-0.517,0-0.954-0.398-0.996-0.922c-0.128-1.637-0.21-3.3-0.243-4.944c-0.011-0.552,0.428-1.009,0.98-1.02
					c0.558,0.004,1.009,0.428,1.02,0.98c0.032,1.605,0.112,3.229,0.237,4.828c0.043,0.55-0.368,1.032-0.919,1.075
					C261.263,536.088,261.237,536.089,261.21,536.089z M261.017,526.312c-0.013,0-0.025,0-0.039-0.001
					c-0.552-0.021-0.982-0.485-0.961-1.038c0.034-0.885,0.081-1.772,0.143-2.661c0.053-0.762,0.116-1.521,0.188-2.276
					c0.052-0.549,0.533-0.951,1.091-0.9c0.55,0.053,0.953,0.541,0.9,1.091c-0.071,0.738-0.132,1.479-0.184,2.224
					c-0.06,0.868-0.106,1.735-0.139,2.599C261.995,525.888,261.552,526.312,261.017,526.312z M261.951,516.579
					c-0.051,0-0.103-0.004-0.155-0.012c-0.545-0.084-0.919-0.596-0.835-1.142c0.252-1.625,0.555-3.263,0.9-4.866
					c0.116-0.541,0.647-0.882,1.188-0.767c0.54,0.116,0.883,0.648,0.767,1.188c-0.337,1.565-0.632,3.163-0.878,4.751
					C262.861,516.226,262.435,516.579,261.951,516.579z M264.008,507.022c-0.088,0-0.179-0.012-0.268-0.037
					c-0.532-0.147-0.844-0.699-0.696-1.231c0.439-1.582,0.932-3.172,1.464-4.728c0.179-0.523,0.749-0.801,1.27-0.623
					c0.522,0.179,0.801,0.748,0.623,1.27c-0.52,1.519-1.001,3.071-1.43,4.615C264.849,506.731,264.446,507.022,264.008,507.022z
					 M267.174,497.772c-0.126,0-0.254-0.024-0.379-0.075c-0.511-0.21-0.755-0.794-0.546-1.305c0.625-1.524,1.302-3.048,2.015-4.53
					c0.24-0.498,0.839-0.706,1.334-0.468c0.498,0.239,0.708,0.837,0.468,1.334c-0.695,1.446-1.357,2.934-1.967,4.422
					C267.941,497.538,267.568,497.772,267.174,497.772z M271.415,488.946c-0.164,0-0.331-0.04-0.485-0.126
					c-0.482-0.268-0.657-0.877-0.388-1.36c0.798-1.436,1.65-2.869,2.533-4.259c0.295-0.466,0.914-0.604,1.38-0.308
					c0.466,0.296,0.604,0.914,0.308,1.38c-0.862,1.357-1.694,2.756-2.473,4.158C272.107,488.76,271.766,488.946,271.415,488.946z
					 M276.662,480.684c-0.203,0-0.407-0.061-0.583-0.189c-0.448-0.323-0.55-0.948-0.227-1.395c0.962-1.336,1.976-2.659,3.013-3.932
					c0.35-0.428,0.98-0.492,1.407-0.144c0.428,0.349,0.493,0.979,0.144,1.407c-1.012,1.243-2.001,2.534-2.941,3.838
					C277.279,480.54,276.973,480.684,276.662,480.684z M282.838,473.096c-0.241,0-0.483-0.087-0.675-0.263
					c-0.407-0.373-0.435-1.005-0.062-1.413c1.11-1.212,2.27-2.407,3.449-3.552c0.396-0.385,1.03-0.375,1.414,0.02
					c0.385,0.397,0.375,1.029-0.021,1.414c-1.151,1.118-2.284,2.285-3.368,3.468C283.378,472.987,283.109,473.096,282.838,473.096z
					 M289.853,466.281c-0.28,0-0.559-0.117-0.757-0.346c-0.361-0.418-0.315-1.049,0.103-1.411c1.244-1.075,2.535-2.127,3.837-3.126
					c0.439-0.335,1.066-0.253,1.402,0.185c0.336,0.439,0.253,1.066-0.185,1.402c-1.272,0.976-2.532,2.003-3.747,3.052
					C290.317,466.201,290.085,466.281,289.853,466.281z M297.61,460.331c-0.32,0-0.635-0.153-0.829-0.439
					c-0.31-0.457-0.191-1.079,0.266-1.389c1.363-0.925,2.767-1.819,4.173-2.657c0.475-0.283,1.089-0.128,1.371,0.347
					c0.283,0.475,0.127,1.088-0.347,1.371c-1.373,0.818-2.744,1.691-4.075,2.595C297.999,460.275,297.803,460.331,297.61,460.331z
					 M385.742,456.879c-0.168,0-0.338-0.042-0.495-0.131c-1.389-0.792-2.824-1.556-4.267-2.27c-0.495-0.245-0.698-0.845-0.453-1.34
					c0.244-0.495,0.843-0.698,1.34-0.453c1.478,0.731,2.949,1.513,4.371,2.325c0.48,0.274,0.647,0.885,0.373,1.364
					C386.427,456.698,386.089,456.879,385.742,456.879z M306.002,455.325c-0.361,0-0.71-0.196-0.888-0.539
					c-0.255-0.49-0.064-1.094,0.426-1.348c1.457-0.757,2.955-1.48,4.452-2.151c0.504-0.227,1.096,0,1.321,0.504
					c0.226,0.504,0,1.096-0.504,1.321c-1.463,0.655-2.925,1.361-4.348,2.1C306.315,455.289,306.158,455.325,306.002,455.325z
					 M376.976,452.545c-0.13,0-0.262-0.026-0.389-0.08c-1.476-0.624-2.991-1.213-4.505-1.751c-0.52-0.185-0.792-0.757-0.607-1.277
					c0.185-0.521,0.757-0.793,1.277-0.607c1.55,0.551,3.102,1.154,4.614,1.794c0.509,0.215,0.747,0.802,0.531,1.311
					C377.736,452.315,377.366,452.545,376.976,452.545z M314.917,451.336c-0.403,0-0.784-0.247-0.935-0.646
					c-0.196-0.517,0.064-1.094,0.581-1.289c1.535-0.582,3.107-1.124,4.671-1.613c0.524-0.162,1.088,0.129,1.253,0.656
					c0.165,0.527-0.129,1.088-0.656,1.253c-1.527,0.477-3.061,1.007-4.56,1.574C315.154,451.315,315.035,451.336,314.917,451.336z
					 M367.761,449.272c-0.092,0-0.186-0.013-0.279-0.04c-1.536-0.446-3.11-0.852-4.679-1.209c-0.539-0.122-0.876-0.658-0.754-1.196
					c0.123-0.539,0.66-0.878,1.196-0.754c1.608,0.365,3.221,0.782,4.794,1.238c0.53,0.154,0.835,0.709,0.682,1.239
					C368.594,448.988,368.195,449.272,367.761,449.272z M324.24,448.42c-0.448,0-0.856-0.304-0.969-0.758
					c-0.134-0.536,0.193-1.079,0.728-1.212c1.598-0.398,3.225-0.752,4.836-1.054c0.544-0.103,1.065,0.256,1.167,0.799
					c0.102,0.543-0.256,1.065-0.799,1.167c-1.573,0.294-3.161,0.64-4.72,1.028C324.402,448.411,324.32,448.42,324.24,448.42z
					 M358.225,447.105c-0.054,0-0.109-0.004-0.164-0.014c-1.584-0.263-3.195-0.483-4.791-0.654
					c-0.549-0.059-0.947-0.551-0.888-1.101c0.058-0.549,0.543-0.953,1.101-0.888c1.633,0.175,3.284,0.4,4.905,0.67
					c0.545,0.09,0.914,0.605,0.823,1.15C359.129,446.758,358.705,447.105,358.225,447.105z M333.85,446.622
					c-0.496,0-0.927-0.369-0.991-0.874c-0.069-0.548,0.318-1.048,0.866-1.118c1.629-0.207,3.287-0.367,4.927-0.477
					c0.542-0.052,1.028,0.379,1.064,0.931c0.037,0.551-0.379,1.028-0.931,1.064c-1.6,0.108-3.218,0.265-4.809,0.466
					C333.934,446.62,333.892,446.622,333.85,446.622z M348.498,446.063c-0.017,0-0.033,0-0.05-0.001
					c-1.359-0.067-2.737-0.101-4.098-0.101l-0.736,0.003c-0.58-0.013-1.003-0.44-1.008-0.992c-0.004-0.552,0.44-1.003,0.992-1.008
					l0.752-0.003c1.393,0,2.805,0.035,4.196,0.103c0.551,0.027,0.977,0.496,0.95,1.048
					C349.47,445.647,349.027,446.063,348.498,446.063z"/>
				<path style="fill:#FFFFFF;" d="M392.04,460.855c-0.197,0-0.396-0.058-0.57-0.179c-0.675-0.469-1.357-0.929-2.047-1.378
					c-0.463-0.302-0.593-0.921-0.292-1.384c0.302-0.463,0.922-0.593,1.384-0.292c0.707,0.46,1.406,0.932,2.097,1.413
					c0.454,0.315,0.565,0.938,0.25,1.392C392.668,460.706,392.357,460.855,392.04,460.855z"/>
			</g>
			<g style="opacity:0.64;">
				<path style="fill:#FFFFFF;" d="M426.714,515.243c-0.478,0-0.901-0.343-0.984-0.831c-0.14-0.813-0.292-1.622-0.455-2.427
					c-0.11-0.542,0.24-1.069,0.781-1.179c0.543-0.111,1.069,0.24,1.179,0.781c0.167,0.825,0.323,1.653,0.466,2.486
					c0.094,0.544-0.271,1.061-0.816,1.155C426.828,515.238,426.77,515.243,426.714,515.243z"/>
				<path style="fill:#FFFFFF;" d="M343.083,612.91c-0.006,0-0.012,0-0.018,0c-1.482-0.025-2.983-0.09-4.46-0.193l-0.656-0.048
					c-0.551-0.042-0.963-0.523-0.92-1.074c0.042-0.55,0.528-0.968,1.074-0.92l0.642,0.047c1.442,0.1,2.908,0.163,4.355,0.188
					c0.552,0.01,0.992,0.465,0.983,1.017C344.073,612.474,343.627,612.91,343.083,612.91z M348.141,612.844
					c-0.532,0-0.975-0.42-0.998-0.957c-0.024-0.552,0.404-1.018,0.956-1.042c1.656-0.072,3.333-0.195,4.985-0.367
					c0.555-0.055,1.041,0.342,1.098,0.891c0.057,0.549-0.342,1.041-0.891,1.098c-1.691,0.176-3.41,0.303-5.106,0.376
					C348.17,612.844,348.156,612.844,348.141,612.844z M332.993,612.134c-0.045,0-0.091-0.003-0.138-0.009
					c-1.69-0.232-3.39-0.518-5.052-0.85c-0.542-0.108-0.893-0.635-0.785-1.176c0.108-0.541,0.635-0.893,1.176-0.785
					c1.623,0.324,3.282,0.603,4.933,0.83c0.547,0.075,0.93,0.579,0.855,1.127C333.913,611.771,333.484,612.134,332.993,612.134z
					 M358.201,611.795c-0.48,0-0.904-0.347-0.985-0.836c-0.091-0.545,0.277-1.06,0.822-1.15c1.639-0.273,3.289-0.599,4.903-0.97
					c0.541-0.121,1.075,0.212,1.199,0.75c0.124,0.539-0.212,1.075-0.75,1.199c-1.654,0.38-3.344,0.714-5.023,0.994
					C358.31,611.791,358.255,611.795,358.201,611.795z M323.068,610.154c-0.084,0-0.17-0.011-0.255-0.034
					c-1.649-0.435-3.302-0.925-4.911-1.456c-0.525-0.173-0.809-0.739-0.636-1.263c0.173-0.525,0.739-0.809,1.263-0.636
					c1.571,0.519,3.184,0.997,4.794,1.422c0.534,0.141,0.853,0.688,0.712,1.222C323.917,609.857,323.512,610.154,323.068,610.154z
					 M368.059,609.531c-0.432,0-0.83-0.282-0.958-0.717c-0.156-0.53,0.146-1.086,0.676-1.242c1.587-0.469,3.183-0.993,4.742-1.558
					c0.519-0.188,1.093,0.08,1.281,0.599c0.189,0.519-0.08,1.093-0.599,1.281c-1.597,0.579-3.231,1.116-4.857,1.596
					C368.248,609.517,368.153,609.531,368.059,609.531z M313.458,606.984c-0.123,0-0.249-0.023-0.37-0.072
					c-1.575-0.628-3.155-1.316-4.697-2.044c-0.499-0.235-0.713-0.831-0.477-1.331c0.235-0.5,0.831-0.713,1.331-0.478
					c1.505,0.71,3.048,1.381,4.585,1.995c0.513,0.205,0.763,0.787,0.558,1.299C314.231,606.746,313.856,606.984,313.458,606.984z
					 M377.556,606.087c-0.387,0-0.755-0.226-0.918-0.603c-0.22-0.507,0.013-1.096,0.52-1.315c1.522-0.66,3.043-1.373,4.52-2.123
					c0.493-0.251,1.094-0.053,1.344,0.439c0.25,0.493,0.053,1.095-0.439,1.344c-1.514,0.768-3.071,1.5-4.63,2.175
					C377.824,606.06,377.689,606.087,377.556,606.087z M304.308,602.666c-0.163,0-0.328-0.04-0.48-0.124
					c-1.493-0.819-2.978-1.694-4.413-2.6c-0.467-0.295-0.607-0.913-0.312-1.379c0.295-0.467,0.913-0.606,1.379-0.312
					c1.402,0.885,2.851,1.739,4.308,2.539c0.484,0.266,0.662,0.873,0.396,1.357C305.003,602.478,304.661,602.666,304.308,602.666z
					 M386.57,601.515c-0.343,0-0.678-0.177-0.864-0.495c-0.279-0.476-0.119-1.089,0.357-1.368c1.432-0.839,2.857-1.733,4.233-2.655
					c0.458-0.308,1.079-0.186,1.387,0.274c0.308,0.459,0.185,1.08-0.274,1.387c-1.41,0.945-2.869,1.859-4.336,2.719
					C386.915,601.471,386.742,601.515,386.57,601.515z M394.97,595.887c-0.302,0-0.6-0.136-0.797-0.395
					c-0.334-0.44-0.249-1.067,0.191-1.401c1.32-1.004,2.626-2.063,3.884-3.147c0.419-0.361,1.05-0.313,1.411,0.105
					c0.36,0.418,0.314,1.05-0.105,1.411c-1.289,1.109-2.627,2.194-3.979,3.223C395.394,595.82,395.181,595.887,394.97,595.887z
					 M402.635,589.286c-0.261,0-0.521-0.102-0.717-0.303c-0.385-0.396-0.375-1.029,0.021-1.414c1.189-1.155,2.359-2.363,3.479-3.592
					c0.372-0.407,1.004-0.437,1.413-0.065c0.408,0.372,0.437,1.004,0.065,1.413c-1.147,1.258-2.346,2.496-3.564,3.679
					C403.137,589.192,402.886,589.286,402.635,589.286z M409.452,581.81c-0.221,0-0.442-0.073-0.627-0.222
					c-0.43-0.347-0.497-0.977-0.15-1.406c1.042-1.29,2.058-2.632,3.022-3.987c0.321-0.45,0.944-0.556,1.395-0.235
					c0.45,0.32,0.555,0.945,0.235,1.395c-0.987,1.388-2.029,2.762-3.095,4.083C410.033,581.683,409.744,581.81,409.452,581.81z
					 M415.319,573.561c-0.181,0-0.363-0.049-0.528-0.151c-0.469-0.292-0.612-0.909-0.32-1.378c0.88-1.412,1.727-2.868,2.517-4.326
					c0.263-0.485,0.869-0.667,1.356-0.403c0.485,0.263,0.666,0.87,0.403,1.356c-0.81,1.494-1.677,2.984-2.579,4.43
					C415.979,573.394,415.653,573.561,415.319,573.561z M420.145,564.657c-0.142,0-0.285-0.03-0.421-0.093
					c-0.501-0.233-0.718-0.828-0.485-1.329c0.701-1.506,1.364-3.054,1.973-4.602c0.202-0.514,0.782-0.768,1.296-0.565
					c0.514,0.202,0.767,0.783,0.565,1.296c-0.623,1.586-1.303,3.171-2.021,4.714C420.883,564.443,420.522,564.657,420.145,564.657z
					 M423.847,555.236c-0.102,0-0.206-0.016-0.309-0.049c-0.525-0.17-0.813-0.734-0.643-1.26c0.511-1.576,0.98-3.19,1.395-4.799
					c0.138-0.535,0.685-0.857,1.218-0.719c0.535,0.138,0.856,0.683,0.719,1.218c-0.425,1.648-0.906,3.303-1.429,4.917
					C424.661,554.967,424.269,555.236,423.847,555.236z M426.374,545.442c-0.063,0-0.127-0.006-0.191-0.018
					c-0.542-0.106-0.896-0.63-0.791-1.172c0.315-1.625,0.586-3.285,0.804-4.934c0.072-0.547,0.581-0.932,1.122-0.86
					c0.547,0.072,0.933,0.575,0.86,1.122c-0.223,1.689-0.5,3.388-0.822,5.053C427.263,545.111,426.844,545.442,426.374,545.442z
					 M427.699,535.416c-0.025,0-0.05-0.001-0.076-0.003c-0.551-0.042-0.963-0.521-0.922-1.072l0.015-0.207
					c0.11-1.585,0.176-3.195,0.194-4.786c0.006-0.548,0.453-0.988,0.999-0.988c0.004,0,0.008,0,0.012,0
					c0.552,0.007,0.995,0.459,0.988,1.012c-0.02,1.629-0.087,3.278-0.199,4.9l-0.016,0.22
					C428.655,535.016,428.217,535.416,427.699,535.416z M427.816,525.299c-0.53,0-0.972-0.417-0.998-0.952
					c-0.08-1.656-0.212-3.332-0.393-4.984c-0.06-0.549,0.336-1.042,0.885-1.103c0.535-0.061,1.043,0.336,1.103,0.885
					c0.186,1.691,0.321,3.409,0.403,5.106c0.026,0.551-0.399,1.02-0.951,1.047C427.849,525.298,427.833,525.299,427.816,525.299z"/>
				<path style="fill:#FFFFFF;" d="M295.708,597.236c-0.202,0-0.406-0.061-0.584-0.188c-0.684-0.493-1.361-0.995-2.029-1.508
					c-0.438-0.336-0.521-0.963-0.185-1.402c0.336-0.438,0.964-0.521,1.402-0.185c0.653,0.5,1.313,0.991,1.981,1.472
					c0.448,0.323,0.55,0.948,0.227,1.396C296.325,597.092,296.019,597.236,295.708,597.236z"/>
			</g>
			<g>
				
					<linearGradient id="SVGID_00000159471409640665110810000006700671770955973761_" gradientUnits="userSpaceOnUse" x1="417.2537" y1="406.3068" x2="308.3819" y2="588.0671">
					<stop  offset="0" style="stop-color:#CB236D"/>
					<stop  offset="0.0721" style="stop-color:#C2236D"/>
					<stop  offset="1" style="stop-color:#4C246D"/>
				</linearGradient>
				<path style="fill:url(#SVGID_00000159471409640665110810000006700671770955973761_);" d="M299.357,574.054
					c0.27,0.331,0.721,0.454,1.122,0.307l11.445-4.209c4.512,3.475,9.61,6.255,15.152,8.16l2.791,11.862
					c0.098,0.416,0.449,0.724,0.874,0.767l14.552,1.474c0.425,0.043,0.831-0.189,1.01-0.576l5.114-11.062
					c5.812-0.755,11.364-2.456,16.481-4.956l10.368,6.418c0.363,0.225,0.83,0.195,1.161-0.076l11.333-9.248
					c0.331-0.27,0.454-0.721,0.307-1.122l-4.209-11.445c3.475-4.512,6.255-9.61,8.16-15.152l11.863-2.792
					c0.416-0.098,0.724-0.449,0.767-0.874l1.474-14.553c0.043-0.425-0.188-0.831-0.576-1.01l-11.062-5.114
					c-0.755-5.812-2.456-11.364-4.956-16.481l6.418-10.369c0.225-0.363,0.194-0.829-0.076-1.161l-9.248-11.332
					c-0.27-0.331-0.721-0.454-1.122-0.307l-11.445,4.209c-4.512-3.475-9.61-6.255-15.152-8.16l-2.791-11.863
					c-0.098-0.416-0.449-0.724-0.874-0.767l-14.553-1.474c-0.425-0.043-0.831,0.188-1.01,0.576l-5.114,11.062
					c-5.812,0.754-11.364,2.456-16.481,4.956l-10.368-6.418c-0.363-0.225-0.83-0.195-1.161,0.076l-11.332,9.248
					c-0.331,0.27-0.454,0.721-0.307,1.122l4.209,11.445c-3.475,4.512-6.255,9.61-8.16,15.152l-11.863,2.791
					c-0.416,0.098-0.724,0.449-0.767,0.874l-1.474,14.552c-0.043,0.425,0.188,0.831,0.576,1.01l11.062,5.114
					c0.755,5.812,2.456,11.364,4.956,16.481l-6.418,10.369c-0.225,0.363-0.195,0.829,0.076,1.161L299.357,574.054z"/>
				<path style="opacity:0.56;fill:#FFFFFF;" d="M344.461,541.774c-2.983,0-5.875-0.952-8.313-2.763
					c-2.999-2.229-4.95-5.492-5.495-9.188c-0.545-3.696,0.382-7.384,2.611-10.383c2.229-2.999,5.492-4.95,9.188-5.495
					c3.697-0.544,7.384,0.382,10.383,2.611c2.998,2.229,4.95,5.492,5.495,9.188c0.545,3.696-0.382,7.384-2.611,10.383
					c-2.229,2.998-5.492,4.95-9.188,5.495l0,0C345.838,541.724,345.147,541.774,344.461,541.774z M344.516,515.794
					c-0.588,0-1.18,0.043-1.773,0.13c-3.168,0.467-5.965,2.14-7.875,4.709c-1.91,2.57-2.705,5.73-2.238,8.898
					c0.467,3.168,2.14,5.965,4.709,7.875c2.57,1.911,5.73,2.705,8.898,2.238l0,0c3.168-0.467,5.965-2.14,7.875-4.71
					c1.91-2.57,2.705-5.73,2.238-8.898c-0.467-3.168-2.14-5.965-4.71-7.874C349.552,516.609,347.072,515.794,344.516,515.794z"/>
				<path style="opacity:0.56;fill:#FFFFFF;" d="M344.742,563.864c-1.219,0-2.446-0.062-3.685-0.187
					c-0.785-0.08-1.566-0.184-2.342-0.314c-1.507-0.251-2.995-0.596-4.449-1.032c-0.034-0.01-0.068-0.02-0.102-0.031
					c-0.224-0.067-0.447-0.137-0.669-0.209c-0.423-0.137-0.692-0.529-0.692-0.95c0-0.102,0.016-0.206,0.049-0.309
					c0.17-0.525,0.733-0.812,1.259-0.643c2.307,0.747,4.712,1.251,7.148,1.498c0.193,0.019,0.386,0.038,0.579,0.054
					c0.004,0,0.007,0,0.014,0.001c5.795,0.49,11.506-0.48,16.701-2.78c0.004-0.001,0.008-0.003,0.012-0.005
					c0.027-0.012,0.055-0.024,0.082-0.036c2.552-1.139,4.978-2.599,7.229-4.366c0.072-0.057,0.143-0.113,0.215-0.17
					c0.033-0.026,0.066-0.052,0.098-0.079c0.07-0.056,0.14-0.112,0.209-0.169c7.097-5.792,11.514-14,12.437-23.114
					c0.12-1.18,0.179-2.356,0.179-3.525c-0.001-7.869-2.686-15.435-7.728-21.614c-5.792-7.097-14-11.514-23.114-12.437
					c-18.818-1.907-35.671,11.85-37.576,30.663c-0.118,1.16-0.176,2.321-0.176,3.479c0.001,5.02,1.1,9.983,3.236,14.53
					c0.064,0.138,0.095,0.283,0.095,0.425c0,0.375-0.212,0.735-0.575,0.905c-0.499,0.234-1.096,0.02-1.331-0.48
					c-2.261-4.813-3.425-10.067-3.426-15.379c-0.001-1.226,0.062-2.455,0.186-3.682c0.977-9.646,5.652-18.333,13.163-24.462
					c7.512-6.129,16.965-8.963,26.604-7.99c9.646,0.977,18.332,5.652,24.462,13.163c5.336,6.539,8.177,14.547,8.178,22.874
					c0,1.238-0.062,2.482-0.189,3.73C378.933,549.898,363.123,563.864,344.742,563.864z"/>
			</g>
		</g>
		<g>
			<g>
				
					<linearGradient id="SVGID_00000073723189318444761710000000361452479225902725_" gradientUnits="userSpaceOnUse" x1="-323.7743" y1="306.2423" x2="-294.9997" y2="382.4952" gradientTransform="matrix(-1 0 0 1 27.24 0)">
					<stop  offset="0" style="stop-color:#F9B776"/>
					<stop  offset="1" style="stop-color:#F47960"/>
				</linearGradient>
				<path style="fill:url(#SVGID_00000073723189318444761710000000361452479225902725_);" d="M358.501,319.448l-5.654,5.575
					c-8.026-0.772-14.211-3.268-18.961-6.436c2.859-7.109,5.762-11.326,8.043-13.797
					C349.401,315.299,358.501,319.448,358.501,319.448z"/>
				
					<linearGradient id="SVGID_00000114056660538583136390000010402042650552984489_" gradientUnits="userSpaceOnUse" x1="-321.8883" y1="331.1673" x2="-307.8607" y2="305.8095" gradientTransform="matrix(-1 0 0 1 27.24 0)">
					<stop  offset="0" style="stop-color:#53D8FF"/>
					<stop  offset="1" style="stop-color:#3840F7"/>
				</linearGradient>
				<path style="fill:url(#SVGID_00000114056660538583136390000010402042650552984489_);" d="M319.148,298.586l13.343-20.862
					c0.875,11.767,4.85,20.613,9.438,27.065c-2.281,2.471-5.185,6.688-8.043,13.797
					C322.031,310.683,319.148,298.586,319.148,298.586z"/>
			</g>
			
				<linearGradient id="SVGID_00000070117293252945427430000009327012232560178048_" gradientUnits="userSpaceOnUse" x1="6790.4199" y1="457.7068" x2="6818.9878" y2="457.7068" gradientTransform="matrix(1 0 0 1 -6496.2026 0)">
				<stop  offset="0" style="stop-color:#2B3582"/>
				<stop  offset="1" style="stop-color:#150E42"/>
			</linearGradient>
			<path style="fill:url(#SVGID_00000070117293252945427430000009327012232560178048_);" d="M304.957,463.467
				c6.652,0.306,13.092,0.114,17.391-0.107c-3.914-2.786-12.933-8.848-20.479-11.262l-5.18-0.31c0,0-1.755,2.67-2.382,8.779
				C295.166,461.638,297.675,463.132,304.957,463.467z"/>
			
				<linearGradient id="SVGID_00000113310734584637400760000012051647196340538030_" gradientUnits="userSpaceOnUse" x1="6790.4199" y1="462.8434" x2="6818.9878" y2="462.8434" gradientTransform="matrix(1 0 0 1 -6496.2026 0)">
				<stop  offset="0" style="stop-color:#53D8FF"/>
				<stop  offset="1" style="stop-color:#3840F7"/>
			</linearGradient>
			<path style="fill:url(#SVGID_00000113310734584637400760000012051647196340538030_);" d="M322.402,463.397
				c-0.017-0.012-0.036-0.026-0.054-0.038c-4.299,0.221-10.738,0.413-17.391,0.107c-7.282-0.335-9.792-1.829-10.65-2.9
				c-0.029,0.281-0.058,0.561-0.082,0.857c-0.108,1.341,0.888,2.518,2.229,2.619c5.448,0.412,18.956,1.345,25.471,1.003
				C322.784,465.001,323.102,463.897,322.402,463.397z"/>
			
				<linearGradient id="SVGID_00000111906591598597539510000007802640295732848055_" gradientUnits="userSpaceOnUse" x1="6740.2354" y1="457.7781" x2="6753.6123" y2="457.7781" gradientTransform="matrix(1 0 0 1 -6496.2026 0)">
				<stop  offset="0" style="stop-color:#2B3582"/>
				<stop  offset="1" style="stop-color:#150E42"/>
			</linearGradient>
			<path style="fill:url(#SVGID_00000111906591598597539510000007802640295732848055_);" d="M257.378,461.686
				c-0.487-3.123-1.268-7.638-1.872-8.792c-0.947-1.811-4.188,0-4.188,0s-2.276,1.061-3.323,2.83
				c-0.667,1.127-2.514,4.335-3.765,6.513c-0.144,0.251-0.204,0.517-0.196,0.775l12.979,0.454
				C257.331,462.957,257.48,462.337,257.378,461.686z"/>
			
				<linearGradient id="SVGID_00000139293320798598521550000008193876963535472809_" gradientUnits="userSpaceOnUse" x1="6740.2363" y1="463.8586" x2="6753.2153" y2="463.8586" gradientTransform="matrix(1 0 0 1 -6496.2026 0)">
				<stop  offset="0" style="stop-color:#53D8FF"/>
				<stop  offset="1" style="stop-color:#3840F7"/>
			</linearGradient>
			<path style="fill:url(#SVGID_00000139293320798598521550000008193876963535472809_);" d="M244.034,463.013
				c0.022,0.741,0.609,1.414,1.438,1.437l9.247,0.254c0.977,0.027,1.823-0.481,2.294-1.237L244.034,463.013z"/>
			
				<linearGradient id="SVGID_00000101812991657118771790000007052546910733466036_" gradientUnits="userSpaceOnUse" x1="6745.8931" y1="448.5564" x2="6754.5723" y2="448.5564" gradientTransform="matrix(1 0 0 1 -6496.2026 0)">
				<stop  offset="0" style="stop-color:#F9B776"/>
				<stop  offset="1" style="stop-color:#F47960"/>
			</linearGradient>
			<path style="fill:url(#SVGID_00000101812991657118771790000007052546910733466036_);" d="M258.37,442.514
				c-0.112,0.375-1.789,8.505-2.523,12.074c-0.203,0.986-1.091,1.679-2.097,1.628c-0.549-0.027-1.188-0.077-1.858-0.164
				c-1.189-0.154-2.094-1.147-2.14-2.345c-0.119-3.126-0.178-9.127,0.97-11.453C252.305,439.047,258.37,442.514,258.37,442.514z"/>
			
				<linearGradient id="SVGID_00000075151972181463261190000008378466188824656010_" gradientUnits="userSpaceOnUse" x1="6791.8726" y1="447.9883" x2="6799.1069" y2="447.9883" gradientTransform="matrix(1 0 0 1 -6496.2026 0)">
				<stop  offset="0" style="stop-color:#F9B776"/>
				<stop  offset="1" style="stop-color:#F47960"/>
			</linearGradient>
			<path style="fill:url(#SVGID_00000075151972181463261190000008378466188824656010_);" d="M295.67,444.842
				c0.719-0.023-0.287,3.714,0.801,7.387c0.246,0.828,0.865,1.479,1.729,1.49c0.56,0.007,1.223-0.004,1.897-0.058
				c1.013-0.081,1.827-0.867,1.921-1.879l0.885-9.527L295.67,444.842z"/>
			
				<linearGradient id="SVGID_00000126294873975267024030000014938659966382097566_" gradientUnits="userSpaceOnUse" x1="305.6811" y1="382.9486" x2="253.2296" y2="425.1379">
				<stop  offset="0" style="stop-color:#CB236D"/>
				<stop  offset="1" style="stop-color:#4C246D"/>
			</linearGradient>
			<path style="fill:url(#SVGID_00000126294873975267024030000014938659966382097566_);" d="M315.791,343.572
				c-0.321,1.563-11.654,67.663-12.341,101.867c-0.012,0.574-0.434,1.055-1.002,1.134c-1.439,0.2-4.24,0.458-6.957-0.045
				c-0.372-0.069-0.652-0.375-0.676-0.753c-0.396-6.374-3.581-60.266,0.32-85.635c0,0-32.222,67.816-37.106,86.515
				c-0.119,0.455-0.536,0.761-1.006,0.736c-1.38-0.073-4.25-0.321-6.529-1.16c-0.817-0.301-1.282-1.159-1.076-2.005
				c2.729-11.191,21.853-88.293,34.838-105.28L315.791,343.572z"/>
			
				<linearGradient id="SVGID_00000142173680187698715090000009577343735343957674_" gradientUnits="userSpaceOnUse" x1="6809.8613" y1="336.774" x2="6780.2539" y2="375.0521" gradientTransform="matrix(1 0 0 1 -6496.2026 0)">
				<stop  offset="0" style="stop-color:#2B3582"/>
				<stop  offset="1" style="stop-color:#150E42"/>
			</linearGradient>
			<path style="fill:url(#SVGID_00000142173680187698715090000009577343735343957674_);" d="M295.135,360.563
				c-0.107,0-0.213-0.04-0.296-0.121c-0.167-0.163-0.17-0.431-0.007-0.598l4.315-4.412c0.163-0.167,0.431-0.17,0.598-0.007
				c0.167,0.163,0.17,0.431,0.007,0.598l-4.315,4.412C295.355,360.52,295.245,360.563,295.135,360.563z"/>
			
				<linearGradient id="SVGID_00000065777009021726597060000009415899328526691212_" gradientUnits="userSpaceOnUse" x1="-313.1942" y1="252.32" x2="-263.1981" y2="321.0198" gradientTransform="matrix(-1 0 0 1 27.24 0)">
				<stop  offset="0" style="stop-color:#53D8FF"/>
				<stop  offset="1" style="stop-color:#3840F7"/>
			</linearGradient>
			<path style="fill:url(#SVGID_00000065777009021726597060000009415899328526691212_);" d="M334.21,260.815
				c-8.277-2.168-23.544-5.563-35.698-4.839c-2.791,0.166-5.028,2.373-5.187,5.165c-1.836,32.369-4.345,61.093-9.069,77.805
				c10.62,4.202,21.148,6.152,31.535,4.626c7.781-16.667,14.584-35.908,20.397-57.76c0,0,3.41-17.429,0.099-23.238
				C335.771,261.669,335.091,261.046,334.21,260.815z"/>
			
				<linearGradient id="SVGID_00000170968785807358736040000016626031695520257166_" gradientUnits="userSpaceOnUse" x1="6813.4707" y1="268.1092" x2="6817.0347" y2="246.1322" gradientTransform="matrix(1 0 0 1 -6496.2026 0)">
				<stop  offset="0" style="stop-color:#F9B776"/>
				<stop  offset="1" style="stop-color:#F47960"/>
			</linearGradient>
			<path style="fill:url(#SVGID_00000170968785807358736040000016626031695520257166_);" d="M314.302,238.141
				c0,0-2.09,12.469-2.713,18.235c-0.101,0.937,0.389,1.823,1.227,2.254c2.284,1.176,7.161,3.07,12.474,1.332
				c0.875-0.286,1.449-1.133,1.429-2.053l-0.364-16.646L314.302,238.141z"/>
			<g>
				
					<linearGradient id="SVGID_00000056405411662032200030000009091074044703588745_" gradientUnits="userSpaceOnUse" x1="6824.9805" y1="232.4794" x2="6801.9277" y2="250.1183" gradientTransform="matrix(1 0 0 1 -6496.2026 0)">
					<stop  offset="0" style="stop-color:#F9B776"/>
					<stop  offset="1" style="stop-color:#F47960"/>
				</linearGradient>
				<path style="fill:url(#SVGID_00000056405411662032200030000009091074044703588745_);" d="M327.933,224.326
					c0,0,4.032,9.264,4.303,14.126c0.271,4.862,1.318,8.017-4.303,8.996c-5.622,0.979-10.358-1.822-12.924-6.665
					c0,0-4.02-7.463-3.118-10.519C312.793,227.207,327.933,224.326,327.933,224.326z"/>
				
					<linearGradient id="SVGID_00000123416022094934667640000011776433515756221833_" gradientUnits="userSpaceOnUse" x1="6808.7852" y1="218.5553" x2="6829.6597" y2="245.4313" gradientTransform="matrix(1 0 0 1 -6496.2026 0)">
					<stop  offset="0" style="stop-color:#2B3582"/>
					<stop  offset="1" style="stop-color:#150E42"/>
				</linearGradient>
				<path style="fill:url(#SVGID_00000123416022094934667640000011776433515756221833_);" d="M316.931,237.3h0.711
					c0,0-2.928-6.006-0.355-7.062c2.573-1.055,12.765-3.134,14.964-6.75c2.12-3.486,0.229-7.99-2.599-9.25
					c-0.179-0.08-0.39,0.005-0.481,0.178l-0.234,0.443c-0.16,0.304-0.609,0.258-0.704-0.072l0,0
					c-0.091-0.313-0.512-0.381-0.684-0.105c-0.673,1.081-2.496,2.84-7.384,3.742c-6.937,1.28-11.522,4.088-11.635,8.882
					c-0.007,0.304-0.332,0.471-0.591,0.313c-0.512-0.312-1.331-0.458-2.427,0.462c-1.905,1.602-1.125,5.756,3.05,9.173
					c0.198,0.162,0.197,0.472-0.018,0.612c-0.757,0.493-1.885,1.665,1.039,3.228c2.991,1.599,4.761,1.424,5.429,1.254
					c0.18-0.046,0.301-0.21,0.289-0.395l-0.262-4.248c-0.014-0.22,0.161-0.405,0.381-0.405H316.931z"/>
				
					<linearGradient id="SVGID_00000096037763582392303320000013905460932264400562_" gradientUnits="userSpaceOnUse" x1="6822.1211" y1="228.7423" x2="6799.0684" y2="246.3812" gradientTransform="matrix(1 0 0 1 -6496.2026 0)">
					<stop  offset="0" style="stop-color:#F9B776"/>
					<stop  offset="1" style="stop-color:#F47960"/>
				</linearGradient>
				<path style="fill:url(#SVGID_00000096037763582392303320000013905460932264400562_);" d="M317.105,238.189
					c0,0-1.538-5.917-4.191-4.258c-2.653,1.659,1.377,6.63,3.51,6.852L317.105,238.189z"/>
			</g>
			<g>
				
					<linearGradient id="SVGID_00000048462846730688530470000013241239388257127301_" gradientUnits="userSpaceOnUse" x1="-354.0892" y1="426.7682" x2="-239.3494" y2="282.8941" gradientTransform="matrix(-1 0 0 1 27.24 0)">
					<stop  offset="0" style="stop-color:#53D8FF"/>
					<stop  offset="1" style="stop-color:#3840F7"/>
				</linearGradient>
				<path style="fill:url(#SVGID_00000048462846730688530470000013241239388257127301_);" d="M231.021,334.463l-5.446,1.377
					c-9.346,2.362-15.63,9.385-14.037,15.687l1.893,7.491c1.593,6.301,10.46,9.495,19.805,7.132l5.446-1.377
					c0.361-0.091,0.719-0.19,1.076-0.297l159.697-47.783l-4.125-16.321l-163.221,33.84
					C231.745,334.288,231.382,334.371,231.021,334.463z M233.367,341.94c7.036-1.779,13.597,0.169,14.653,4.35
					c1.057,4.181-3.791,9.012-10.827,10.79c-7.036,1.779-13.597-0.169-14.654-4.35C221.483,348.549,226.33,343.718,233.367,341.94z"
					/>
				
					<linearGradient id="SVGID_00000121992159229655346200000016928026557986475949_" gradientUnits="userSpaceOnUse" x1="1275.4377" y1="-3329.6604" x2="1330.469" y2="-3196.9382" gradientTransform="matrix(-0.2451 -0.9695 -0.9695 0.2451 -2445.4827 2360.5249)">
					<stop  offset="0" style="stop-color:#53D8FF"/>
					<stop  offset="1" style="stop-color:#3840F7"/>
				</linearGradient>
				<path style="fill:url(#SVGID_00000121992159229655346200000016928026557986475949_);" d="M448.426,278.196l-31.601,7.988
					c-2.25,0.569-4.109,2.15-5.031,4.279l-4.728,10.917c-1.35,3.116-0.431,6.75,2.237,8.85l9.347,7.359
					c1.824,1.435,4.21,1.943,6.46,1.375l31.601-7.988c4.767-1.205,8.816,3.77,6.566,8.141
					c-5.384,10.457-15.262,18.728-27.836,21.906c-22.726,5.744-42.838-8.025-48.363-29.884
					c-5.525-21.859,5.629-43.531,28.354-49.275c12.573-3.178,25.195-0.594,34.901,6.048
					C454.392,270.69,453.193,276.992,448.426,278.196z"/>
				
					<linearGradient id="SVGID_00000103978749744559922640000015802586453252829618_" gradientUnits="userSpaceOnUse" x1="1318.7524" y1="-3191.4824" x2="1358.3173" y2="-3060.5583" gradientTransform="matrix(-0.2451 -0.9695 -0.9695 0.2451 -2445.4827 2360.5249)">
					<stop  offset="0" style="stop-color:#53D8FF"/>
					<stop  offset="1" style="stop-color:#3840F7"/>
				</linearGradient>
				<path style="fill:url(#SVGID_00000103978749744559922640000015802586453252829618_);" d="M449.179,281.175l-31.601,7.988
					c-2.25,0.569-4.109,2.15-5.031,4.279l-4.728,10.917c-1.35,3.116-0.431,6.75,2.237,8.85l9.347,7.358
					c1.823,1.436,4.21,1.943,6.46,1.375l31.601-7.988c4.767-1.205,8.816,3.77,6.566,8.141
					c-5.384,10.457-15.262,18.728-27.835,21.906c-22.726,5.744-42.838-8.024-48.363-29.884
					c-5.525-21.859,5.629-43.531,28.355-49.275c12.573-3.178,25.195-0.594,34.901,6.049
					C455.145,273.668,453.946,279.97,449.179,281.175z"/>
				
					<linearGradient id="SVGID_00000011718595884524136170000011932154660997044648_" gradientUnits="userSpaceOnUse" x1="1288.3395" y1="-2630.1392" x2="1327.9058" y2="-2499.2107" gradientTransform="matrix(-0.2451 -0.9695 -1.2017 0.3038 -2538.7346 2384.156)">
					<stop  offset="0" style="stop-color:#53D8FF"/>
					<stop  offset="1" style="stop-color:#3840F7"/>
				</linearGradient>
				<path style="fill:url(#SVGID_00000011718595884524136170000011932154660997044648_);" d="M231.622,336.838l-5.446,1.377
					c-9.346,2.362-15.63,9.385-14.038,15.687l1.894,7.491c1.593,6.301,10.46,9.495,19.805,7.132l5.446-1.377
					c0.361-0.091,0.719-0.19,1.076-0.297l159.697-47.783l-4.125-16.321l-163.221,33.84
					C232.345,336.664,231.982,336.747,231.622,336.838z M233.967,344.315c7.036-1.778,13.597,0.169,14.654,4.35
					c1.057,4.181-3.79,9.012-10.827,10.79c-7.036,1.779-13.597-0.169-14.653-4.35C222.084,350.924,226.931,346.094,233.967,344.315z
					"/>
			</g>
			<g>
				
					<linearGradient id="SVGID_00000005267862598998776790000005614389169890287281_" gradientUnits="userSpaceOnUse" x1="-241.3986" y1="309.4583" x2="-209.0271" y2="356.2171" gradientTransform="matrix(-1 0 0 1 27.24 0)">
					<stop  offset="0" style="stop-color:#F9B776"/>
					<stop  offset="1" style="stop-color:#F47960"/>
				</linearGradient>
				<path style="fill:url(#SVGID_00000005267862598998776790000005614389169890287281_);" d="M271.908,303.926
					c-4.093,11.483-1.788,23.795-1.788,23.795l-5.395,1.439c0,0-6.97-8.29-5.376-26.686
					C264.329,301.714,268.994,302.881,271.908,303.926z"/>
				
					<linearGradient id="SVGID_00000170278160419267136990000000878837350303071884_" gradientUnits="userSpaceOnUse" x1="-289.3557" y1="234.9716" x2="-239.3595" y2="303.6714" gradientTransform="matrix(-1 0 0 1 27.24 0)">
					<stop  offset="0" style="stop-color:#53D8FF"/>
					<stop  offset="1" style="stop-color:#3840F7"/>
				</linearGradient>
				<path style="fill:url(#SVGID_00000170278160419267136990000000878837350303071884_);" d="M259.349,302.474
					c0.179-2.068,0.461-4.258,0.879-6.585c3.646-20.289,29.656-35.895,35.777-39.313c0.569-0.318,1.262,0.111,1.241,0.763
					l-0.869,27.58c-14.486,1.947-21.342,10.236-24.469,19.007C268.994,302.881,264.329,301.714,259.349,302.474z"/>
			</g>
			
				<linearGradient id="SVGID_00000085232299442852457650000001702151566484668308_" gradientUnits="userSpaceOnUse" x1="-344.0124" y1="313.8792" x2="-315.2376" y2="390.1325" gradientTransform="matrix(-1 0 0 1 27.24 0)">
				<stop  offset="0" style="stop-color:#F9B776"/>
				<stop  offset="1" style="stop-color:#F47960"/>
			</linearGradient>
			<path style="fill:url(#SVGID_00000085232299442852457650000001702151566484668308_);" d="M369.881,329.567
				c1.011-0.279,1.833-0.998,2.26-1.956c0.828-1.856,1.761-4.829-0.231-5.735c-2.967-1.349-8.363,4.181-8.363,4.181l-2.636,4.272
				l-2.411,1.173C360.71,332.11,364.968,331.098,369.881,329.567z"/>
			
				<linearGradient id="SVGID_00000124849176739835534960000000193691077791781048_" gradientUnits="userSpaceOnUse" x1="-253.7958" y1="317.9236" x2="-221.0502" y2="365.2227" gradientTransform="matrix(-1 0 0 1 27.24 0)">
				<stop  offset="0" style="stop-color:#F9B776"/>
				<stop  offset="1" style="stop-color:#F47960"/>
			</linearGradient>
			<path style="fill:url(#SVGID_00000124849176739835534960000000193691077791781048_);" d="M269.76,325.023h6.67
				c0,0-5.411,3.245-5.591,6.658c-0.18,3.413,2.148,10.482,3.237,12.407c1.191,2.105-15.105-3.134-9.352-19.065H269.76z"/>
		</g>
		<g>
			
				<linearGradient id="SVGID_00000063622826955883100230000017593339734399702448_" gradientUnits="userSpaceOnUse" x1="-609.6484" y1="701.5267" x2="-564.8052" y2="701.5267" gradientTransform="matrix(1 0 0 1 1470.101 0)">
				<stop  offset="0" style="stop-color:#F9B776"/>
				<stop  offset="1" style="stop-color:#F47960"/>
			</linearGradient>
			<path style="fill:url(#SVGID_00000063622826955883100230000017593339734399702448_);" d="M860.453,660.13
				c0,0,23.988,52.283,36.574,73.939c0,0,2.5,13.626,0,17.911l-2.13,0.947l9.942-0.296c0,0,0.883-18.329,0.193-19.352
				c-0.69-1.024-2.069-0.957-2.069-0.957s-4.263-33.775-16.61-40.984l-11.965-41.211L860.453,660.13z"/>
			
				<linearGradient id="SVGID_00000150101472120102603070000007837858241666828948_" gradientUnits="userSpaceOnUse" x1="-548.0101" y1="601.243" x2="-570.2179" y2="745.5931" gradientTransform="matrix(1 0 0 1 1470.101 0)">
				<stop  offset="0" style="stop-color:#53D8FF"/>
				<stop  offset="1" style="stop-color:#3840F7"/>
			</linearGradient>
			<path style="fill:url(#SVGID_00000150101472120102603070000007837858241666828948_);" d="M890.65,755.494
				c-0.015,0.24,7.764,0.13,11.989,0.053c1.56-0.029,2.89-1.125,3.223-2.65l3.191-16.764c0.303-1.593-0.708-3.141-2.289-3.502
				l-1.781-0.407c0,0-2.541,3.485-1.741,6.767c0.8,3.282,1.512,11.782-0.51,12.772c-2.021,0.991-7.835,1.164-7.835,1.164
				S890.783,753.335,890.65,755.494z"/>
			
				<linearGradient id="SVGID_00000099653808528717160330000010362764471086104231_" gradientUnits="userSpaceOnUse" x1="-594.9993" y1="594.0137" x2="-617.2072" y2="738.3646" gradientTransform="matrix(1 0 0 1 1470.101 0)">
				<stop  offset="0" style="stop-color:#53D8FF"/>
				<stop  offset="1" style="stop-color:#3840F7"/>
			</linearGradient>
			<path style="fill:url(#SVGID_00000099653808528717160330000010362764471086104231_);" d="M837.716,755.798
				c-0.787,0.448-0.462,1.649,0.443,1.64c7.071-0.071,22.915-0.295,24.323-0.88c1.818-0.756-0.663-7.288-3.273-9.499l-14.412,4.704
				L837.716,755.798z"/>
			
				<linearGradient id="SVGID_00000158720807188321844710000004922380211731098253_" gradientUnits="userSpaceOnUse" x1="-636.8588" y1="704.8611" x2="-610.8912" y2="704.8611" gradientTransform="matrix(1 0 0 1 1470.101 0)">
				<stop  offset="0" style="stop-color:#F9B776"/>
				<stop  offset="1" style="stop-color:#F47960"/>
			</linearGradient>
			<path style="fill:url(#SVGID_00000158720807188321844710000004922380211731098253_);" d="M833.242,656.795
				c0,0,15.502,74.993,19.887,89.621l-10.374,6.51c0,0,5.199-0.884,9.054-1.164c3.855-0.279,7.401-4.704,7.401-4.704l-1.243-1.982
				c0,0-3.888-74.584-2.941-83.054L833.242,656.795z"/>
			
				<linearGradient id="SVGID_00000008862848469409567020000007582998378509956027_" gradientUnits="userSpaceOnUse" x1="835.537" y1="541.4239" x2="869.524" y2="614.4959">
				<stop  offset="0" style="stop-color:#53D8FF"/>
				<stop  offset="1" style="stop-color:#3840F7"/>
			</linearGradient>
			<path style="fill:url(#SVGID_00000008862848469409567020000007582998378509956027_);" d="M826.903,537.896
				c5.942,1.648,26.072,6.943,38.639,6.727l-7.716,43.542l0.614,7.102l-25.157-0.113c0,0-7.082-16.447-12.669-24.647
				c-1.614-2.368-0.413-5.193,0.502-7.909l-1.257-0.837c-1.279-0.851-1.833-2.451-1.356-3.911l6.126-18.743
				C824.948,538.163,825.943,537.63,826.903,537.896z"/>
			
				<linearGradient id="SVGID_00000039098595914028787690000004555015445691631541_" gradientUnits="userSpaceOnUse" x1="945.1164" y1="748.2211" x2="850.3738" y2="633.0439">
				<stop  offset="0" style="stop-color:#53D8FF"/>
				<stop  offset="1" style="stop-color:#3840F7"/>
			</linearGradient>
			<path style="fill:url(#SVGID_00000039098595914028787690000004555015445691631541_);" d="M831.268,591.438l0.495,4.303
				c0,0-7.109,21.291,3.555,71.018c0,0,23.096,6.543,42.078-9.114c0,0-5.355-46.935-6.817-49.121
				c-7.285-10.889-12.138-13.257-12.138-13.257l-0.219-4.7C858.221,590.566,837.919,594.237,831.268,591.438z"/>
			
				<linearGradient id="SVGID_00000088101715766322515340000017344020837372219063_" gradientUnits="userSpaceOnUse" x1="-628.9867" y1="534.9927" x2="-613.0959" y2="534.9927" gradientTransform="matrix(1 0 0 1 1470.101 0)">
				<stop  offset="0" style="stop-color:#F9B776"/>
				<stop  offset="1" style="stop-color:#F47960"/>
			</linearGradient>
			<path style="fill:url(#SVGID_00000088101715766322515340000017344020837372219063_);" d="M841.115,541.406
				c-0.088-0.117,5.252-16.123,5.252-16.123l7.65,0.694l2.988,18.159C857.005,544.135,845.017,546.555,841.115,541.406z"/>
			
				<linearGradient id="SVGID_00000150802320304264867930000011340269222542968199_" gradientUnits="userSpaceOnUse" x1="-603.7311" y1="514.4572" x2="-488.0663" y2="522.3223" gradientTransform="matrix(1 0 0 1 1470.101 0)">
				<stop  offset="0" style="stop-color:#F9B776"/>
				<stop  offset="1" style="stop-color:#F47960"/>
			</linearGradient>
			<path style="fill:url(#SVGID_00000150802320304264867930000011340269222542968199_);" d="M852.185,500.04
				c-0.51,0.318-16.346,6.862-12.943,23.303c0.201,0.971,0.849,1.795,1.755,2.199c2.324,1.037,7.327,2.811,13.311,2.203
				c8.296-0.843,13.732-15.32,13.501-19.532C867.577,504,857.241,496.892,852.185,500.04z"/>
			
				<linearGradient id="SVGID_00000129165400379521361800000010454563659148412324_" gradientUnits="userSpaceOnUse" x1="798.7103" y1="529.3168" x2="881.015" y2="652.7737">
				<stop  offset="0" style="stop-color:#F9B776"/>
				<stop  offset="1" style="stop-color:#F47960"/>
			</linearGradient>
			<path style="fill:url(#SVGID_00000129165400379521361800000010454563659148412324_);" d="M825.602,547.015
				c0.825-2.144-0.694-4.451-2.989-4.557c-5.837-0.269-15.983-2.11-24.571-10.698c-5.571-5.571-7.047-25.839-7.047-25.839
				s-1.174-9.396-3.523-9.396c-2.349,0,0,5.872,0,5.872s-5.872,3.523-11.745-1.174c-5.872-4.698,1.174,7.047,7.047,9.396
				c0,0-2.257,46.27,36.372,46.992c1.415,0.026,2.702-0.837,3.21-2.158L825.602,547.015z"/>
			
				<linearGradient id="SVGID_00000005246175252420902650000001326240576104752802_" gradientUnits="userSpaceOnUse" x1="-755.4851" y1="503.5117" x2="-810.4351" y2="610.1904" gradientTransform="matrix(-1 0 0 1 92.1713 0)">
				<stop  offset="0" style="stop-color:#2B3582"/>
				<stop  offset="1" style="stop-color:#150E42"/>
			</linearGradient>
			<path style="fill:url(#SVGID_00000005246175252420902650000001326240576104752802_);" d="M846.812,533.234
				c0-3.095,0.648-6.037,1.814-8.701c1.314-3.002,1.044-6.51-1.058-9.024c-3.44-4.116-4.689-9.335-2.792-13.904
				c2.961-7.134,12.453-9.975,21.201-6.344c6.202,2.574,10.358,7.707,11.198,13.019c0.483,3.052,2.117,5.777,4.574,7.652
				c3.483,2.659,6.137,6.348,7.513,10.612c0.93,2.882,2.799,5.362,5.429,6.863c5.939,3.388,10.89,8.62,13.889,15.333
				c7.52,16.838-0.078,36.605-16.971,44.15c-16.893,7.545-36.685,0.012-44.205-16.826c-4.178-9.355-3.684-19.61,0.474-28.174
				c1.043-2.149,1.262-4.624,0.397-6.851C847.333,538.617,846.812,535.989,846.812,533.234z"/>
		</g>
		<path style="opacity:0.65;fill:#FFFFFF;" d="M978.39,144.249c-4.976-23.618-17.357-15.513-38.092-22.78
			c-20.724-7.263-14.662-33.183-27.529-41.179c-17.154-10.661-32.906-0.765-43.578,13.227
			c-17.731,23.248-29.862,4.342-51.057,13.764c-12.142,5.398-6.963,12.959-23.388,16.004c-11.476,2.127-23.899-2.882-35.211,0.18
			c-8.376,2.268-14.454,6.245-16.307,14.36c2.365,1.113,4.815,2.119,7.338,3.029c31.668,11.415,74.868,7.604,106.876,9.286
			C868.352,150.714,981.917,160.987,978.39,144.249z"/>
		<path style="opacity:0.65;fill:#FFFFFF;" d="M1068.391,208.931c-5.439-6.644-13.557-9.379-21.511-7.39
			c-8.669,2.168-13.568,10.453-21.636,13.766c-14.076,5.781-33.542-5.641-44.233,9.261c-13.075,18.226-23.179,4.556-23.179,16.924
			c0,12.367,90.338,3.255,134.912,3.906c6.44,0.094,34.398-0.375,22.363-13.743c-3.737-4.151-9.07-4.846-14.041-5.818
			c-6.482-1.267-21.894-1.962-26.588-7.004c-2.527-2.714-3.499-6.614-5.781-9.519
			C1068.596,209.184,1068.494,209.057,1068.391,208.931z"/>
		<g>
			
				<linearGradient id="SVGID_00000003069411033519417880000005907522299452218756_" gradientUnits="userSpaceOnUse" x1="420.8204" y1="525.0566" x2="466.3226" y2="705.5485">
				<stop  offset="0" style="stop-color:#C32B78"/>
				<stop  offset="1" style="stop-color:#593092"/>
			</linearGradient>
			<path style="fill:url(#SVGID_00000003069411033519417880000005907522299452218756_);" d="M515.051,654.543
				c-5.65-21.217-17.695-38.499-32.43-49.037c-13.171-9.42-22.318-23.529-25.203-39.447c-0.303-1.673-0.678-3.355-1.127-5.039
				c-6.795-25.518-27.939-42.04-47.225-36.905c-19.287,5.136-29.413,29.985-22.619,55.503c1.389,5.218,3.379,10.058,5.831,14.414
				c7.823,13.901,10.374,30.236,6.529,45.723c-3.436,13.841-3.419,29.617,0.817,45.524c6.318,23.725,20.632,42.53,37.759,52.487
				c6.479,3.766,12.249,8.685,16.945,14.517c7.804,9.691,19.211,14.629,30.039,11.746c11.681-3.111,19.419-14.452,20.576-28.074
				c0.655-7.708,2.819-15.188,6.103-22.199C518.802,697.206,520.764,675.995,515.051,654.543z"/>
			<path style="opacity:0.57;fill:#FFFFFF;" d="M423.049,549.462c7.01,16.194,13.495,32.599,19.808,49.073
				c1.58,4.117,3.094,8.26,4.621,12.398l2.289,6.207l2.238,6.226c1.476,4.156,3.009,8.292,4.437,12.466l4.287,12.519
				c2.751,8.382,5.573,16.741,8.168,25.175c1.303,4.215,2.689,8.403,3.907,12.644l3.712,12.704
				c4.777,16.988,9.13,34.104,12.609,51.406l-0.744,0.157l-3.095-12.847l-0.767-3.212l-0.847-3.193l-1.706-6.382l-1.693-6.384
				c-0.56-2.129-1.2-4.237-1.796-6.357c-1.221-4.232-2.408-8.472-3.656-12.695c-5.102-16.862-10.428-33.655-16.099-50.337
				c-2.9-8.319-5.728-16.662-8.685-24.962l-2.201-6.23l-2.253-6.212c-1.5-4.142-2.999-8.285-4.541-12.412
				c-3.013-8.281-6.085-16.54-9.224-24.774c-3.096-8.25-6.271-16.474-9.47-24.684L423.049,549.462z"/>
		</g>
		<g>
			
				<linearGradient id="SVGID_00000143609264076399233000000001422316724433535388_" gradientUnits="userSpaceOnUse" x1="2313.6636" y1="-3787.1963" x2="2272.5073" y2="-3948.5134" gradientTransform="matrix(0.726 -0.6876 0.6876 0.726 1408.782 5092.519)">
				<stop  offset="0" style="stop-color:#A737D5"/>
				<stop  offset="1" style="stop-color:#EF497A"/>
			</linearGradient>
			<path style="fill:url(#SVGID_00000143609264076399233000000001422316724433535388_);" d="M449.568,680.584
				c-10.964-11.579-24.634-18.437-37.675-20.064c-11.658-1.455-22.38-7.292-29.744-16.446c-0.774-0.962-1.596-1.905-2.467-2.824
				c-13.186-13.925-32.386-17.154-42.885-7.213c-10.499,9.942-8.321,29.29,4.865,43.215c2.696,2.847,5.644,5.247,8.717,7.177
				c9.808,6.161,17.103,15.697,20.031,26.903c2.617,10.014,8.104,20.07,16.324,28.75c12.259,12.947,27.903,19.992,42.267,20.422
				c5.433,0.163,10.816,1.305,15.831,3.401c8.334,3.483,17.312,2.689,23.207-2.892c6.359-6.021,7.349-15.929,3.357-25.016
				c-2.259-5.142-3.478-10.661-3.82-16.267C466.767,706.497,460.653,692.291,449.568,680.584z"/>
			<path style="opacity:0.57;fill:#FFFFFF;" d="M354.501,645.37c10.086,7.904,19.911,16.126,29.65,24.449
				c2.436,2.08,4.838,4.199,7.247,6.31l3.613,3.167l3.586,3.197c2.383,2.141,4.795,4.248,7.153,6.416l7.076,6.502
				c4.662,4.395,9.361,8.75,13.941,13.232c2.293,2.237,4.63,4.429,6.878,6.714l6.774,6.819c8.94,9.183,17.654,18.594,25.875,28.426
				l-0.419,0.358l-6.431-7.123l-1.603-1.784l-1.648-1.744l-3.302-3.481l-3.295-3.486c-1.096-1.164-2.235-2.288-3.351-3.433
				c-2.246-2.277-4.474-4.571-6.735-6.833c-9.103-8.99-18.324-17.859-27.727-26.538c-4.735-4.303-9.432-8.647-14.197-12.918
				l-3.565-3.213l-3.592-3.183c-2.393-2.124-4.786-4.247-7.201-6.346c-4.793-4.24-9.617-8.445-14.475-12.612
				c-4.836-4.191-9.712-8.339-14.6-12.469L354.501,645.37z"/>
		</g>
	</g>
</g>
</svg>
