<?xml version="1.0" encoding="utf-8"?>
<!-- Generator: Adobe Illustrator 27.5.0, SVG Export Plug-In . SVG Version: 6.00 Build 0)  -->
<svg version="1.1" id="Layer_1" xmlns="http://www.w3.org/2000/svg" xmlns:xlink="http://www.w3.org/1999/xlink" x="0px" y="0px"
	 viewBox="0 0 3870.69 2000" style="enable-background:new 0 0 3870.69 2000;" xml:space="preserve">
<rect x="0" style="fill:#FFFFFF;" width="3870.69" height="2000"/>
<g>
	<g>
		<g>
			<g>
				<path style="fill:#FEF4E6;" d="M732.241,1901.834l-515.349,3.234c0,0-564.853-1632.013,817.724-1811.068
					C1818.523-7.522,1844.627,505.14,2521.47,485.658c1291.99-37.188,1379.535,899.647,1099.814,1416.177H732.241z"/>
			</g>
		</g>
	</g>
	<g>
		<g>
			<g>
				<g>
					<g>
						<path style="fill:#FEC786;" d="M1481.052,1340.369c-20.716-26.332-45.288-48.642-72.547-66.441l13.367-79.518l-51.817-18.838
							l-51.817-18.839l-40.823,69.535c-32.326-3.863-65.489-2.543-98.279,4.336l-46.782-65.688l-49.961,23.319l-49.961,23.319
							l20.306,78.046c-26.332,20.716-48.642,45.288-66.442,72.547l-79.518-13.367l-18.838,51.816l-18.839,51.816l69.536,40.824
							c-3.864,32.325-2.544,65.488,4.336,98.278l-65.689,46.783l23.319,49.961l23.319,49.961l78.047-20.305
							c20.716,26.332,45.288,48.642,72.546,66.441l-13.367,79.518l51.817,18.838l51.816,18.839l40.824-69.536
							c32.325,3.863,65.488,2.543,98.278-4.336l46.782,65.689l49.961-23.319l49.961-23.319l-20.306-78.047
							c26.332-20.716,48.642-45.288,66.441-72.547l79.518,13.367l18.839-51.817l18.838-51.817l-69.536-40.824
							c3.864-32.325,2.543-65.488-4.336-98.278l65.688-46.782l-23.319-49.961l-23.319-49.96L1481.052,1340.369z M1328.994,1716.573
							c-103.516,48.316-226.601,3.567-274.917-99.949c-48.316-103.517-3.567-226.601,99.95-274.917
							c103.516-48.316,226.601-3.567,274.917,99.949C1477.26,1545.173,1432.511,1668.257,1328.994,1716.573z"/>
					</g>
				</g>
			</g>
		</g>
		<g>
			<g>
				<g>
					<g>
						<g>
							<g>
								<g>
									<g>
										<g>
											<g>
												<g>
													<path style="fill:#FE9F73;" d="M833.501,1244.696l-24.88,33.028c0,0-7.945,11.515-18.765,5.552l-9.397,16.27
														c-3.493,6.047-10.797,8.854-17.383,6.532c-3.22-1.135-6.777-2.873-10.297-5.524
														c-11.164-8.41-10.904-21.339-8.681-26.227c2.224-4.888,20.083-22.788,20.083-22.788l7.064-10.085l29.96-37.128
														L833.501,1244.696z"/>
												</g>
											</g>
										</g>
									</g>
								</g>
							</g>
						</g>
						<g>
							<g>
								<g>
									<g>
										<g>
											<g>
												<g>
													<path d="M794.106,1240.905c-0.116-0.087-0.2-0.218-0.224-0.373c-0.051-0.317,0.164-0.616,0.482-0.667
														c0.114-0.019,11.443-1.744,13.741,7.371c0.079,0.312-0.11,0.628-0.422,0.707c-0.312,0.079-0.629-0.11-0.707-0.422
														c-2.037-8.076-12.003-6.574-12.426-6.506C794.386,1241.04,794.228,1240.997,794.106,1240.905z"/>
												</g>
											</g>
										</g>
									</g>
								</g>
							</g>
						</g>
						<g>
							<g>
								<g>
									<g>
										<g>
											<g>
												<g>
													<path d="M815.384,1252.559c-0.13-0.098-0.219-0.25-0.231-0.426c-0.022-0.321,0.22-0.598,0.541-0.621
														c0.31-0.021,7.607-0.474,8.599,4.045c0.069,0.314-0.129,0.625-0.443,0.693c-0.315,0.07-0.625-0.129-0.694-0.444
														c-0.778-3.54-7.316-3.137-7.382-3.133C815.629,1252.685,815.492,1252.64,815.384,1252.559z"/>
												</g>
											</g>
										</g>
									</g>
								</g>
							</g>
						</g>
						<g>
							<g>
								<g>
									<g>
										<g>
											<g>
												<g>
													<path d="M802.096,1249.871c-0.581,0.771-1.676,0.925-2.447,0.344s-0.925-1.676-0.344-2.447
														c0.581-0.771,1.676-0.925,2.447-0.344C802.523,1248.005,802.677,1249.1,802.096,1249.871z"/>
												</g>
											</g>
										</g>
									</g>
								</g>
							</g>
						</g>
						<g>
							<g>
								<g>
									<g>
										<g>
											<g>
												<g>
													<path d="M817.982,1259.65c-0.581,0.771-1.676,0.925-2.447,0.344c-0.771-0.581-0.925-1.676-0.344-2.447
														c0.581-0.771,1.676-0.925,2.447-0.344C818.408,1257.784,818.563,1258.879,817.982,1259.65z"/>
												</g>
											</g>
										</g>
									</g>
								</g>
							</g>
						</g>
						<g>
							<g>
								<g>
									<g>
										<g>
											<g>
												<g>
													<path d="M801.122,1207.14l-0.519,16.893c0,0,16.692,26.938,36.963,25.194c20.271-1.743,20.477-9.76,21.025-17.865
														c0.27-3.995-3.965-15.734-17.622-18.899c-7.455-1.728-6.011-12.241-15.327-13.425
														c-9.316-1.184-21.853-0.526-22.914,2.671C801.668,1204.906,801.122,1207.14,801.122,1207.14z"/>
												</g>
											</g>
										</g>
									</g>
								</g>
							</g>
						</g>
						<g>
							<g>
								<g>
									<g>
										<g>
											<g>
												<g>
													<path d="M805.098,1202.843c0,0-10.35-8.607-21.135-0.528c-10.785,8.079-10.832,16.53-13.05,19.69
														c-2.218,3.16-19.961,22.364-4.205,31.801l29.793-31.353l5.216-17.488L805.098,1202.843z"/>
												</g>
											</g>
										</g>
									</g>
								</g>
							</g>
						</g>
						<g>
							<g>
								<g>
									<g>
										<g>
											<g>
												<g>
													
														<ellipse transform="matrix(0.9999 -0.0136 0.0136 0.9999 -16.7401 10.7731)" style="fill:#FE9F73;" cx="782.562" cy="1234.396" rx="10.483" ry="10.483"/>
												</g>
											</g>
										</g>
									</g>
								</g>
							</g>
						</g>
						<g>
							<g>
								<g>
									<g>
										<g>
											<g>
												<g>
													<path style="fill:#F07162;" d="M778.077,1239.061c-1.74-1.31-1.916-3.493-1.315-5.088
														c0.712-1.886,2.361-2.997,4.203-2.831c2.722,0.246,3.846,2.251,4.281,3.466c0.354-1.223,0.309-2.341-0.138-3.335
														c-0.966-2.151-3.51-3.031-3.536-3.04c-0.153-0.051-0.234-0.216-0.183-0.369c0.051-0.152,0.216-0.234,0.368-0.183
														c0.114,0.038,2.806,0.966,3.88,3.349c0.62,1.375,0.565,2.944-0.162,4.66l-0.408,0.963l-0.149-1.035
														c-0.021-0.147-0.554-3.583-4.007-3.896c-1.912-0.173-3.138,1.215-3.606,2.456c-0.486,1.289-0.481,3.211,1.118,4.416
														c0.016,0.012,0.032,0.022,0.048,0.036c0.127,0.096,0.154,0.276,0.06,0.405c-0.095,0.129-0.277,0.158-0.407,0.063
														C778.11,1239.085,778.093,1239.073,778.077,1239.061z"/>
												</g>
											</g>
										</g>
									</g>
								</g>
							</g>
						</g>
						<g>
							<g>
								<g>
									<g>
										<g>
											<g>
												<g>
													<path style="fill:#F07162;" d="M774.352,1256.73c0,0-13.422,19.18,8.572,38.545l6.931-12
														C789.855,1283.275,772.429,1274.915,774.352,1256.73z"/>
												</g>
											</g>
										</g>
									</g>
								</g>
							</g>
						</g>
						<g>
							<g>
								<g>
									<g>
										<g>
											<g>
												<path d="M814.199,1273.689c0,0-13.807,24.659-29.258,14.265c-22.109-14.872-15.03-28.552-8.817-39.427l15.216-20.644
													l5.16-5.43l0,0c0.223,2.83-0.466,5.653-1.965,8.064c-3.26,5.243-12.14,19.296-11.355,20.805
													C784.288,1253.454,812.514,1269.043,814.199,1273.689z"/>
											</g>
										</g>
									</g>
								</g>
							</g>
						</g>
						<g>
							<g>
								<g>
									<g>
										<g>
											<g>
												<g>
													<path style="fill:#F07162;" d="M799.928,1262.993c-0.098-0.073-0.142-0.204-0.101-0.326
														c0.052-0.153,0.217-0.234,0.369-0.183l5.824,1.971l6.793-12.083c0.079-0.14,0.256-0.19,0.396-0.111
														c0.144,0.076,0.19,0.256,0.111,0.396l-7.03,12.504l-6.282-2.126C799.98,1263.026,799.952,1263.011,799.928,1262.993z"
														/>
												</g>
											</g>
										</g>
									</g>
								</g>
							</g>
						</g>
					</g>
					<g>
						<g>
							<g>
								<g>
									<g>
										<g>
											<path style="fill:#FBFDFC;" d="M794.194,1264.065c0.172,0.085,9.841,7.056,9.841,7.056s-4.168,3.026-7.769,0.444
												C792.666,1268.984,794.194,1264.065,794.194,1264.065z"/>
										</g>
									</g>
								</g>
							</g>
						</g>
					</g>
				</g>
				<g>
					<g>
						<g>
							<g>
								<path style="fill:#FE9F73;" d="M898.061,1420.963c5.928-6.78,15.531-19.297,18.075-24.754
									c0.005-0.006,0.005-0.006,0.003-0.016c0.247-0.513,0.422-0.972,0.524-1.352c0.009-0.011,0.017-0.032,0.02-0.048
									c0.024-0.11,0.043-0.214,0.059-0.303c0.277-1.699,0.808-3.564,1.525-5.5c1.38-6.365,1.983-13.152,2.866-15.066
									c0.817-1.768,4.267-3.828,6.547-5.04c1.899-1.009,2.958-3.203,2.363-5.269c-0.346-1.2-1.212-2.319-3.096-2.828
									c0,0,1.667-5.802-3.606-6.496c0,0,1.903-6.36-6.562-5.383c0,0-0.607-3.621-4.613-3.74
									c-4.012-0.124-12.65,3.513-13.876,4.588c-1.224,1.085-14.353,19.016-14.353,19.016s-11.845,24.74-12.783,25.917
									L898.061,1420.963z"/>
							</g>
						</g>
					</g>
					<g>
						<g>
							<g>
								<g>
									<g>
										<g>
											<path style="fill:#F07162;" d="M899.304,1360.676c0.124-0.023,0.241-0.09,0.325-0.199
												c0.034-0.044,3.387-4.414,5.07-5.611c1.359-0.966,8.622-4.005,12.273-5.477c0.267-0.108,0.4-0.41,0.296-0.674
												c-0.104-0.265-0.407-0.392-0.672-0.285c-0.436,0.176-10.692,4.317-12.491,5.596c-1.813,1.289-5.156,5.646-5.298,5.83
												c-0.175,0.229-0.134,0.553,0.093,0.725C899.019,1360.671,899.166,1360.701,899.304,1360.676z"/>
										</g>
									</g>
								</g>
							</g>
						</g>
					</g>
					<g>
						<g>
							<g>
								<g>
									<g>
										<g>
											<path style="fill:#F07162;" d="M907.571,1366.418c0.128-0.023,0.249-0.095,0.332-0.208
												c0.026-0.035,2.611-3.559,4.639-5.23c2.036-1.677,10.946-6.183,11.036-6.229c0.257-0.13,0.363-0.442,0.237-0.697
												c-0.127-0.255-0.437-0.355-0.695-0.226c-0.371,0.187-9.106,4.605-11.232,6.357c-2.132,1.756-4.712,5.274-4.82,5.422
												c-0.17,0.233-0.121,0.556,0.11,0.722C907.294,1366.416,907.437,1366.443,907.571,1366.418z"/>
										</g>
									</g>
								</g>
							</g>
						</g>
					</g>
					<g>
						<g>
							<g>
								<g>
									<g>
										<g>
											<path style="fill:#F07162;" d="M913.275,1371.18c0.135-0.025,0.261-0.102,0.344-0.226
												c0.016-0.024,1.654-2.449,3.663-4.215c2.007-1.764,9.803-5.449,9.881-5.486c0.261-0.123,0.375-0.432,0.257-0.69
												c-0.12-0.258-0.429-0.368-0.688-0.245c-0.326,0.154-8.01,3.786-10.129,5.649c-2.115,1.859-3.774,4.317-3.843,4.42
												c-0.161,0.24-0.098,0.56,0.139,0.717C913.013,1371.18,913.148,1371.203,913.275,1371.18z"/>
										</g>
									</g>
								</g>
							</g>
						</g>
					</g>
				</g>
				<g>
					<path style="fill:#FE9F73;" d="M401.992,1856.753l29.478-31.892c0,0-26.851-7.955-27.914-7.689
						c-1.064,0.266-24.015,7.931-24.015,7.931s-6.292,11.21-6.026,15.729c0.266,4.52,2.659,15.154,7.444,18.078
						c4.785,2.924,5.583,5.051,9.837,3.456C395.049,1860.772,401.992,1856.753,401.992,1856.753z"/>
				</g>
				<g>
					<g>
						<g>
							<g>
								<g>
									<g>
										<g>
											<g>
												<g>
													<g>
														<g>
															<g>
																<g>
																	<polygon style="fill:#FE9F73;" points="654.52,1889.642 615.983,1889.776 615.858,1879.033 631.013,1839.188 
																		675.764,1844.223 																	"/>
																</g>
															</g>
														</g>
													</g>
												</g>
											</g>
										</g>
									</g>
								</g>
							</g>
						</g>
					</g>
				</g>
				<g>
					<g>
						<g>
							<g>
								<g>
									<path style="fill:#7FC6A6;" d="M615.511,1892.811h42.035l17.043-18.564l31.172,18.564h6.714
										c2.313,0,4.434,1.565,4.87,3.837c0.587,3.057-1.741,5.731-4.693,5.731h-97.74c-0.718,0-1.301-0.582-1.301-1.3v-6.367
										C613.611,1893.662,614.462,1892.811,615.511,1892.811z"/>
								</g>
							</g>
						</g>
					</g>
					<g>
						<g>
							<g>
								<g>
									<path style="fill:#3AA1C9;" d="M615.882,1892.865v-17.255c0,0,7.079-9.529,17.858-4.665c0,0,16.303,11.566,30.675-2.43
										l35.689,15.831c0,0,9.786,3.271,12.435,8.52H615.882z"/>
								</g>
							</g>
						</g>
					</g>
					<g>
						<g>
							<g>
								<g>
									<g>
										<g>
											<rect x="615.524" y="1875.61" width="0.715" height="17.17"/>
										</g>
									</g>
								</g>
							</g>
						</g>
					</g>
					<g>
						<g>
							<g>
								<g>
									<g>
										<g>
											<path d="M648.352,1875.798c1.366,0,2.189-0.117,2.216-0.121l-0.106-0.707c-0.083,0.011-8.508,1.193-16.519-4.32
												l-0.405,0.59C639.277,1875.189,645.23,1875.798,648.352,1875.798z"/>
										</g>
									</g>
								</g>
							</g>
						</g>
					</g>
					<g>
						<g>
							<g>
								<g>
									<g>
										<g>
											
												<rect x="622.131" y="1885.059" transform="matrix(0.5583 -0.8297 0.8297 0.5583 -1291.2639 1350.3489)" width="0.716" height="5.498"/>
										</g>
									</g>
								</g>
							</g>
						</g>
					</g>
					<g>
						<g>
							<g>
								<g>
									<g>
										<g>
											
												<rect x="625.401" y="1884.19" transform="matrix(0.5591 -0.8291 0.8291 0.5591 -1288.5334 1350.6561)" width="0.715" height="5.498"/>
										</g>
									</g>
								</g>
							</g>
						</g>
					</g>
					<g>
						<g>
							<g>
								<g>
									<g>
										<g>
											<g>
												<g>
													<g>
														<g>
															<g>
																<g>
																	<path d="M715.977,1901.548c1.154-0.979,1.816-2.408,1.816-3.921c0-2.835-2.307-5.141-5.142-5.141h-96.642
																		c-1.52,0-2.756,1.237-2.756,2.757v4.77h0.716v-4.77c0-1.126,0.915-2.041,2.041-2.041h96.642
																		c2.441,0,4.426,1.985,4.426,4.426c0,1.302-0.57,2.533-1.563,3.376L715.977,1901.548z"/>
																</g>
															</g>
														</g>
													</g>
												</g>
											</g>
										</g>
									</g>
								</g>
							</g>
						</g>
					</g>
					<g>
						<g>
							<g>
								<g>
									<g>
										<g>
											<path d="M712.328,1892.996l0.647-0.305c-0.08-0.17-2.038-4.182-9.343-7.297c-7.179-3.061-38.753-17.066-39.071-17.207
												l-0.291,0.654c0.319,0.141,31.898,14.148,39.081,17.211C710.38,1889.051,712.31,1892.957,712.328,1892.996z"/>
										</g>
									</g>
								</g>
							</g>
						</g>
					</g>
				</g>
				<g>
					<path style="fill:#2A3E70;" d="M608.127,1579.296c0,0,67.154,58.641,122.983,73.529l-108.048,188.291
						c0,0,22.512,24.114,59.906,24.114c0,0,147.762-215.351,147.812-240.535c0.036-18.032-127.702-102.37-127.702-102.37
						l-94.951,27.43V1579.296z"/>
				</g>
				<g>
					<path style="fill:#3A4A7C;" d="M372.331,1817.73l211.003-356.595l62.413-3.926l57.331,65.117c0,0-24.265,34.815-63.301,70.686
						c-39.036,35.871-84.401,68.048-132.404,141.9c-48.003,73.851-77.544,117.107-77.544,117.107S395.541,1838.302,372.331,1817.73z
						"/>
				</g>
				<g>
					<path style="fill:#3AA1C9;" d="M420.779,1895.419h-39.938l-23.307-61.544c-1.165-3.077,0.867-6.432,4.134-6.823l18.271-2.191
						c0,0,1.907,25.968,22.053,31.891l-3.394,20.566c9.61,3.658,12.063,2.954,22.18,8.3
						C426.408,1888.593,420.779,1895.419,420.779,1895.419z"/>
				</g>
				<g>
					<path style="fill:#FC4F68;" d="M709.009,1526.717c0,0,10.154-60.854,19.122-71.404s17.393-17.548,17.393-17.548
						c13.214,29.123,36.433,70.304,43.538,74.011c12.133,6.33,42.201-12.133,65.939-38.508
						c23.738-26.375,50.113-54.333,50.113-54.333l-29.54-35.87l-41.643,36.868l-22.185,19.575c0,0-30.596-122.909-38.508-150.34
						s-29.013-23.738-29.013-23.738c-30.596,5.275-160.89,195.705-160.89,195.705s33.867,10.187,45.366,15.298
						C661.933,1491.202,664.299,1524.778,709.009,1526.717z"/>
				</g>
				<g>
					<path style="fill:#1D1D1B;" d="M793.997,1513.396c-2.147,0-3.899-0.381-5.22-1.095c-6.353-3.432-21.602-30.968-22.248-32.139
						c-32.57-51.095-38.728-116.008-38.786-116.658l1.192-0.107c0.058,0.647,6.194,65.279,38.623,116.155
						c0.176,0.315,15.743,28.429,21.789,31.697c5.861,3.161,22.203-1.234,44.217-18.39c21.713-16.923,56.156-58.3,56.502-58.716
						l0.921,0.764c-0.346,0.417-34.871,41.893-56.687,58.896C816.392,1507.759,802.266,1513.396,793.997,1513.396z"/>
				</g>
				<g>
					<polygon style="fill:#1D1D1B;" points="807.251,1457.373 806.102,1457.043 811.126,1439.495 789.116,1352.065 
						790.276,1351.773 812.364,1439.517 					"/>
				</g>
				<g>
					
						<rect x="801.057" y="1410.686" transform="matrix(0.7497 -0.6618 0.6618 0.7497 -722.7991 911.591)" style="fill:#1D1D1B;" width="85.204" height="1.196"/>
				</g>
				<g>
					<path style="fill:#1D1D1B;" d="M706.764,1527.378c-17.125,0-35.103-10.762-53.481-32.028
						c-16.672-19.291-45.001-25.743-45.285-25.807l0.258-1.168c0.288,0.064,28.996,6.596,45.932,26.192
						c18.77,21.721,37.073,32.348,54.323,31.576c0.955-4.906,9.283-47.31,14.885-63.02l1.127,0.402
						c-5.89,16.516-14.837,62.839-14.927,63.305l-0.088,0.458l-0.466,0.026C708.286,1527.357,707.524,1527.378,706.764,1527.378z"/>
				</g>
				<g>
					<path style="fill:#7FC6A6;" d="M357.149,1832.079l22.255,59.54c0.866,2.285,3.054,3.797,5.498,3.797h34.499
						c0.981,0,1.903,0.512,2.376,1.371c0.232,0.422,0.452,0.927,0.588,1.493c0.448,1.852-0.765,3.374-2.67,3.374h-38.389
						c-2.88,0-5.446-1.819-6.4-4.536l-22.049-63.89c-0.318-0.922-0.062-2.001,0.743-2.551c0.335-0.229,0.77-0.378,1.329-0.345
						C355.943,1830.391,356.79,1831.131,357.149,1832.079z"/>
				</g>
				<g>
					<path style="fill:#1D1D1B;" d="M419.695,1901.953v-0.598c0.832,0,1.539-0.314,1.988-0.885c0.446-0.567,0.585-1.319,0.391-2.119
						c-0.115-0.475-0.303-0.952-0.56-1.419c-0.413-0.75-1.223-1.216-2.113-1.216h-34.499c-2.553,0-4.875-1.603-5.778-3.989
						l-22.256-59.542c-0.338-0.894-1.106-1.505-1.956-1.554c-0.436-0.036-0.821,0.073-1.143,0.292
						c-0.663,0.453-0.922,1.361-0.63,2.207l-0.565,0.196c-0.38-1.1-0.028-2.292,0.857-2.896c0.434-0.298,0.945-0.422,1.515-0.397
						c1.085,0.064,2.059,0.826,2.481,1.941l22.256,59.542c0.815,2.154,2.912,3.602,5.218,3.602h34.499
						c1.109,0,2.119,0.585,2.638,1.527c0.281,0.513,0.49,1.04,0.617,1.567c0.237,0.981,0.059,1.915-0.503,2.629
						C421.588,1901.557,420.715,1901.953,419.695,1901.953z"/>
				</g>
				<g>
					<path style="fill:#3AA1C9;" d="M376.697,1830.947l3.263-5.848l2.228,2.58l1.612,3.782l0.997,1.994l0.781,3.589l0.881,4.619
						l-0.1,2.409l-2.991,1.711c0,0-1.08-2.742-1.147-2.808C382.155,1842.91,376.697,1830.947,376.697,1830.947z"/>
				</g>
				<g>
					<path style="fill:#FE9F73;" d="M386.458,1843.425l0.89,5.289c0,0,1.525,3.585,3.28,4.648l2.318,1.338l4.301,1.455l4.014,0.502
						l0.177-2.115L386.458,1843.425z"/>
				</g>
				<g>
					<path style="fill:#1D1D1B;" d="M422.237,1887.182c-3.987-4.381-23.518-9.522-23.714-9.573l0.151-0.58
						c0.811,0.213,19.9,5.239,24.006,9.751L422.237,1887.182z"/>
				</g>
				<g>
					<path style="fill:#1D1D1B;" d="M392.477,1882.105l-0.35-0.486l6.197-4.471l3.324-20.14l-0.301-0.039
						c-6.048-0.79-14.33-1.87-15.135-12.338c-1.202-15.626-6.392-19.488-6.444-19.526l0.344-0.49
						c0.223,0.157,5.469,4.007,6.696,19.969c0.768,9.984,8.446,10.987,14.616,11.792l0.915,0.12l-3.464,20.993L392.477,1882.105z"/>
				</g>
			</g>
		</g>
	</g>
	<g>
		<g>
			<g>
				<g>
					<g>
						<path style="fill:#FD7583;" d="M3418.245,1337.751c-14.543-35.104-34.529-66.999-58.832-94.793l38.983-82.721l-50.798-36.46
							l-50.798-36.461l-65.899,63.401c-34.11-14.132-70.724-22.862-108.635-25.408l-30.932-86.069l-61.701,10.138l-61.701,10.138
							l-1.766,91.442c-35.104,14.542-67,34.529-94.794,58.832l-82.722-38.983l-36.46,50.798l-36.461,50.798l63.402,65.9
							c-14.133,34.109-22.862,70.722-25.408,108.634l-86.071,30.933l10.138,61.701l10.138,61.701l91.443,1.767
							c14.542,35.104,34.529,66.999,58.832,94.792l-38.982,82.722l50.798,36.46l50.797,36.461l65.9-63.401
							c34.109,14.132,70.723,22.862,108.634,25.408l30.932,86.07l61.701-10.138l61.701-10.138l1.766-91.442
							c35.104-14.543,67-34.529,94.793-58.832l82.721,38.983l36.461-50.798l36.461-50.798l-63.401-65.9
							c14.132-34.109,22.862-70.722,25.408-108.634l86.069-30.932l-10.138-61.701l-10.138-61.701L3418.245,1337.751z
							 M3136.841,1701.872c-127.842,21.005-248.506-65.603-269.511-193.445c-21.005-127.842,65.604-248.506,193.446-269.512
							c127.842-21.005,248.506,65.603,269.511,193.445S3264.683,1680.867,3136.841,1701.872z"/>
					</g>
				</g>
			</g>
		</g>
		<g>
			<g>
				<path style="fill:#FE9F73;" d="M2270.987,1857.595l28.397-30.722c0,0-25.866-7.663-26.891-7.407
					c-1.024,0.256-23.135,7.641-23.135,7.641s-6.061,10.799-5.805,15.153c0.256,4.354,2.561,14.598,7.171,17.415
					s5.378,4.866,9.476,3.329S2270.987,1857.595,2270.987,1857.595z"/>
			</g>
			<g>
				<g>
					<g>
						<g>
							<g>
								<g>
									<g>
										<g>
											<g>
												<g>
													<g>
														<g>
															<g>
																<polygon style="fill:#FE9F73;" points="2506.725,1889.279 2469.601,1889.407 2469.48,1879.058 2484.08,1840.675 
																	2527.19,1845.524 																"/>
															</g>
														</g>
													</g>
												</g>
											</g>
										</g>
									</g>
								</g>
							</g>
						</g>
					</g>
				</g>
			</g>
			<g>
				<g>
					<g>
						<g>
							<g>
								<path style="fill:#7FC6A6;" d="M2469.146,1892.332h40.494l16.418-17.884l30.029,17.884h6.468
									c2.229,0,4.272,1.507,4.692,3.696c0.565,2.945-1.677,5.521-4.521,5.521h-94.157c-0.692,0-1.253-0.561-1.253-1.253v-6.134
									C2467.316,1893.151,2468.135,1892.332,2469.146,1892.332z"/>
							</g>
						</g>
					</g>
				</g>
				<g>
					<g>
						<g>
							<g>
								<path style="fill:#3AA1C9;" d="M2469.504,1892.384v-16.623c0,0,6.82-9.18,17.203-4.494c0,0,15.705,11.142,29.55-2.341
									l34.381,15.251c0,0,9.427,3.151,11.979,8.207H2469.504z"/>
							</g>
						</g>
					</g>
				</g>
				<g>
					<g>
						<g>
							<g>
								<g>
									<g>
										<rect x="2469.159" y="1875.761" width="0.689" height="16.54"/>
									</g>
								</g>
							</g>
						</g>
					</g>
				</g>
				<g>
					<g>
						<g>
							<g>
								<g>
									<g>
										<path d="M2500.783,1875.942c1.316,0,2.109-0.112,2.135-0.116l-0.102-0.681c-0.08,0.011-8.196,1.149-15.913-4.162
											l-0.391,0.568C2492.041,1875.356,2497.776,1875.942,2500.783,1875.942z"/>
									</g>
								</g>
							</g>
						</g>
					</g>
				</g>
				<g>
					<g>
						<g>
							<g>
								<g>
									<g>
										
											<rect x="2475.523" y="1884.864" transform="matrix(0.5583 -0.8297 0.8297 0.5583 -472.3324 2887.8813)" width="0.69" height="5.297"/>
									</g>
								</g>
							</g>
						</g>
					</g>
				</g>
				<g>
					<g>
						<g>
							<g>
								<g>
									<g>
										
											<rect x="2478.673" y="1884.027" transform="matrix(0.5591 -0.8291 0.8291 0.5591 -471.2238 2887.2473)" width="0.689" height="5.296"/>
									</g>
								</g>
							</g>
						</g>
					</g>
				</g>
				<g>
					<g>
						<g>
							<g>
								<g>
									<g>
										<g>
											<g>
												<g>
													<g>
														<g>
															<g>
																<path d="M2565.929,1900.748c1.112-0.943,1.75-2.32,1.75-3.777c0-2.731-2.222-4.953-4.953-4.953h-93.099
																	c-1.464,0-2.655,1.191-2.655,2.656v4.595h0.689v-4.595c0-1.085,0.882-1.966,1.966-1.966h93.099
																	c2.351,0,4.264,1.912,4.264,4.264c0,1.254-0.549,2.44-1.506,3.252L2565.929,1900.748z"/>
															</g>
														</g>
													</g>
												</g>
											</g>
										</g>
									</g>
								</g>
							</g>
						</g>
					</g>
				</g>
				<g>
					<g>
						<g>
							<g>
								<g>
									<g>
										<path d="M2562.413,1892.51l0.624-0.294c-0.077-0.164-1.963-4.028-9-7.029c-6.916-2.949-37.333-16.44-37.639-16.576
											l-0.28,0.63c0.307,0.136,30.729,13.629,37.648,16.58C2560.537,1888.709,2562.396,1892.472,2562.413,1892.51z"/>
									</g>
								</g>
							</g>
						</g>
					</g>
				</g>
			</g>
			<g>
				<path style="fill:#3D1F35;" d="M2462.033,1590.311c0,0,64.692,56.491,118.474,70.833l-104.086,181.388
					c0,0,21.687,23.23,57.709,23.23c0,0,142.345-207.456,142.393-231.716c0.035-17.371-123.02-98.617-123.02-98.617l-91.47,26.425
					V1590.311z"/>
			</g>
			<g>
				<path style="fill:#49263E;" d="M2242.413,1820.003l203.267-343.522l60.125-3.782l55.229,62.73c0,0-23.376,33.539-60.98,68.095
					c-37.604,34.555-81.307,65.554-127.55,136.697c-46.243,71.144-74.701,112.813-74.701,112.813
					S2264.772,1839.821,2242.413,1820.003z"/>
			</g>
			<g>
				<path style="fill:#3AA1C9;" d="M2289.084,1894.844h-38.473l-22.453-59.287c-1.123-2.964,0.835-6.196,3.982-6.573l17.601-2.111
					c0,0,1.837,25.016,21.245,30.722l-3.27,19.812c9.258,3.524,11.62,2.846,21.367,7.996
					C2294.507,1888.268,2289.084,1894.844,2289.084,1894.844z"/>
			</g>
			<g>
				<path style="fill:#7FC6A6;" d="M2227.787,1833.826l21.439,57.358c0.834,2.201,2.943,3.657,5.297,3.657h33.234
					c0.945,0,1.833,0.493,2.289,1.321c0.224,0.407,0.435,0.893,0.567,1.438c0.431,1.784-0.737,3.25-2.573,3.25h-36.981
					c-2.774,0-5.247-1.752-6.166-4.37l-21.24-61.548c-0.306-0.888-0.06-1.928,0.716-2.458c0.323-0.221,0.741-0.364,1.28-0.332
					C2226.625,1832.2,2227.441,1832.912,2227.787,1833.826z"/>
			</g>
			<g>
				<path style="fill:#1D1D1B;" d="M2288.04,1901.26v-0.819c0.764,0,1.41-0.287,1.82-0.806c0.406-0.516,0.532-1.204,0.355-1.938
					c-0.109-0.447-0.286-0.897-0.528-1.336c-0.375-0.685-1.115-1.109-1.929-1.109h-33.234c-2.509,0-4.791-1.576-5.679-3.922
					l-21.44-57.361c-0.309-0.815-1.008-1.373-1.778-1.417c-0.399-0.023-0.739,0.064-1.025,0.261
					c-0.584,0.399-0.82,1.234-0.561,1.987l-0.774,0.267c-0.383-1.112-0.024-2.318,0.873-2.93c0.439-0.301,0.948-0.447,1.536-0.402
					c1.091,0.063,2.072,0.827,2.497,1.946l21.44,57.361c0.768,2.027,2.742,3.391,4.913,3.391h33.234
					c1.114,0,2.128,0.588,2.648,1.534c0.276,0.503,0.479,1.021,0.605,1.538c0.238,0.983,0.058,1.92-0.507,2.638
					C2289.935,1900.862,2289.061,1901.26,2288.04,1901.26z"/>
			</g>
			<g>
				<path style="fill:#3AA1C9;" d="M2246.619,1832.735l3.143-5.633l2.146,2.486l1.553,3.643l0.96,1.921l0.752,3.458l0.848,4.45
					l-0.096,2.321l-2.881,1.649c0,0-1.04-2.641-1.104-2.705C2251.876,1844.26,2246.619,1832.735,2246.619,1832.735z"/>
			</g>
			<g>
				<path style="fill:#FE9F73;" d="M2256.022,1844.756l0.858,5.095c0,0,1.469,3.454,3.16,4.477l2.233,1.289l4.143,1.402l3.867,0.483
					l0.17-2.038L2256.022,1844.756z"/>
			</g>
			<g>
				<path style="fill:#1D1D1B;" d="M2290.399,1886.989c-3.816-4.193-22.597-9.136-22.786-9.185l0.207-0.794
					c0.783,0.205,19.206,5.055,23.185,9.428L2290.399,1886.989z"/>
			</g>
			<g>
				<path style="fill:#1D1D1B;" d="M2261.891,1882.116l-0.48-0.663l5.929-4.279l3.173-19.228l-0.167-0.022
					c-5.866-0.766-13.9-1.815-14.683-11.998c-1.151-14.972-6.107-18.683-6.157-18.719l0.471-0.669
					c0.217,0.151,5.317,3.893,6.503,19.326c0.732,9.519,8.073,10.478,13.972,11.248l1.008,0.132l-3.366,20.397L2261.891,1882.116z"
					/>
			</g>
			<g>
				<g>
					<g>
						<g>
							<g>
								<g>
									<path style="fill:#FE9F73;" d="M2583.055,1163.356c-13.054-9.521-31.657-7.598-31.657-7.598s-8.563,6.948-9.449,7.795
										c-0.886,0.846,7.27-0.326,7.27-0.326l39.08,33.096l2.696-8.743C2593.752,1178.639,2590.614,1168.869,2583.055,1163.356z"/>
								</g>
							</g>
						</g>
					</g>
				</g>
				<g>
					<g>
						<g>
							<g>
								<g>
									<g>
										<g>
											<g>
												<path style="fill:#FE9F73;" d="M2533.104,1202.34l-3.175,11.722c0,0-10.571,22.588-10.996,27.866
													c-0.426,5.279,3.664,17.359,16.838,21.421c4.154,1.281,8.035,1.7,11.403,1.675c6.887-0.052,7.298,15.586,8.512,8.806
													l8.692-38.929c12.035,1.907,15.548-11.436,15.548-11.436l11.368-36.871l-42.835-28.733L2533.104,1202.34z"/>
											</g>
										</g>
									</g>
								</g>
							</g>
						</g>
					</g>
				</g>
				<g>
					<g>
						<g>
							<g>
								<g>
									<g>
										<g>
											<g>
												<path style="fill:#4C222E;" d="M2555.235,1193.187c-0.245,0.202-0.279,0.564-0.077,0.808
													c0.098,0.119,0.235,0.189,0.377,0.205c0.15,0.017,0.306-0.024,0.432-0.128c0.326-0.269,8.059-6.514,13.818-0.655
													c0.223,0.227,0.586,0.23,0.812,0.007c0.226-0.222,0.229-0.586,0.007-0.812
													C2564.105,1186,2555.323,1193.114,2555.235,1193.187z"/>
											</g>
										</g>
									</g>
								</g>
							</g>
						</g>
					</g>
				</g>
				<g>
					<g>
						<g>
							<g>
								<g>
									<g>
										<g>
											<g>
												<path style="fill:#4C222E;" d="M2581.69,1193.636c-0.317-0.006-0.579,0.246-0.586,0.563
													c-0.004,0.173,0.07,0.331,0.189,0.438c0.099,0.089,0.229,0.145,0.373,0.148c0.065,0.001,6.523,0.178,6.978,3.724
													c0.04,0.315,0.328,0.538,0.643,0.497c0.315-0.04,0.537-0.328,0.496-0.643
													C2589.204,1193.836,2581.997,1193.642,2581.69,1193.636z"/>
											</g>
										</g>
									</g>
								</g>
							</g>
						</g>
					</g>
				</g>
				<g>
					<g>
						<g>
							<g>
								<g>
									<g>
										<g>
											<g>
												<path d="M2563.405,1197.659c-0.91-0.28-1.874,0.229-2.154,1.139c-0.281,0.91,0.229,1.874,1.139,2.155
													c0.909,0.28,1.874-0.229,2.154-1.139C2564.824,1198.904,2564.314,1197.94,2563.405,1197.659z"/>
											</g>
										</g>
									</g>
								</g>
							</g>
						</g>
					</g>
				</g>
				<g>
					<g>
						<g>
							<g>
								<g>
									<g>
										<g>
											<g>
												<path d="M2581.417,1201.41c-0.909-0.281-1.874,0.229-2.154,1.139s0.229,1.874,1.139,2.154
													c0.909,0.281,1.874-0.229,2.155-1.139C2582.836,1202.655,2582.326,1201.69,2581.417,1201.41z"/>
											</g>
										</g>
									</g>
								</g>
							</g>
						</g>
					</g>
				</g>
				<g>
					<g>
						<g>
							<g>
								<g>
									<g>
										<g>
											<g>
												<path style="fill:#33192C;" d="M2551.575,1155.183c0,0-13.738-4.969-21.036,6.138
													c-7.298,11.107-3.258,19.415-4.257,23.089c-1,3.674-11.025,27.432,6.751,30.909l17.135-39.064l-1.019-17.97
													L2551.575,1155.183z"/>
											</g>
										</g>
									</g>
								</g>
							</g>
						</g>
					</g>
				</g>
				<g>
					<g>
						<g>
							<g>
								<g>
									<g>
										<g>
											<g>
												<path style="fill:#FE9F73;" d="M2544.285,1182.122c-5.457-1.682-11.244,1.377-12.927,6.834
													c-1.683,5.457,1.377,11.244,6.834,12.927c5.457,1.683,11.244-1.377,12.927-6.834
													C2552.802,1189.592,2549.742,1183.804,2544.285,1182.122z"/>
											</g>
										</g>
									</g>
								</g>
							</g>
						</g>
					</g>
				</g>
				<g>
					<g>
						<g>
							<g>
								<g>
									<g>
										<g>
											<g>
												<path style="fill:#F07162;" d="M2542.965,1187.85c-1.794-1.851-4.602-1.81-4.721-1.807
													c-0.158,0.004-0.284,0.135-0.28,0.293c0.003,0.159,0.135,0.285,0.293,0.281c0.027-0.001,2.682-0.037,4.298,1.635
													c0.747,0.772,1.164,1.795,1.245,3.048c-0.81-0.982-2.525-2.465-5.132-1.781c-1.764,0.463-2.922,2.046-2.951,4.034
													c-0.024,1.681,0.871,3.646,2.924,4.279c0.019,0.006,0.039,0.011,0.058,0.017c0.152,0.045,0.312-0.043,0.356-0.195
													c0.044-0.152-0.042-0.309-0.191-0.355c-0.02-0.007-0.038-0.011-0.057-0.017c-1.887-0.582-2.536-2.363-2.516-3.721
													c0.019-1.308,0.69-3.006,2.522-3.486c3.308-0.867,4.954,2.142,5.022,2.271l0.484,0.91l0.056-1.03
													C2544.476,1190.391,2544.001,1188.918,2542.965,1187.85z"/>
											</g>
										</g>
									</g>
								</g>
							</g>
						</g>
					</g>
				</g>
				<g>
					<g>
						<g>
							<g>
								<g>
									<g>
										<g>
											<g>
												<path style="fill:#F07162;" d="M2541.105,1215.47c0,0-6.906,23.568,19.983,34.164l3.29-14.733
													C2564.378,1234.902,2545.412,1232.983,2541.105,1215.47z"/>
											</g>
										</g>
									</g>
								</g>
							</g>
						</g>
					</g>
				</g>
				<g>
					<g>
						<g>
							<g>
								<g>
									<g>
										<g>
											<g>
												<path style="fill:#F07162;" d="M2575.654,1198.308c-0.156-0.027-0.304,0.079-0.331,0.236l-2.254,13.484l-6.063,0.123
													c-0.158,0.003-0.285,0.134-0.281,0.293c0.003,0.127,0.087,0.233,0.202,0.269c0.029,0.009,0.059,0.014,0.091,0.013
													l6.539-0.132l2.333-13.954C2575.916,1198.483,2575.813,1198.331,2575.654,1198.308z"/>
											</g>
										</g>
									</g>
								</g>
							</g>
						</g>
					</g>
				</g>
				<g>
					<g>
						<g>
							<g>
								<g>
									<g>
										<polygon style="fill:#FE9F73;" points="2528.575,1217.004 2534.939,1219.552 2540.677,1200.94 2536.22,1199.006 
																					"/>
									</g>
								</g>
							</g>
						</g>
					</g>
				</g>
				<g>
					<g>
						<g>
							<g>
								<g>
									<path style="fill:#33192C;" d="M2594.164,1165.916c0,0,6.156-13.399-7.796-13.168c-13.952,0.231-37.267-7.551-47.491,2.16
										c-10.225,9.711,11.114,21.923,11.114,21.923s42.725,10.451,48.343,1.419
										C2603.952,1169.217,2594.164,1165.916,2594.164,1165.916z"/>
								</g>
							</g>
						</g>
					</g>
				</g>
				<g>
					<g>
						<g>
							<g>
								<path style="fill:#33192C;" d="M2549.801,1168.647c-0.515,0.086-10.298,1.798-9.122,1.954
									c1.177,0.156,9.316,3.361,9.316,3.361l-2.795,9.058c0,0,1.868,6.412-1.385,12.822c0,0,2.276,1.735,3.377-0.249
									c1.1-1.983,2.964-17.543,8.925-18.639C2564.078,1175.86,2550.317,1168.561,2549.801,1168.647z"/>
							</g>
						</g>
					</g>
				</g>
				<g>
					<g>
						<g>
							<g>
								<g>
									<g>
										<path style="fill:#FBFDFC;" d="M2562.225,1214.682c0.168,0.026,10.203,3.363,10.203,3.363s-2.726,3.667-6.459,2.437
											S2562.225,1214.682,2562.225,1214.682z"/>
									</g>
								</g>
							</g>
						</g>
					</g>
				</g>
			</g>
			<g>
				<g>
					<g>
						<g>
							<path style="fill:#FE9F73;" d="M2758.009,1400.139c8.073-4.517,21.68-13.318,26.022-17.721
								c0.006-0.004,0.006-0.004,0.009-0.014c0.416-0.411,0.744-0.795,0.974-1.128c0.012-0.008,0.028-0.026,0.036-0.04
								c0.061-0.098,0.116-0.193,0.162-0.273c0.854-1.549,2.01-3.17,3.372-4.796c3.53-5.683,6.452-12.043,7.967-13.59
								c1.4-1.429,5.449-2.233,8.073-2.62c2.185-0.322,3.967-2.079,4.103-4.284c0.079-1.281-0.373-2.662-2.021-3.804
								c0,0,3.613-5.039-1.249-7.529c0,0,4.034-5.498-4.494-7.471c0,0,0.661-3.713-3.174-5.21
								c-3.839-1.503-13.452-0.962-15.008-0.344c-1.558,0.628-20.444,13.452-20.444,13.452s-19.99,19.856-21.303,20.671
								L2758.009,1400.139z"/>
						</g>
					</g>
				</g>
				<g>
					<g>
						<g>
							<g>
								<g>
									<g>
										<path style="fill:#F07162;" d="M2779.993,1342.233c0.128,0.021,0.265-0.004,0.383-0.081
											c0.048-0.031,4.799-3.103,6.84-3.681c1.647-0.466,9.724-0.903,13.764-1.069c0.296-0.012,0.528-0.259,0.519-0.551
											c-0.009-0.292-0.259-0.519-0.552-0.507c-0.482,0.02-11.834,0.491-14.015,1.109c-2.198,0.622-6.936,3.685-7.136,3.815
											c-0.249,0.161-0.32,0.49-0.16,0.733C2779.72,1342.13,2779.852,1342.21,2779.993,1342.233z"/>
									</g>
								</g>
							</g>
						</g>
					</g>
				</g>
				<g>
					<g>
						<g>
							<g>
								<g>
									<g>
										<path style="fill:#F07162;" d="M2786.013,1350.64c0.132,0.021,0.273-0.006,0.393-0.087
											c0.038-0.025,3.753-2.544,6.291-3.461c2.548-0.921,12.723-2.21,12.826-2.223c0.294-0.037,0.504-0.302,0.469-0.592
											c-0.034-0.29-0.301-0.494-0.594-0.458c-0.423,0.053-10.399,1.317-13.06,2.279c-2.668,0.965-6.377,3.479-6.534,3.585
											c-0.245,0.167-0.309,0.496-0.143,0.737C2785.747,1350.542,2785.875,1350.617,2786.013,1350.64z"/>
									</g>
								</g>
							</g>
						</g>
					</g>
				</g>
				<g>
					<g>
						<g>
							<g>
								<g>
									<g>
										<path style="fill:#F07162;" d="M2789.892,1357.213c0.139,0.023,0.288-0.009,0.41-0.1c0.024-0.018,2.445-1.8,4.997-2.816
											c2.551-1.015,11.364-1.893,11.452-1.902c0.295-0.029,0.512-0.288,0.486-0.579c-0.027-0.291-0.288-0.504-0.581-0.474
											c-0.369,0.036-9.055,0.902-11.749,1.974c-2.687,1.069-5.14,2.876-5.242,2.952c-0.238,0.176-0.289,0.508-0.112,0.741
											C2789.638,1357.123,2789.761,1357.192,2789.892,1357.213z"/>
									</g>
								</g>
							</g>
						</g>
					</g>
				</g>
			</g>
			<g>
				<path style="fill:#7FC6A6;" d="M2580.467,1544.761c-50.665,15.727-66.742-20.795-109.74-23.973
					c-14.875-1.103-56.738,1.092-56.738,1.092s69.166-264.651,101.199-282.781c0,0,22.062-12.56,41.873,14.875
					c7.754,10.736,20.554,32.339,33.267,54.641c-9.436,48.961-17.467,89.85-7.791,104.103c-1.78,3.833-7.456,39.778-9.313,44.703
					C2567.448,1472.787,2580.467,1544.761,2580.467,1544.761z"/>
			</g>
			<g>
				<path style="fill:#1D1D1B;" d="M2560.02,1549.253c-15.606,0.001-33.746-5.79-54.206-17.334
					c-26.374-14.883-60.619-10.736-60.961-10.691l-0.139-1.084c0.348-0.044,34.94-4.24,61.637,10.823
					c29.745,16.783,54.475,21.311,73.516,13.45c-0.799-5.202-8.594-56.469-8.631-76.382l1.092-0.002
					c0.039,20.8,8.596,76.083,8.683,76.639l0.065,0.421l-0.392,0.165C2574.395,1547.923,2567.498,1549.253,2560.02,1549.253z"/>
			</g>
			<g>
				<path style="fill:#7FC6A6;" d="M2575.246,1281.467l52.541,83.01l130.41-17.474l3.075,53.272c0,0-130.873,50.092-166.33,33.007
					c-35.457-17.085-92.783-110.177-92.783-110.177L2575.246,1281.467z"/>
			</g>
			<g>
				<path style="fill:#1D1D1B;" d="M2616.007,1437.412c-8.671,0-16.009-1.088-21.301-3.638
					c-35.194-16.958-92.438-109.449-93.011-110.382l0.93-0.572c0.573,0.929,57.647,93.15,92.555,109.971
					c34.834,16.783,164.591-32.526,165.898-33.026l0.39,1.02C2756.919,1402.526,2665.111,1437.412,2616.007,1437.412z"/>
			</g>
			<g>
				<polygon style="fill:#1D1D1B;" points="2627.514,1365.064 2573.332,1280.503 2574.251,1279.915 2628.058,1363.889 
					2739.542,1348.952 2739.687,1350.033 				"/>
			</g>
		</g>
	</g>
	<g>
		<g>
			<g>
				<g>
					<path style="fill:#49263E;" d="M1873.858,1126.461c0,0,1.288-19.861-23.48-27.008s-19.04,18.318-25.778,23.354
						c-6.738,5.036-21.409,7.331-21.269,23.329c0.141,15.998,8.34,25.8,4.803,33.866c-5.905,13.465-21.502,43.802,8.215,76.804
						c19.514,21.671,62.972,39.036,62.972,39.036s59.157-80.655,56.189-109.529c-2.968-28.874-16.995-36.621-33.152-40.727
						C1892.43,1143.063,1874.878,1144.437,1873.858,1126.461z"/>
				</g>
			</g>
			<g>
				<g>
					<path style="fill:#FE9F73;" d="M1866.441,1138.607c0,0,21.943,32.836,19.705,43.469c0,0-0.936,5.54-7.823,8.947l10.438,22.102
						l-31.19,14.73l-34.245-72.512L1866.441,1138.607z"/>
				</g>
			</g>
			<g>
				<g>
					<path style="fill:#F07162;" d="M1869.35,1171.151c-0.131,0.062-0.292,0.027-0.384-0.094c-0.105-0.138-0.079-0.335,0.059-0.44
						c1.645-1.256,1.734-4.054,1.719-4.947c-3.254-0.16-5.692-1.216-7.249-3.141c-2.537-3.137-1.804-7.403-1.771-7.583
						c0.031-0.171,0.194-0.284,0.365-0.254c0.171,0.031,0.284,0.194,0.254,0.365c-0.007,0.042-0.712,4.17,1.645,7.08
						c1.483,1.832,3.862,2.812,7.07,2.916l0.282,0.009l0.021,0.282c0.012,0.166,0.275,4.07-1.954,5.772
						C1869.389,1171.13,1869.37,1171.142,1869.35,1171.151z"/>
				</g>
			</g>
			<g>
				<g>
					<path style="fill:#49263E;" d="M1844.862,1164.394c-0.142,0.067-0.308,0.081-0.469,0.027c-0.329-0.111-0.506-0.466-0.396-0.795
						c0.038-0.109,3.803-10.999,12.997-8.779c0.337,0.081,0.545,0.421,0.463,0.758c-0.082,0.337-0.421,0.545-0.759,0.464
						c-8.07-1.946-11.374,7.552-11.51,7.958C1845.132,1164.194,1845.011,1164.323,1844.862,1164.394z"/>
				</g>
			</g>
			<g>
				<g>
					<path style="fill:#49263E;" d="M1864.028,1153.824c-0.159,0.075-0.349,0.083-0.523,0.006c-0.317-0.14-0.461-0.51-0.322-0.828
						c0.126-0.286,3.142-7.004,7.65-5.766c0.335,0.092,0.532,0.437,0.44,0.772c-0.091,0.336-0.437,0.533-0.772,0.44
						c-3.463-0.948-6.14,5.001-6.167,5.062C1864.271,1153.654,1864.16,1153.762,1864.028,1153.824z"/>
				</g>
			</g>
			<g>
				<g>
					<path d="M1856.759,1162.351c0.413,0.874,0.039,1.918-0.835,2.331c-0.874,0.413-1.918,0.039-2.331-0.835
						c-0.413-0.874-0.039-1.918,0.835-2.331C1855.303,1161.103,1856.347,1161.477,1856.759,1162.351z"/>
				</g>
			</g>
			<g>
				<g>
					<path style="fill:#FE9F73;" d="M1841.659,1178.063c2.315,4.902,0.218,10.751-4.684,13.066
						c-4.901,2.315-10.751,0.218-13.066-4.684c-2.315-4.902-0.218-10.752,4.683-13.066
						C1833.494,1171.064,1839.344,1173.161,1841.659,1178.063z"/>
				</g>
			</g>
			<g>
				<g>
					<path style="fill:#F07162;" d="M1834.714,1188.041c-1.863,0.88-3.768,0.068-4.838-1.137c-1.266-1.426-1.469-3.297-0.519-4.767
						c1.354-2.093,3.423-2.22,4.65-2.073c-0.828-0.764-1.736-1.181-2.708-1.24c-2.189-0.133-4.005,1.577-4.024,1.595
						c-0.126,0.12-0.325,0.115-0.444-0.01c-0.12-0.125-0.115-0.324,0.01-0.445c0.082-0.079,2.035-1.918,4.496-1.768
						c1.422,0.087,2.708,0.82,3.821,2.179l0.714,0.872l-1.063-0.376c-0.129-0.046-3.181-1.09-4.925,1.607
						c-0.964,1.49-0.354,3.09,0.461,4.008c0.855,0.963,2.449,1.79,4.144,0.964c0.152-0.077,0.344-0.012,0.421,0.144
						c0.076,0.156,0.012,0.344-0.144,0.42C1834.749,1188.024,1834.731,1188.032,1834.714,1188.041z"/>
				</g>
			</g>
			<g>
				<g>
					<path style="fill:#FE9F73;" d="M1866.441,1138.607c0,0-9.15-12.385-28.138-5.258c-18.988,7.128-14.976,21.993-14.976,21.993
						l22.855-5.619l18.868-10.576L1866.441,1138.607z"/>
				</g>
			</g>
			<g>
				<g>
					<path style="fill:#49263E;" d="M1860.976,1127.035c0,0-6.11,16.498-22.054,20.942c0,0,3.588,20.343-7.479,24.552
						c-11.067,4.209-17.046-23.496-17.046-23.496s16.116-17.552,17.379-18.148c1.263-0.597,21.836-11.857,21.836-11.857
						L1860.976,1127.035z"/>
				</g>
			</g>
			<g>
				<g>
					<path style="fill:#FBFDFC;" d="M1874.011,1173.759c-0.189,0.014-11.643,2.844-11.643,2.844s2.71,4.318,6.97,3.277
						C1873.598,1178.84,1874.011,1173.759,1874.011,1173.759z"/>
				</g>
			</g>
		</g>
		<g>
			<path style="fill:#E54A67;" d="M1880.184,1051.473c0,0,43.217,73.048,43.727,77.863c0.51,4.815-32.236,78.715-32.301,94.031
				c-0.057,13.466,11.457,55.178,50.279,35.152c36.749-18.956,38.839-132.012,32.495-145.948
				c-6.344-13.935-45.795-71.745-60.069-79.223L1880.184,1051.473z"/>
		</g>
		<g>
			<path style="fill:#1D1D1B;" d="M1957.287,1243.625l-1.012-0.648c21.975-34.381,20.306-111.054,20.286-111.825l1.202-0.03
				C1977.783,1131.897,1979.46,1208.934,1957.287,1243.625z"/>
		</g>
		<g>
			<path style="fill:#FE9F73;" d="M2003.643,1564.349c0,0,18.042,98.755,20.416,164.275c2.374,65.52,2.849,153.447,2.849,153.447
				h-38.241c0,0-28.791-146.223-36.862-175.185c-8.071-28.962-31.895-167.225-31.895-167.225L2003.643,1564.349z"/>
		</g>
		<g>
			<path style="fill:#3AA1C9;" d="M1978.954,1437.582c0,0,76.867,364.771,82.564,400.38c0,0-56.237,35.844-96.631,22.624
				l-73.422-372.264L1978.954,1437.582z"/>
		</g>
		<g>
			<g>
				<path d="M1872.612,1155.16c0.413,0.874,0.039,1.918-0.835,2.33c-0.874,0.413-1.918,0.039-2.331-0.835
					c-0.413-0.874-0.039-1.918,0.835-2.331C1871.156,1153.911,1872.2,1154.285,1872.612,1155.16z"/>
			</g>
		</g>
		<g>
			<path style="fill:#FE9F73;" d="M1832.333,1545.595c0,0-20.977,118.221-33.084,163.088
				c-12.107,44.867-32.76,139.586-37.033,153.83h39.882c0,0,24.214-51.989,44.155-94.719
				c19.941-42.73,66.944-148.844,73.354-194.424C1926.016,1527.791,1828.384,1546.307,1832.333,1545.595z"/>
		</g>
		<g>
			<g>
				<g>
					<g>
						<g>
							<g>
								<g>
									<g>
										<g>
											<g>
												<g>
													<g>
														<g>
															<g>
																<g>
																	<polygon style="fill:#FE9F73;" points="1796.787,1885.044 1757.175,1875.988 1769.629,1832.262 1836.672,1788.329 
																																			"/>
																</g>
															</g>
														</g>
													</g>
												</g>
											</g>
										</g>
									</g>
								</g>
							</g>
						</g>
					</g>
				</g>
			</g>
		</g>
		<g>
			<g>
				<g>
					<g>
						<g>
							<g>
								<g>
									<g>
										<g>
											<g>
												<g>
													<g>
														<g>
															<path style="fill:#FC4F68;" d="M1849.655,1894.922h-92.821v-18.934c0,0,6.752-9.088,17.032-4.449
																c0,0,15.548,11.03,29.255-2.318l34.037,15.098C1837.157,1884.319,1849.655,1888.484,1849.655,1894.922z"/>
														</g>
													</g>
												</g>
											</g>
										</g>
									</g>
								</g>
							</g>
						</g>
					</g>
				</g>
			</g>
			<g>
				<g>
					<g>
						<g>
							<g>
								<g>
									<rect x="1756.492" y="1875.988" width="0.683" height="16.082"/>
								</g>
							</g>
						</g>
					</g>
				</g>
			</g>
			<g>
				<g>
					<g>
						<g>
							<g>
								<g>
									<path d="M1787.8,1876.167c1.303,0,2.088-0.111,2.113-0.115l-0.101-0.674c-0.079,0.011-8.114,1.137-15.754-4.12
										l-0.387,0.563C1779.146,1875.586,1784.823,1876.167,1787.8,1876.167z"/>
								</g>
							</g>
						</g>
					</g>
				</g>
			</g>
			<g>
				<g>
					<g>
						<g>
							<g>
								<g>
									
										<rect x="1762.793" y="1884.999" transform="matrix(0.5582 -0.8297 0.8297 0.5582 -787.2073 2296.9067)" width="0.683" height="5.244"/>
								</g>
							</g>
						</g>
					</g>
				</g>
			</g>
			<g>
				<g>
					<g>
						<g>
							<g>
								<g>
									
										<rect x="1765.911" y="1884.171" transform="matrix(0.5593 -0.8289 0.8289 0.5593 -785.7124 2295.5813)" width="0.682" height="5.243"/>
								</g>
							</g>
						</g>
					</g>
				</g>
			</g>
			<g>
				<g>
					<g>
						<g>
							<g>
								<g>
									<g>
										<g>
											<g>
												<g>
													<g>
														<g>
															<path style="fill:#7FC6A6;" d="M1755.398,1901.548h94.067c2.331,0,4.22-1.89,4.22-4.221v-0.684
																c0-2.331-1.89-4.221-4.22-4.221h-94.067c-0.404,0-0.731,0.327-0.731,0.731v7.663
																C1754.667,1901.221,1754.994,1901.548,1755.398,1901.548z"/>
														</g>
													</g>
												</g>
											</g>
										</g>
									</g>
								</g>
							</g>
						</g>
					</g>
				</g>
			</g>
			<g>
				<g>
					<g>
						<g>
							<g>
								<g>
									<path d="M1848.815,1892.569l0.617-0.291c-0.076-0.162-1.943-3.988-8.91-6.959c-6.847-2.92-36.96-16.276-37.263-16.41
										l-0.277,0.624c0.304,0.135,30.422,13.493,37.272,16.415C1846.957,1888.806,1848.797,1892.532,1848.815,1892.569z"/>
								</g>
							</g>
						</g>
					</g>
				</g>
			</g>
			<g>
				<g>
					<g>
						<g>
							<g>
								<g>
									<g>
										<g>
											<g>
												<g>
													<g>
														<g>
															<path d="M1852.295,1900.725c1.101-0.934,1.732-2.296,1.732-3.739c0-2.704-2.2-4.904-4.904-4.904h-92.169
																c-1.449,0-2.628,1.18-2.628,2.629v4.549h0.682v-4.549c0-1.074,0.873-1.947,1.946-1.947h92.169
																c2.328,0,4.221,1.893,4.221,4.221c0,1.242-0.543,2.415-1.491,3.22L1852.295,1900.725z"/>
														</g>
													</g>
												</g>
											</g>
										</g>
									</g>
								</g>
							</g>
						</g>
					</g>
				</g>
			</g>
		</g>
		<g>
			<g>
				<g>
					<g>
						<g>
							<g>
								<g>
									<g>
										<g>
											<g>
												<g>
													<g>
														<g>
															<path style="fill:#FC4F68;" d="M2077.55,1894.922h-92.821v-18.934c0,0,6.752-9.088,17.031-4.449
																c0,0,15.548,11.03,29.255-2.318l34.037,15.098C2065.053,1884.319,2077.55,1888.484,2077.55,1894.922z"/>
														</g>
													</g>
												</g>
											</g>
										</g>
									</g>
								</g>
							</g>
						</g>
					</g>
				</g>
			</g>
			<g>
				<g>
					<g>
						<g>
							<g>
								<g>
									<rect x="1984.388" y="1875.988" width="0.683" height="16.082"/>
								</g>
							</g>
						</g>
					</g>
				</g>
			</g>
			<g>
				<g>
					<g>
						<g>
							<g>
								<g>
									<path d="M2015.696,1876.167c1.303,0,2.088-0.111,2.113-0.115l-0.101-0.674c-0.079,0.011-8.114,1.137-15.754-4.12
										l-0.387,0.563C2007.041,1875.586,2012.719,1876.167,2015.696,1876.167z"/>
								</g>
							</g>
						</g>
					</g>
				</g>
			</g>
			<g>
				<g>
					<g>
						<g>
							<g>
								<g>
									
										<rect x="1990.689" y="1884.999" transform="matrix(0.5581 -0.8298 0.8298 0.5581 -686.4449 2486.3223)" width="0.683" height="5.244"/>
								</g>
							</g>
						</g>
					</g>
				</g>
			</g>
			<g>
				<g>
					<g>
						<g>
							<g>
								<g>
									
										<rect x="1993.807" y="1884.171" transform="matrix(0.5592 -0.829 0.829 0.5592 -685.2127 2484.8203)" width="0.682" height="5.243"/>
								</g>
							</g>
						</g>
					</g>
				</g>
			</g>
			<g>
				<g>
					<g>
						<g>
							<g>
								<g>
									<g>
										<g>
											<g>
												<g>
													<g>
														<g>
															<path style="fill:#7FC6A6;" d="M1983.294,1901.548h94.067c2.331,0,4.221-1.89,4.221-4.221v-0.684
																c0-2.331-1.89-4.221-4.221-4.221h-94.067c-0.404,0-0.731,0.327-0.731,0.731v7.663
																C1982.563,1901.221,1982.89,1901.548,1983.294,1901.548z"/>
														</g>
													</g>
												</g>
											</g>
										</g>
									</g>
								</g>
							</g>
						</g>
					</g>
				</g>
			</g>
			<g>
				<g>
					<g>
						<g>
							<g>
								<g>
									<path d="M2076.711,1892.569l0.617-0.291c-0.076-0.162-1.943-3.988-8.91-6.959c-6.846-2.92-36.96-16.276-37.263-16.41
										l-0.277,0.624c0.304,0.135,30.422,13.493,37.272,16.415C2074.853,1888.806,2076.693,1892.532,2076.711,1892.569z"/>
								</g>
							</g>
						</g>
					</g>
				</g>
			</g>
			<g>
				<g>
					<g>
						<g>
							<g>
								<g>
									<g>
										<g>
											<g>
												<g>
													<g>
														<g>
															<path d="M2080.191,1900.725c1.101-0.934,1.732-2.296,1.732-3.739c0-2.704-2.2-4.904-4.904-4.904h-92.169
																c-1.45,0-2.629,1.18-2.629,2.629v4.549h0.682v-4.549c0-1.074,0.873-1.947,1.946-1.947h92.169
																c2.328,0,4.221,1.893,4.221,4.221c0,1.242-0.543,2.415-1.491,3.22L2080.191,1900.725z"/>
														</g>
													</g>
												</g>
											</g>
										</g>
									</g>
								</g>
							</g>
						</g>
					</g>
				</g>
			</g>
		</g>
		<g>
			<path style="fill:#4CB7D8;" d="M1853.417,1432.834c0,0-99.58,354.712-107.414,403.852c0,0,22.614,27.472,80.204,24.765
				c0,0,44.957-139.932,129.72-372.83c7.456-20.485,23.027-51.039,23.027-51.039S1862.719,1417.641,1853.417,1432.834z"/>
		</g>
		<g>
			<path style="fill:#FD7583;" d="M1841.595,1224.685c0,0-9.521,16.143-5.722,27.063c3.798,10.92,38.629,91.828,38.629,96.576
				s-17.006,78.339-21.085,84.511c0,0,74.735,41.781,125.537,4.748c0,0,2.849-95.906-15.668-146.233c0,0,0.351-26.56-0.8-35.507
				c-2.224-17.287-42.88-52.328-52.851-52.803C1899.665,1202.565,1852.515,1211.865,1841.595,1224.685z"/>
		</g>
		<g>
			<g>
				<g>
					<g>
						<path style="fill:#7FC6A6;" d="M2153.794,878.74c-3.25-20.076-9.73-39.151-18.965-56.622l30.496-38.283l-21.966-25.249
							l-21.966-25.249l-42.135,24.904c-16.025-11.563-34.02-20.621-53.453-26.618l-5.508-48.641l-33.386-2.321l-33.386-2.321
							l-12.186,47.411c-20.076,3.25-39.151,9.73-56.622,18.965l-38.284-30.496l-25.249,21.966l-25.249,21.966l24.904,42.136
							c-11.563,16.024-20.621,34.019-26.618,53.452l-48.641,5.508l-2.321,33.386l-2.321,33.386l47.411,12.186
							c3.25,20.076,9.73,39.151,18.965,56.622l-30.496,38.284l21.966,25.249l21.966,25.249l42.136-24.904
							c16.025,11.563,34.02,20.621,53.453,26.618l5.507,48.641l33.386,2.321l33.387,2.321l12.186-47.411
							c20.076-3.25,39.151-9.73,56.622-18.964l38.283,30.496l25.249-21.967l25.249-21.966l-24.905-42.135
							c11.563-16.025,20.621-34.02,26.618-53.453l48.641-5.508l2.321-33.387l2.321-33.386L2153.794,878.74z M1962.363,1033.726
							c-69.175-4.81-121.354-64.786-116.545-133.962c4.81-69.176,64.787-121.354,133.962-116.545
							c69.175,4.809,121.355,64.786,116.545,133.962C2091.515,986.357,2031.538,1038.536,1962.363,1033.726z"/>
					</g>
				</g>
			</g>
		</g>
		<g>
			<path style="fill:#FE9F73;" d="M1880.184,1057.304c0,0,21.618,93.29,20.668,98.038c-0.95,4.748-62.078,60.516-66.707,75.116
				c-4.07,12.836,1.727,45.325,32.343,40.577c40.861-6.337,81.605-106.453,79.706-121.646
				c-1.899-15.193-31.772-95.338-43.167-106.732L1880.184,1057.304z"/>
		</g>
		<g>
			<g>
				<g>
					<g>
						<g>
							<g>
								<g>
									<path style="fill:#FE9F73;" d="M1882.609,1020.897L1882.609,1020.897c0.866,1.846,10.152,10.039,13.782,12.845
										c-0.003,0.024-0.005,0.039-0.005,0.039l0,0c9.691,7.158,10.495,21.359,1.673,29.565l-4.536,4.22
										c0,0-21.651-16.531-24.585-19.205c-2.934-2.674-9.798-14.925-10.449-20.208c-1.181-9.587,2.444-6.765,2.444-6.765
										c-0.294-10.073,5.028-4.783,5.028-4.783c-1.054-9.002,4.92-4.99,4.92-4.99c-0.07-4.938,1.657-5.634,3.089-5.372
										c1.028,0.188,1.887,0.893,2.359,1.826C1877.445,1010.275,1880.214,1015.791,1882.609,1020.897L1882.609,1020.897z"/>
								</g>
							</g>
						</g>
					</g>
				</g>
			</g>
			<g>
				<g>
					<g>
						<g>
							<g>
								<g>
									<g>
										<g>
											<g>
												<g>
													<path style="fill:#F07162;" d="M1873.568,1021.086c0.139,0.146,0.361,0.193,0.552,0.101
														c0.237-0.114,0.338-0.399,0.224-0.637c-1.599-3.331-2.985-8.992-2.998-9.049c-0.063-0.256-0.321-0.413-0.577-0.351
														c-0.256,0.063-0.413,0.321-0.351,0.577c0.058,0.236,1.423,5.815,3.066,9.237
														C1873.505,1021.01,1873.534,1021.051,1873.568,1021.086z"/>
												</g>
											</g>
										</g>
									</g>
								</g>
							</g>
						</g>
					</g>
				</g>
			</g>
			<g>
				<g>
					<g>
						<g>
							<g>
								<g>
									<g>
										<g>
											<g>
												<g>
													<path style="fill:#F07162;" d="M1869.188,1025.253c0.156,0.163,0.41,0.198,0.606,0.071
														c0.221-0.144,0.283-0.439,0.14-0.66c-2.451-3.769-3.497-8.125-3.508-8.169c-0.061-0.258-0.319-0.415-0.574-0.355
														c-0.257,0.061-0.416,0.318-0.355,0.574c0.044,0.184,1.092,4.557,3.637,8.471
														C1869.15,1025.209,1869.168,1025.232,1869.188,1025.253z"/>
												</g>
											</g>
										</g>
									</g>
								</g>
							</g>
						</g>
					</g>
				</g>
			</g>
			<g>
				<g>
					<g>
						<g>
							<g>
								<g>
									<g>
										<g>
											<g>
												<g>
													<path style="fill:#F07162;" d="M1863.463,1029.236c0.151,0.159,0.398,0.197,0.594,0.078
														c0.225-0.137,0.296-0.431,0.159-0.656c-2.022-3.315-2.806-7.321-2.814-7.362c-0.049-0.259-0.3-0.428-0.559-0.378
														c-0.258,0.049-0.428,0.3-0.378,0.559c0.033,0.17,0.825,4.217,2.936,7.678
														C1863.419,1029.185,1863.44,1029.212,1863.463,1029.236z"/>
												</g>
											</g>
										</g>
									</g>
								</g>
							</g>
						</g>
					</g>
				</g>
			</g>
		</g>
		<g>
			<path style="fill:#FD7583;" d="M1877.388,1064.505c0,0,24.414,86.089,23.464,90.837c-0.95,4.748-62.078,60.516-66.707,75.116
				c-4.07,12.836,1.727,45.325,32.343,40.577c40.861-6.337,81.605-106.453,79.706-121.646c-1.899-15.193-26.201-93.905-37.595-105.3
				L1877.388,1064.505z"/>
		</g>
		<g>
			
				<rect x="1876.902" y="1236.629" transform="matrix(0.5141 -0.8577 0.8577 0.5141 -134.1485 2237.6497)" style="fill:#1D1D1B;" width="62.127" height="1.202"/>
		</g>
		<g>
			<path style="fill:#F07162;" d="M1848.533,1189.61c-0.219-0.421,6.643,5.717,16.557,3.49l-7.615,7.96
				C1857.475,1201.06,1850.195,1192.815,1848.533,1189.61z"/>
		</g>
		<g style="opacity:0.1;">
			<path style="fill:#E54A67;" d="M1938.272,1283.973c-19.585,5.341-52.701,2.492-52.701,2.492s48.428,9.258,53.413,14.956
				s34.714,101.756,39.969,136.161c0,0,0,0,0,0c0,0,0,0,0.001,0c0,0,2.849-95.906-15.668-146.233c0,0,0.351-26.557-0.8-35.505
				l-0.001-0.001C1962.486,1255.842,1957.857,1278.632,1938.272,1283.973z"/>
		</g>
		<g>
			<path style="fill:#1D1D1B;" d="M1928.077,1453.446c-11.246,0.001-21.947-1.643-31.078-3.765
				c-24.829-5.769-43.687-16.217-43.875-16.322l-0.565-0.315l0.357-0.54c4.141-6.267,20.985-80.56,20.985-84.18
				c0-2.824-14.123-36.809-24.435-61.623c-4.063-9.779-7.902-19.016-10.575-25.598c-6.505-9.283-7.815-22.952-5.318-30.826
				c2.904-9.161,26.759-33.315,45.926-52.722c10.51-10.642,20.438-20.693,20.765-22.331c0.756-3.777-16.673-66.649-23.453-90.555
				l-0.121-0.426l31.989-20.924l0.345,0.345c11.276,11.276,35.838,90.221,37.766,105.65c0.919,7.352-7.91,34.189-22.067,61.101
				c14.646,10.761,36.687,32.348,38.36,45.351c1.105,8.592,0.829,33.592,0.806,35.48c18.304,49.887,15.694,145.394,15.666,146.354
				l-0.009,0.294l-0.239,0.174C1963.389,1449.671,1945.111,1453.445,1928.077,1453.446z M1854.243,1432.599
				c3.225,1.724,20.703,10.729,43.056,15.918c22.641,5.255,55.05,7.556,81.061-11.247c0.149-5.916,2.12-97.449-15.639-145.714
				l-0.038-0.104l0.002-0.111c0.004-0.265,0.338-26.619-0.795-35.422c-1.572-12.221-23.25-33.893-38.295-44.839l-0.421-0.306
				l0.243-0.461c14.195-26.868,23.082-53.634,22.18-60.85c-1.9-15.195-25.785-92.244-37.088-104.598l-30.423,19.901
				c2.066,7.297,24.296,85.984,23.354,90.694c-0.38,1.901-7.492,9.173-21.088,22.939c-18.07,18.297-42.819,43.355-45.635,52.24
				c-2.413,7.611-1.13,20.849,5.195,29.827l0.066,0.12c2.672,6.582,6.521,15.845,10.597,25.652
				c13.896,33.44,24.526,59.245,24.526,62.084C1875.102,1352.103,1859.138,1423.057,1854.243,1432.599z"/>
		</g>
	</g>
	<g>
		<g>
			<g>
				<g>
					<g>
						<g>
							<g>
								<g>
									<path style="fill:#49263E;" d="M943.01,943.302c7.005,4.808,14.261,9.508,21.567,13.97l1.995,1.219l-2.437,3.99
										l-1.995-1.219c-7.376-4.505-14.702-9.251-21.774-14.106l-1.929-1.322l2.646-3.855L943.01,943.302z M986.848,970.07
										c7.59,4.09,15.306,7.971,22.936,11.533l2.118,0.989l-1.978,4.236l-2.118-0.989c-7.711-3.6-15.508-7.521-23.175-11.655
										l-2.059-1.108l2.219-4.115L986.848,970.07z M1226.308,742.247l1.956-1.279l2.559,3.914l-1.956,1.278
										c-3.794,2.479-7.295,5.497-10.406,8.965c-0.003,0.003-0.006,0.007-0.009,0.01c-2.367,2.639-4.558,5.596-6.512,8.786
										l-1.22,1.993l-3.987-2.441l1.22-1.993c2.1-3.431,4.463-6.617,7.019-9.467c0.003-0.003,0.006-0.007,0.009-0.01
										C1218.362,748.233,1222.175,744.949,1226.308,742.247z M1203.212,784.577l-0.32,2.316c-1.05,7.608,0.735,15.4,5.306,23.157
										l1.186,2.015l-4.029,2.372l-1.186-2.015c-5.118-8.687-7.106-17.492-5.908-26.169l0.32-2.316L1203.212,784.577z
										 M1251.32,733.213c8.345-1.08,17.234-0.64,26.421,1.306l2.286,0.486l-0.969,4.574l-2.287-0.484
										c-8.67-1.839-17.031-2.257-24.849-1.246l-2.319,0.3l-0.599-4.637L1251.32,733.213z M1033.354,991.732
										c8.083,3.171,16.216,6.043,24.173,8.536l2.23,0.7l-1.398,4.462l-2.23-0.7c-8.06-2.527-16.298-5.435-24.481-8.647
										l-2.177-0.854l1.707-4.351L1033.354,991.732z M1224.838,828.427c6.166,4.885,13.393,9.331,21.482,13.213l2.108,1.01
										l-2.023,4.215l-2.108-1.011c-8.404-4.031-15.927-8.663-22.363-13.763l-1.832-1.452l2.903-3.665L1224.838,828.427z
										 M1302.557,743.265c7.739,3.822,15.187,8.563,22.141,14.089l1.83,1.454l-2.908,3.66l-1.83-1.454
										c-6.694-5.32-13.863-9.881-21.303-13.558l-2.097-1.035l2.072-4.192L1302.557,743.265z M1082.236,1007.001
										c8.438,1.941,16.902,3.511,25.157,4.669l2.314,0.324l-0.649,4.631l-2.315-0.325c-8.388-1.175-16.985-2.771-25.554-4.743
										l-2.28-0.523l1.05-4.557L1082.236,1007.001z M1270.053,850.649c7.925,2.315,16.294,4.141,24.873,5.429l2.312,0.347
										l-0.693,4.622l-2.312-0.347c-8.788-1.319-17.364-3.19-25.49-5.565l-2.245-0.655l1.311-4.488L1270.053,850.649z
										 M1341.961,773.906l1.489,1.801c2.202,2.665,4.294,5.427,6.221,8.207c3.081,4.444,5.777,9.124,8.014,13.909l0.99,2.117
										l-4.235,1.98l-0.99-2.117c-2.127-4.547-4.691-8.997-7.622-13.226c-1.853-2.673-3.866-5.328-5.984-7.89l-1.488-1.804
										L1341.961,773.906z M1132.84,1014.007c8.583,0.366,17.171,0.282,25.522-0.248l2.334-0.149l0.296,4.666l-2.332,0.147
										c-8.515,0.542-17.27,0.627-26.02,0.255l-2.334-0.1l0.198-4.671L1132.84,1014.007z M1320.324,858.304
										c8.384,0.236,16.965-0.004,25.508-0.72l2.33-0.195l0.389,4.66l-2.329,0.195c-8.715,0.727-17.473,0.975-26.028,0.732
										l-2.337-0.066l0.133-4.674L1320.324,858.304z M1183.685,1010.706c8.368-1.499,16.703-3.502,24.776-5.957l2.237-0.68
										l1.362,4.472l-2.237,0.68c-8.25,2.509-16.767,4.557-25.314,6.088l-2.301,0.411l-0.823-4.602L1183.685,1010.706z
										 M1364.97,820.732l0.354,2.31c1.293,8.47,1.456,17.322,0.487,26.309l-0.253,2.324l-4.647-0.503l0.25-2.324
										c0.928-8.585,0.774-17.031-0.46-25.101l-0.354-2.31L1364.97,820.732z M1232.379,995.904
										c7.783-3.384,15.491-7.192,22.912-11.322l2.042-1.137l2.273,4.087l-2.043,1.136c-7.551,4.202-15.398,8.079-23.321,11.525
										l-2.142,0.931l-1.864-4.288L1232.379,995.904z M1371.13,854.112c8.261-1.576,16.612-3.608,24.82-6.042l2.241-0.664
										l1.329,4.483l-2.243,0.665c-8.355,2.476-16.858,4.546-25.271,6.152l-2.296,0.437l-0.876-4.591L1371.13,854.112z
										 M1360.874,872.748l-0.736,2.219c-2.649,7.982-6.147,16.057-10.4,24.003l-1.104,2.061l-4.121-2.206l1.103-2.062
										c4.127-7.71,7.521-15.539,10.084-23.268l0.737-2.219L1360.874,872.748z M1276.989,971.075
										c7.035-4.878,13.842-10.125,20.234-15.597l1.777-1.522l3.04,3.551l-1.776,1.52c-6.512,5.576-13.448,10.923-20.613,15.889
										l-1.921,1.331l-2.663-3.842L1276.989,971.075z M1337.169,919.142l-1.381,1.886c-5.011,6.839-10.63,13.593-16.679,20.027
										l-1.6,1.705l-3.408-3.201l1.599-1.703c5.931-6.315,11.418-12.906,16.316-19.592l1.381-1.886L1337.169,919.142z
										 M1420.011,839.573c7.664-3.237,15.335-7.069,22.798-11.387l2.024-1.172l2.341,4.047l-2.023,1.17
										c-7.634,4.417-15.479,8.335-23.321,11.648l-2.155,0.91l-1.818-4.307L1420.011,839.573z M1579.276,674.325l-1.036,2.094
										c-3.815,7.709-7.879,15.424-12.081,22.93l-1.141,2.04l-4.079-2.285l1.142-2.039c4.162-7.438,8.189-15.081,11.968-22.719
										l1.038-2.096L1579.276,674.325z M1554.164,719.652l-1.246,1.976c-4.665,7.395-9.525,14.64-14.444,21.532l-1.359,1.903
										l-3.805-2.716l1.357-1.901c4.869-6.823,9.677-13.991,14.294-21.31l1.248-1.978L1554.164,719.652z M1464.143,814.174
										c6.67-4.917,13.333-10.354,19.806-16.162l1.74-1.561l3.121,3.48l-1.74,1.562c-6.582,5.906-13.363,11.44-20.154,16.444
										l-1.882,1.388l-2.773-3.763L1464.143,814.174z M1524.228,761.984l-1.475,1.811c-5.542,6.805-11.205,13.284-17.1,19.533
										l-1.604,1.701l-3.401-3.207l1.602-1.7c5.82-6.179,11.407-12.567,16.877-19.28l1.477-1.813L1524.228,761.984z"/>
								</g>
							</g>
						</g>
					</g>
				</g>
			</g>
		</g>
		<g>
			<g>
				<g>
					<g>
						<g>
							<g>
								<path style="fill:#EF9D43;" d="M1618.493,658.719l1.284-29.086c0,0,67.812-67.312,68.433-68.664
									c0.621-1.352,23.494-50.965,23.494-50.965l-50.182,35.499l-69.394,73.858L1618.493,658.719z"/>
							</g>
						</g>
					</g>
				</g>
			</g>
			<g>
				<g>
					<g>
						<g>
							<g>
								<polygon style="fill:#FEC786;" points="1543.738,595.169 1711.705,510.003 1592.129,619.361 								"/>
							</g>
						</g>
					</g>
				</g>
			</g>
			<g>
				<g>
					<g>
						<g>
							<g>
								<polygon style="fill:#FEC786;" points="1619.778,629.633 1671.023,655.617 1711.705,510.003 								"/>
							</g>
						</g>
					</g>
				</g>
			</g>
		</g>
	</g>
	<g>
		<g>
			<g>
				<path style="fill:#FFFFFF;" d="M902.127,664.093c30.197-1.73,100.987-4.747,162.527,0.442
					c25.46,2.147,47.443-18.191,46.87-43.735c-0.234-10.455-3.984-22.617-13.688-36.4c-37.365-53.066-102.314-2.388-101.69,24.549
					c0,0-13.13-40.561-53.011-33.461c-39.881,7.101-25.777,66.09-25.777,66.09s-12.869-2.719-21.791,3.371
					C886.794,650.938,891.523,664.7,902.127,664.093z"/>
			</g>
		</g>
	</g>
	<g>
		<g>
			<g>
				<path style="fill:#FFFFFF;" d="M2584.965,665.826c-20.739-1.188-69.356-3.26-111.621,0.304
					c-17.486,1.475-32.583-12.493-32.19-30.037c0.161-7.18,2.736-15.534,9.401-24.999c25.662-36.445,70.268-1.64,69.84,16.86
					c0,0,9.018-27.857,36.407-22.98c27.39,4.877,17.704,45.39,17.704,45.39s8.839-1.867,14.966,2.315
					C2595.496,656.791,2592.248,666.243,2584.965,665.826z"/>
			</g>
		</g>
	</g>
	<g>
		<path style="fill:#FFFFFF;" d="M771.225,1036.768c1.623-5.438,1.046-11.659-2.745-16.844
			c-6.856-9.375-19.315-17.329-41.648-18.701c0,0,24.152-107.294-69.443-118.553c-96.18-11.57-101.149,101.516-101.149,101.516
			s-54.515-59.993-84.234,13.099c0,0-58.671-29.604-86.854,5.932c-8.436,10.637-7.013,24.894,0.238,33.551H771.225z"/>
	</g>
	<g>
		<path style="fill:#FFFFFF;" d="M3044.923,911.838c1.623-5.439,1.047-11.659-2.745-16.844
			c-6.856-9.375-19.314-17.329-41.648-18.701c0,0,24.152-107.294-69.443-118.553c-96.18-11.57-101.148,101.516-101.148,101.516
			s-54.515-59.993-84.234,13.099c0,0-58.671-29.604-86.854,5.932c-8.437,10.637-7.013,24.894,0.238,33.551H3044.923z"/>
	</g>
	<rect x="157.709" y="1901.548" style="fill:#33192C;" width="3524.732" height="7.041"/>
</g>
</svg>
